<svg version="1.2" xmlns="http://www.w3.org/2000/svg" viewBox="0 0 1014 769" width="1014" height="769">
	<title>campina_logo</title>
	<style>
		.s0 { fill: #000000 } 
	</style>
	<path fill-rule="evenodd" class="s0" d="m479.9 30q1.2-0.1 2.4-0.1c10.3-0.4 20.7-0.1 30.9-0.1 131.2 1 269.8 34.4 368.1 126 43.9 40.2 75.7 91.7 92.1 148.8 5.4 19.3 9.2 39.3 9.9 59.4 2.9 85.5-33.9 163.5-91.7 225-81.2 86.4-198.6 132.4-314.7 145.5q-23.5 2.9-47.2 3.9-1.5 0.1-2.9 0.2c-27.1 1.4-54.3 0.1-81.3-2.3-112.2-10-226.3-48.1-311.1-124.4-62.9-56.5-103.8-129.4-108.3-214.9-4.1-78 28.5-156.4 80.4-213.8 74.8-82.8 177.9-128.2 286.7-145.2 28.7-4.5 57.7-6.6 86.7-8zm34.6 689c30.1-0.4 60.2-3.1 89.9-8 98.6-16.2 194.5-56.9 265.6-128.6 41.6-42 75.4-96.4 87.7-154.6 3.8-18.5 5.6-37.4 5.3-56.3-0.4-72.4-36.6-143.1-87.4-193.2-96.4-95-239.2-130.3-371.2-129.3q-5.7 0-11.4 0.3c-134.3 2.8-270.1 40.3-365.5 139.9-50.6 52.9-82.8 127.8-81.2 201.5 1.7 58.1 22.1 114.1 58.1 159.8 11.9 15.4 25.5 29.5 39.7 43 16.3 15.5 34.2 29 53 41.4 75.3 49.6 163.3 74.6 252.7 81.9 18.9 1.6 38.3 2.9 57.3 2.5q3.7-0.1 7.4-0.3zm21.7-435.2c1.2 0.1 2.4 0.3 3.6 0.7 2.2 0.6 4 1.7 5 3.8 2.9 5.6-1.4 15.7-3.2 21.3 5.8-8.1 14.1-14.3 23.2-18.2 8.2-3.6 17.3-5.6 25.9-2 6 2.5 10.3 7.2 12.7 13.2 6.3 15.4 2 36.2-4.4 51.2-8.5 20.1-24.1 39.3-44.8 47.5-10.3 4.1-21.7 5.3-32 0.8-2.3 15.1-6.8 31-10.1 46-2.2 10-5.7 31.7-9.3 39.9-1.2 2.5-3.9 5-6.6 5.9-3.3 1.2-8.5 0.8-11.7-0.7-1.8-0.9-3.5-2.8-4.1-4.8-1-3.4-0.1-8.3 0.4-11.8 2.4-15.8 6.7-31.7 10.2-47.3 2.2-10 4.1-25.1 8.3-33.9-3.6 3.8-7.4 7.2-11.7 10-7.6 5-17.2 10.1-26.5 8-4.9-1.1-8.5-4-11.1-8.2-8.3-13.4 4.7-46.6 8.2-61.6 0.8-3.4 2.8-10.4 0.4-13.5-0.6-0.8-1.4-1.1-2.3-1.2-3.8-0.4-9.5 3.8-12.2 6.2-11.6 9.9-20.6 24.9-26.8 38.7-1.7 3.8-3.4 7.8-4.8 11.8-2.4 7.3-4.4 20.8-10.6 25.7-2.9 2.3-6.8 3-10.4 2.6-3.1-0.4-6.3-1.7-8.2-4.3-2.1-3-2.3-6.9-2-10.4 0.6-7.2 3.1-14.4 5.1-21.3 3.1-10.7 6.6-21.7 8.6-32.7 0.7-3.4 1.6-8.6-0.5-11.7-1.2-0.5-1.8-0.7-3.1-0.3-2.6 0.8-5.3 3.1-7.3 4.8-14 12.4-23.8 33.1-30 50.5-2.7 7.8-4.1 17.4-8.1 24.6-1.9 3.4-4.8 6.1-8.6 7.1-3.6 0.9-8.7 0-11.8-2.1-3.5-2.4-4.5-5.8-5.2-9.7-3.4 3.4-7 6.1-11.2 8.5-3 1.7-6.4 2.9-9.8 3.2-5 0.5-10-1-13.8-4.3-5.8-5.1-7.5-12.5-7.9-19.9q-1 1.9-2.1 3.7c-7.3 11.8-21 24.2-34.7 27.3-7.3 1.6-15.1 0.3-21.4-3.8-7.4-4.7-11.9-12.4-13.7-20.9-3.9-18.7 4.1-38.9 14.3-54.4 12.4-18.9 31.6-38.3 54.6-42.9 7.7-1.5 16.1-1.3 22.8 3.3 6 4.1 7.7 9.9 9 16.7 3.3 1.6 6.3 3 7.4 6.9 2.5 9.1-18.8 50.4-13.3 61.6 0.8 1.5 2 2.6 3.7 3.1 2.9 0.8 6.4-0.2 8.9-1.8 3.1-2 5.6-5 7.2-8.2 3.2-6.7 4.3-15.4 5.9-22.6q4.8-19.6 9.1-39.3c1.4-6 2.7-13.7 8.5-17.1 3.1-1.8 7-1.9 10.4-1 2.3 0.6 4.2 2.2 5.4 4.3 4 7-2 27.5-4.2 35.4 5.4-9.6 12.1-19.3 20.6-26.4 7.1-5.9 16.7-11.9 26.4-10.9 4.3 0.4 8.2 2.5 10.9 6 5.9 7.7 4.5 18 3.2 27q2-3.4 4.1-6.7c9.1-14 25.1-29.2 41.8-32.7 5.1-1 11.9-1.3 16.4 1.9 12.4 8.7 6.1 29.7 3.3 41.8l-4.8 20.2c-1.1 4.8-2.9 11-1.9 15.9 0.3 1.6 1.1 3.2 2.5 4.1 1.2 0.7 2.7 0.8 4 0.5 22.8-5.3 31.9-54.5 36.5-74.3 1.7-7.1 2.8-15.8 6.7-22.1 2.6-4.1 6.4-5.6 11-6.7zm-0.4 101.2c8.8 0.1 16.2-4 22.4-10 13.1-12.7 23.3-34.3 23.4-52.7 0-3.8-0.6-8.2-3.5-10.9-1.3-1.4-3.2-1.9-5-2.3-11.9 2-21 10.6-27.8 20.2-2.8 3.9-5.1 8.1-7 12.5-2.2 5.1-11.9 36.1-11.2 39.6 0.2 1 0.9 1.7 1.8 2.2 1.9 1.1 4.8 1.7 6.9 1.4zm-282-156.5c1.9-0.2 3.8 0 5.6 0.1 11.5 0.7 23.8 4.5 31.6 13.4 4.1 4.7 7.1 11.5 6.6 17.8-0.3 3.8-2 7.1-4.9 9.5-3.4 2.8-8.4 4.5-12.8 4-10.4-1.3-8.1-9.3-13.1-15.4-2.7-3.2-6.4-4.7-10.5-4.9-20.7-1.5-45 12.6-60 25.8-30.1 26.2-48.6 66.1-51.2 105.8-1.8 26.5 0.6 57 19.1 77.9 7.9 9 18.2 14.5 29.9 16.8 22.7 4.5 45.4-4.4 63.3-17.8 4.9-3.6 9.1-8.1 14-11.6 2.1-1.6 5-3.5 7.8-3.3 2.3 0.3 3.6 1.5 4.9 3.2q0.2 0.3 0.3 0.5 0.1 0.3 0.1 0.7c0.6 6.9-8.6 17.5-12.8 22.6-16.4 20.2-40.4 33-66.3 35.3-24.1 2.2-47.3-4.5-65.8-20.1-21.2-17.8-30.9-45.5-33.2-72.3-4-48 14.6-97.1 45.5-133.4 25.8-30.4 61.9-51.4 101.9-54.6zm593.6 48c4.9-0.5 9.7-0.7 14.5 0.4 5.4 1.3 10.6 4.2 13.6 9 1.6 2.7 3.4 7.5 2.6 10.6 2 1.1 4.9 2.4 6.1 4.4 4.2 7-5.9 30.9-8.2 39.2-2.2 7.5-6.9 22.7-2.6 29.7 1 1.7 2.5 2.6 4.5 2.9 11.2 2 17.3-11.8 24.6-16.5 1.1-0.7 2.5-1.1 3.9-0.8 1.3 0.3 2.2 1.3 2.9 2.4 1.2 2 0.5 4.8-0.1 6.9-3.3 11-13.4 21.3-23.4 26.5-6.3 3.2-14.2 4.3-21.1 2-7.7-2.6-12.4-9.1-13.9-17-0.3-1.8-0.3-4.8-1.2-6.3q-0.1-0.3-0.2-0.5c-2.6 7.2-13.6 16.9-19.7 20.9-7.9 5.2-17.6 8.2-27.1 6.2-8.9-1.9-14-6.6-17.9-14.6-0.9-1.7-1.3-4.1-2.4-5.6q-0.2-0.2-0.3-0.5c-1.6 5.3-7.6 10.7-11.8 13.9-7 5.2-15.9 9.2-24.7 7.9-5.7-0.8-10.6-3.7-14-8.4-14.1-19.8 4.6-52.2 7.9-73.3 0.2-1.4 0.2-2.3-0.7-3.5-0.6-0.8-1.5-1.4-2.6-1.5-5.3-0.3-11 4.3-14.5 7.9-10.4 10.3-17.7 23.9-23.1 37.4-1.9 5-3.9 10.1-5.5 15.2-2.2 7-3.8 21.3-9 26.1-2.3 2.1-5.6 3-8.7 2.9-2.9-0.1-6-1.3-8-3.5-3.5-4-3.1-10.1-2.6-14.9-5.3 6.7-10.8 12.7-18.2 17.1-6.7 4.1-14.4 6.5-22.2 4.6-3.7-1.2-6.7-2.9-9.3-6-5.8-7-5.6-18.2-4.8-26.9 1.6-17.2 7.7-34.7 12.3-51.4 2.3-8 4.1-17.2 7.4-24.8 1-2.4 2.3-4.5 4.3-6.1 3-2.4 6.8-2.8 10.5-2.3 2.9 0.4 6.2 1.6 8 4.2 1.7 2.6 1.6 6.6 1.2 9.5-0.7 6.7-2.9 13.4-4.7 19.9-4.2 15.3-9.5 30.8-12.7 46.3-0.6 2.8-1.5 7.5 0.4 10 0.7 1 2 1.6 3.3 1.7 4.3 0.4 9-3.8 11.8-6.7 6-5.9 10.7-12.9 14-20.7 5.5-12.7 8.3-27.2 11.5-40.7 1.2-5.2 2.1-11 4-16 0.9-2.2 2-4.2 3.9-5.6 2.3-1.9 5.4-2.5 8.3-2.1 2.9 0.5 6 2.2 7.6 4.7 3.6 5.4-1.5 22.1-3 28.6 1.9-3.2 3.8-6.3 6.2-9.1 9.5-11.4 23.5-22.8 38.7-24 5.5-0.5 11.5 0.5 15.7 4.2 4 3.6 6.4 9.5 6.8 14.8 0.8 13.5-9.2 37.8-11.7 52.8-0.5 2.9-1.1 6.1-0.9 8.9 0.2 1.6 0.6 3.1 2 4.1 1.6 1.1 4.2 0.9 6 0.5 3.7-0.8 6.7-3.1 9.4-5.6 10.9-10.1 10-18.7 14.5-31.3 2.3-6.3 5.6-12.3 9.2-17.9 12.7-19.6 29.9-35.2 53.2-40.2zm-28.9 93.2c8.2-0.7 16.1-8.5 21.1-14.4 9.1-10.9 21.9-36.9 20.6-51.4-0.2-1.9-0.8-3.9-2.4-5.1-2.5-2.1-6.3-1.4-9.3-1-4.3 2-8.4 3.9-12.3 6.6-11.3 7.9-20.2 21.3-25 34.1-2.6 6.8-5.4 18.2-2.2 25.3 1.1 2.3 3.2 4.3 5.7 5.2 1.2 0.4 2.5 0.6 3.8 0.7zm-576.5 30.5c8.8-0.2 14.2-4.8 20.1-10.9 11.1-11.6 17.7-25.4 22.5-40.6 1.4-4.7 3-9.9 2.9-14.8-0.1-2.4-0.6-5-2.4-6.7-1.1-1.1-2.7-1.3-4.1-1.3-14.1 2.6-25.2 13.1-33.1 24.6-7.1 10.3-15.8 27.4-13.5 40.2 0.6 3.1 2.1 6.3 4.8 8.1q1.3 0.8 2.8 1.4zm406.4-200.1c5.5-0.2 10.5 0.3 15.5 2.8 6.2 3.2 10.8 8.7 12.9 15.4 2.6 8.2 1.4 17.3-2.6 24.8-4.2 8-10.5 12.3-19 14.9-6.3 0.5-12.5-0.6-18-4-6.5-4.1-10.8-10.7-12.5-18.2-1.7-7.9-0.4-16.7 4.1-23.6 4.8-7.4 11.3-10.3 19.6-12.1zm35.8 238.7c3.9 0.2 7.3 0.7 10.6 2.8 4.3 2.9 6.8 7.6 7.9 12.6 1.5 7.3 1 16.9-3.1 23.3-2.9 4.4-6.7 6.2-11.8 7.2-3.6 0.2-7.4-0.3-10.5-2.2-4.3-2.6-6.6-7.1-7.7-11.8-1.8-7.6-1.3-17.5 2.9-24.3 2.8-4.5 6.6-6.4 11.7-7.6zm3.9 39.1c2.9-1.4 4.4-3.5 5.4-6.6 1.9-5.7 2.1-15.1-0.9-20.6-1.1-2.1-3-4-5.4-4.6-1.1-0.3-2.4 0-3.5 0.1-3 1.4-4.4 3.4-5.5 6.5-1.9 5.5-2.1 14.6 0.7 20 1.1 2.1 2.8 4.4 5.2 5 1.3 0.3 2.7 0.3 4 0.2zm81-38.6c5.6-0.3 10.4-0.3 15 3.3 2.1 1.7 3.8 3.8 4 6.5 0.4 5.2-2.9 6.9-5.2 10.7-0.1 0.1-0.4 0.8-0.3 0.9 1.5 2.5 5.4 2.3 6.3 9 0.5 3.2-0.5 6.3-2.4 8.8-2.7 3.6-6.3 5.2-10.6 5.8q-0.1 0-0.2 0c-4.3 0.9-9.2 0.1-12.9-2.5-2.7-1.9-4.7-4.8-5.2-8.2-1.2-7.2 2.5-8.2 6.2-13.1q-0.6-0.6-1.2-1.1c-1.1-0.9-1.9-1.7-2.6-2.9-1.4-2.2-2-4.4-1.4-6.9 1.5-5.5 5.5-7.4 9.9-10zm5.4 38.6c2.1-0.3 3.8-1 5.2-2.8 1-1.3 1.3-2.8 1.1-4.5-0.4-2.1-1.8-4.2-3.6-5.3-2.1-1.2-4.3-1.3-6.6-1.1-2.3 1.1-4 2.1-4.8 4.7-0.6 1.7-0.6 3.6 0.3 5.2 0.9 1.8 2.5 3.1 4.4 3.6 1.3 0.3 2.7 0.3 4 0.2zm0-20.3c1.9-0.5 3.6-0.9 4.8-2.7 0.7-1.1 0.9-2.5 0.6-3.9-0.5-1.8-1.8-3.4-3.5-4.3-1.7-1-3.3-0.9-5.2-0.8-2 0.9-3.3 1.8-4 3.9-0.5 1.6-0.4 3.3 0.3 4.8 0.8 1.5 2.1 2.4 3.7 2.8 1.1 0.3 2.3 0.4 3.3 0.2zm-189.9-18.1c2.7 0.3 5.5 0.4 8.3 0.6 6.3 9.4 11.4 20.2 16.7 30.3-1.4-9.8-0.6-20.6-0.6-30.6 2.7-0.1 5.3 0 8 0.3q0.4 21.8 0.4 43.7l-8.7 0.1c-6.1-10.2-11.2-20.7-17.2-30.9 1.5 9.9 0.7 20.7 0.7 30.7l-8 0.2c0.1-8.5-1.1-38.6 0.4-44.4zm43.4 0.1q4.3 0.2 8.5 0.5c5.5 7.4 11.9 21.3 16.2 29.7-1.4-9.7-0.7-20-0.6-29.9l7.9-0.1c0 5.7 1 41.4-0.6 43.7l-2.2 0.3c-1.5 0.1-3.1 0-4.7-0.1-2.5-1.2-14.8-26.2-17.3-30.8 0.6 10.3 0.4 20.6 0.5 30.9-2.6-0.1-5.2 0-7.9 0-0.5-7.4-0.3-15.1-0.3-22.6 0-7.1-0.4-14.5 0.5-21.6zm-72.5-0.1l7.1 0.4c5.6 14.5 10.5 29.3 15.6 44-2.9-0.1-5.9-0.1-8.8-0.1-0.9-2.8-1.7-7.3-3.6-9.6h-1.4c-4.1-0.4-8.3-0.2-12.4-0.3q-1.4 5-2.8 9.9h-8.5c4.3-14.9 9.6-29.7 14.8-44.3zm4.9 27.8h3.9c-0.9-2.8-4-15.1-5.7-16.4-1.2 5.2-3.7 10.9-4.1 16.2 1.9 0.1 3.9 0.1 5.9 0.2zm233.6-27.3c9.3-0.7 18.8-0.1 28.1-0.3 0.7 1.3 0.9 2.5 0.9 4 0.1 5-8.3 17.5-10.3 23.3-1.2 3.7-2.8 13.7-5 16.2q-0.1 0-0.1 0.1c-1.5 1.2-6.8 0.5-8.7 0.5q0.1-0.1 0.2-0.3c3.3-4.5 4.6-15 7.1-20.7 1.6-3.5 7.6-12.2 7.3-15.7q-10 0.1-20 0.3c1.1-2.4 0.9-4.9 0.5-7.4zm44.9 0c2.1-0.4 4.3-0.4 6.4-0.5 0.4 0.7 0.7 1.3 0.8 2 1 4.1 0.7 34.4 0.2 39.4-0.1 1.2-0.4 1.9-1 2.9-1.4 0.1-2.9 0.2-4.3 0.2-1.4-0.1-1.6-0.5-2.5-1.4-0.3-1.2-0.6-2.1-1-3.2l-0.2-0.4c0.3-0.4 0.6-0.8 0.7-1.4 0.7-3.6 0.7-26.5-0.7-28.8-1.1 0.9-3.5 2.1-4.9 2.4-1.6 0.4-2.5 0-3.8-0.8-0.2-0.9-0.4-1.2-0.2-2 1.4-4.2 6.9-6.4 10.5-8.4zm-94.4-0.6c1.1-0.1 1.1-0.2 2 0.4 0.9 14.5 0.1 29.4 0.1 43.9-2.6-0.1-5.3 0.1-7.9 0.2-0.3-2.8-0.2-5.7-0.3-8.6-0.3-8.6-0.6-18 0.3-26.6-1.8 1.1-4.9 3.4-6.9 3.2-1.2-0.1-1.5-0.5-2.2-1.4-0.2-1.7 0.4-3.1 1.5-4.5 3.1-4.1 8.5-6 13.4-6.6z"/>
</svg>