<svg version="1.2" xmlns="http://www.w3.org/2000/svg" viewBox="0 0 922 201" width="922" height="201">
	<title>Deloitte</title>
	<style>
		.s0 { fill: #000000 } 
	</style>
	<path id="path3356" fill-rule="evenodd" class="s0" d="m857 159.3c0-12.9 10.5-23.4 23.4-23.4 13 0 23.5 10.5 23.5 23.4 0 13-10.5 23.5-23.5 23.5-12.9 0-23.4-10.5-23.4-23.5zm-704.3-63.7q0 40.7-21.9 62.6-21.8 22-61.4 22h-51.3v-162.3h54.9q38.1 0 58.9 20 20.8 20 20.8 57.7zm-44.5 1.6q0-22.3-8.6-33.1-8.6-10.8-26.2-10.8h-12.5v90.9h9.6q19.5 0 28.6-11.6 9.1-11.6 9.1-35.4zm186.5-80h40.8v163h-40.8zm174.7 102.2q0.1 29.7-15.6 46.4-15.6 16.6-43.6 16.6-27 0-42.9-17-15.9-17-15.9-46 0-29.6 15.6-46 15.6-16.4 43.8-16.4 17.4 0 30.8 7.6 13.3 7.6 20.6 21.8 7.2 14.1 7.2 33zm-76.6 0q0 15.6 4.1 23.8 4.1 8.2 13.7 8.2 9.5 0 13.4-8.2 3.9-8.2 3.9-23.8 0-15.5-4-23.4-3.9-7.9-13.5-7.9-9.4 0-13.5 7.9-4.1 7.8-4.1 23.4zm92.8-60.2h40.9v121h-40.9zm0-41.9h40.9v27.3h-40.9zm123.6 132.1q8.2 0 19.7-4.1v30.4q-8.3 3.7-15.7 5.2-7.5 1.6-17.5 1.6-20.6 0-29.7-10.4-9-10.3-9-31.6v-49.9h-14.3v-31.4h14.3v-30.9l41.1-7.1v38h26v31.4h-26v47.1q0 11.7 11.1 11.7zm94.4 0q8.3 0 19.7-4.1v30.4q-8.2 3.7-15.7 5.2-7.4 1.6-17.4 1.6-20.6 0-29.7-10.4-9.1-10.3-9.1-31.6v-49.9h-14.3v-31.4h14.3v-31.3l41.2-6.7v38h26v31.4h-26v47.1q0 11.7 11 11.7zm143.4-36.9v18.6h-73q0.4 10.1 7.3 15.9 6.8 5.8 18.6 5.8 10.8 0 19.8-2.1c4.1-1 8.5-2.4 13.1-4.3l6.3 27.3q-9.5 4.9-19.7 6.8-10.2 2-24.4 2-29.5 0-45.9-16.1-16.3-16.1-16.3-45.8 0-30.7 15.1-47.1 15.2-16.4 43.2-16.4 26.7 0 41.3 14.3 14.6 14.2 14.6 41.1zm-37.1-7.7q-0.2-8.8-4.8-14-4.7-5.3-12.5-5.3-7.2 0-12.1 4.7-4.8 4.6-5.7 14.6zm-530.9 7.7v18.6h-73q0.4 10.1 7.3 15.9 6.8 5.8 18.6 5.8 10.8 0 19.8-2.1c4.1-1 8.5-2.4 13.2-4.3l6.2 27.3q-9.5 4.9-19.7 6.8-10.2 2-24.4 2-29.5 0-45.9-16.1-16.3-16.1-16.3-45.8 0-30.7 15.1-47.1 15.2-16.4 43.2-16.4 26.8 0 41.3 14.3 14.6 14.2 14.6 41.1zm-37.1-7.7q-0.2-8.8-4.8-14-4.7-5.3-12.5-5.3-7.2 0-12.1 4.7-4.8 4.6-5.6 14.6z"/>
</svg>