<svg version="1.2" xmlns="http://www.w3.org/2000/svg" viewBox="0 0 1644 494" width="1644" height="494">
	<title>DIOR</title>
	<style>
		.s0 { fill: #000000 } 
	</style>
	<path fill-rule="evenodd" class="s0" d="m27.8 29.7h206.9c177.9 0 247.5 104.4 247.5 215 0 112.5-89.3 212.7-259.1 212.7h-194.9c-3.6 0-4.9-2.3-4.9-4.2 0-2.2 2.3-4.2 5.5-4.2h36.4c11.3 0 18.7-6.7 18.7-19.3v-371.6c0-9.4-4.5-19.7-19.3-19.7h-37.1c-2.9 0-4.5-1.9-4.5-4.2 0-1.9 0.6-4.5 4.8-4.5zm139.6 420h54.7c135 0 184-103.5 184-207.3 0-103.8-51.9-204.3-165.9-204.3h-74.5c-7.7 0-8.3 6.4-8.3 9.3l-0.4 390c0 9.4 4.2 12.3 10.4 12.3zm335.4-419.7h174.6c3.9 0 5.5 2 5.5 4.2 0 2.3-1.6 3.9-4.5 3.9h-33.2c-12.2 0-19 7.1-19 17.7v375.8c0 14.8 13.2 17.7 18 17.7h33.9c4.5 0 5.1 2.6 5.1 5.2 0 2.6-3.5 2.9-6.1 2.9h-175.3c-4.8 0-4.5-2.3-4.5-3.5 0-1.3 0.3-4.6 4.5-4.6h36.1c10.3 0 16.1-11.6 16.1-19.3v-370.3c0-16.1-8-21.9-16.4-21.9h-36.4c-2.9 0-4.5-1.6-4.5-4.2 0-2.6 2.9-3.9 6.1-3.9zm195.9 213.7c0-122.8 88.3-222.7 230.1-222.7 142.1 0 230 100.2 230 223 0 122.8-88.9 222.7-230 222.7-138.3 0-230.1-100.2-230.1-223zm78 0c0 118.3 53.1 214.3 152.1 214 102.1 0 152.1-95.7 152.1-214 0-118.3-54.8-214-152.1-214-99.3 0-152.1 95.7-152.1 214zm833.2 211.1c8.7-1 7.8 7.4 2.9 9-7.7 2-16.1 2.3-28.3 2.3-28.7 0-79.3-6.1-117.9-54.5-45.2-56.4-51.9-155-142.8-155h-19v175c0 14.5 13.2 17.7 18 17.7h37.1c3.5 0 5.2 1.6 5.2 4.2 0 2.6-2.3 3.9-4.9 3.9h-183.6c-3.3 0-4.6-2.9-4.6-4.2 0-1.3 1.3-3.9 4.6-3.9h38.9c10.4 0 16.2-11.6 16.2-19.3v-370.3c0-16.2-8.1-22-16.5-22h-39.6c-2.3 0-4.5-1.6-4.5-4.1 0-2.6 2.2-3.9 4.5-3.9h173c150.2 0 191.1 50.3 191.1 116.7 0 81.8-80.9 105-153.1 109.2 43.9 6.5 88.3 39 109.3 70.9 28 43.2 58.6 134.1 114 128.3zm-286.7-417.1c-12.3 0-19 7.1-19 18.1v192.4h38.9c60.9 0 126.7-26.7 126.7-106 0-86.4-74.1-104.5-119.9-104.5z"/>
</svg>