<svg version="1.2" xmlns="http://www.w3.org/2000/svg" viewBox="0 0 508 171" width="508" height="171">
	<title>eneco-vector-logo</title>
	<style>
		.s0 { fill: #000000 } 
	</style>
	<g>
		<path class="s0" d="m262.8 50c-25.8 0-43.5 10.6-43.5 47.5 0 37.3 20.5 48.4 45.4 48.4 11.1 0 24.7-1.9 33.7-4.9l-5.6-23.8c-6.6 1.3-17.6 2.3-23.9 2.3-10.6 0-16.3-1.6-16.6-11.1h52.5c3.4-49.4-10.3-58.4-42-58.4zm-12.3 40.7c0.6-10.2 5.2-18 14-18 8.7 0 14.9 4.3 15.1 16.7zm-83.7-40.7c-18 0-36.9 4.4-49.1 8.5v84.9h32.3v-63.6c3.7-0.7 6.9-1.3 9.7-1.3 11 0 12.8 4.3 12.8 17v47.8h32.3v-50c-0.1-32.2-13.3-43.3-38-43.3zm200.1 27.2c7.3 0 15.2 2.1 20 3.5l6.3-26.8c-7.2-2.5-19.4-3.9-29.5-3.9-26.7 0-45.8 10.5-45.8 47.5 0 37.3 18.9 48.4 45.8 48.4 9.6 0 22.1-1.6 29.5-4.4l-6.3-26.8c-4.8 1.7-12.2 3.9-20 3.9-10.7 0-16.6-1.9-16.6-20.4 0.1-19.8 5.9-21 16.6-21zm-263.7-24.9l-7-29.7h-77.3v77.9c0.2 31.4 13 42.6 36.9 42.9h45.5v-29.7h-36.2c-8.1-0.6-12.5-5.2-12.5-16.8h38.9v-29.1h-38.9v-15.5zm343.7-2.3c-29.3 0-45 10.4-45 47.5 0 37.3 15.3 48.4 45 48.4 30 0 45.4-11.1 45.4-48.4 0-37.1-15.6-47.5-45.4-47.5zm0 71.1c-10.1 0-12.7-2.5-12.7-23.1 0-21.4 2.6-23.3 12.7-23.3 10.2 0 12.9 1.9 12.9 23.3 0 20.6-2.7 23.1-12.9 23.1z"/>
	</g>
</svg>