<svg version="1.2" xmlns="http://www.w3.org/2000/svg" viewBox="0 0 182 49" width="182" height="49">
	<title>Exact</title>
	<style>
		.s0 { fill: #000000 } 
	</style>
	<path fill-rule="evenodd" class="s0" d="m31.9 17.7v6.7h-25.7v-6.7zm0 11.6v6.8h-3.4-18.9-3.4v-6.8zm94.8-5.9v18.4h-1.4-16.4c-6.2 0-9.5-3.2-9.5-9.1 0-5.9 3.3-9.1 9.5-9.1h10.5c-0.1-3.5-1.1-5-5.1-5h-9-4.1v-6.8h4.1 9.4c9 0 12 3.8 12 11.6zm-7.3 6.8h-10.2c-1.7 0-2.7 0.9-2.7 2.5 0 1.7 1 2.6 2.7 2.6h10.2zm33.3 4.8h1.3v6.8h-10.6c-9.3 0-12.9-4.7-12.9-15 0-10.4 3.6-15 12.9-15h10.5v6.7h-1.3-8.4c-4.6 0-6.3 2.3-6.3 8.3 0 6 1.7 8.2 6.3 8.2h8.5zm-88.4 0v6.8h-1.3q0 0 0 0h-11.6c-9.3 0-12.9-4.7-12.9-15 0-10.4 3.6-15 12.9-15h9.2 3.6v6.7h-12.1c-3.8 0-5.6 1.5-6.1 5h14.7q0 0 0 0 0.1 0 0.1 0 0 0 0 0 0 0 0 0h1.2v1.2q0 0.1 0 0.1v4.1q0 0.1 0 0.2v1.2h-4.1-11.8c0.5 3.4 2.2 4.7 6 4.7zm110.3 0v6.8h-1.3-6.5c-6 0-8.9-2.9-8.9-9.1v-26.6h7.2v5.7h8.9v6.7h-8.9v13.7c0 1.8 0.9 2.8 2.3 2.8zm-75.9 6.8h-8.9l-0.7-1-6.6-8.6-6.5 8.6-0.8 1h-5.6-2.9l11.5-15.3-11.1-14.7h8.8l0.8 0.9 6 8 6-8 0.7-0.9h8.6l-1.1 1.4-9.9 13.1 10.6 14.1z"/>
</svg>