<svg version="1.2" xmlns="http://www.w3.org/2000/svg" viewBox="0 0 754 340" width="754" height="340">
	<title>Logo_of_Gemeente_Amsterdam</title>
	<style>
		.s0 { fill: #000000 } 
	</style>
	<path fill-rule="evenodd" class="s0" d="m753.9 210c-2-0.8-13.2 1.1-13.1-1.1-0.1-9.4 0-18.7 0-28.1 0.2-5.9-0.9-13.7-8.1-14.6-9.2-1.8-14.8 6.8-13.9 15.2q0 12.7 0 25.4c0 3.2 0.2 3.1-3 3.1-3.3-0.1-6.7 0.1-10-0.1-0.2-0.1-0.5-0.4-0.5-0.5-0.4-10.3 0-20.6-0.1-31 1.9-16.7-20.7-15.8-21.9-0.9-0.3 9.7 0 19.5-0.1 29.3-0.2 1 0.5 2.8-0.9 3.1-3.9 0.1-8 0.1-11.9 0-1.3-0.4-0.6-2.2-0.8-3.2q0-24 0-48c0.1-2.2-0.5-3.7 2.4-3.3 3.3 0 6.6-0.1 9.8 0.1 0.2 0 0.5 0.3 0.6 0.4 0.4 1.3-0.9 10.7 1.6 5.9 5.3-8.5 17.6-9.8 26-5.4 2.8 1.5 4.8 4.1 6.4 6.9 0.1 0.3 0.4 0.3 0.6 0.2 5.2-9 17.1-11.7 26.4-7.9 6.5 2.6 9.1 9 10.6 15.2v39.3zm-734.3-89.8c9.6 8.7 18.5 18.5 27.9 27.6 2 2 1.9 2.3 4 0.1q13.1-13.1 26.3-26.3c0.7-0.4 1.3-1.9 2.2-1.2 6.4 6.3 12.8 12.6 19 19 0.5 0.8-0.9 1.4-1.2 2q-5.6 5.6-11.2 11.2c-5.5 5.7-11.4 11.1-16.7 16.9-0.1 1.1 1.3 1.8 1.9 2.6q12.8 12.8 25.6 25.6c0.8 1 2.7 1.9 1 3.1q-9 9-18 18c-0.3 0.3-0.8 0.8-1.2 0.4-9.2-9-18.2-18.2-27.4-27.3-0.8-0.5-1.6-2.5-2.7-1.7-9.4 9.2-18.7 18.6-28 27.9-1.4 1.5-1.7 1.6-3.1-0.1q-8.4-8.3-16.7-16.6c-0.6-0.8-2-1.6-0.8-2.4 9-9.1 18.1-18.1 27.1-27.2 0.5-0.7 2-1.4 1.6-2.4-1-1.3-2.3-2.4-3.5-3.6-8.5-8.6-17.2-17.1-25.7-25.8-0.3-0.5 0.5-0.9 0.7-1.2 6.3-6.1 12.3-12.9 18.9-18.6zm9.8-70.7c-8.9-9.6-18.6-18.6-27.7-27.9-1-1.1-2.7-2-0.8-3.3q8.7-8.7 17.4-17.3c0.5-0.5 1.2-1.5 1.9-0.7 9.2 9.1 18.3 18.3 27.5 27.5 2.3 2.7 2.4 1.1 4.5-0.7q12.6-12.7 25.2-25.3c0.9-0.5 1.6-2.3 2.6-1.6 5.8 5.7 11.6 11.5 17.4 17.2 0.5 0.8 1.9 1.5 1.6 2.5-9.5 10-19.7 19.4-29.2 29.4 8.6 10.5 19.9 19.7 29.2 30 0.4 0.6-0.5 1.1-0.8 1.5-6.2 6.1-12.1 12.4-18.4 18.3-1.1 0.1-1.7-1.4-2.5-2q-12.8-12.7-25.5-25.4c-2.1-2.2-2.2-2.5-4.3-0.1q-13 13-26 25.9c-1.1 0.9-1.8 2.5-3.1 0.7q-8.8-8.7-17.5-17.4c-1.8-1.5-0.2-2.1 0.9-3.3 9.1-9.4 18.9-18.3 27.6-28zm20.1 260.4c-10.1 9.5-19.6 19.6-29.5 29.2-0.9 0.6-1.6-0.9-2.2-1.3-5.9-6-12-11.8-17.8-17.9 8.4-9.9 18.9-18.9 28-28.5 2.2-1.9 1.3-2-0.4-3.8-9.1-9.4-18.9-18.3-27.6-27.9 5.5-6.2 11.8-11.9 17.6-17.9 0.7-0.5 1.5-2.1 2.5-1.5 9.3 9.3 18.6 18.7 28 28 1.9 2.5 2.4 0.3 4.1-1.1q12.9-12.9 25.8-25.8c0.9-0.8 1.6-2 2.6-0.5q8.8 8.8 17.7 17.6c0.3 0.4 1.1 1 0.8 1.6-9.1 9.2-18.3 18.3-27.5 27.5-2.3 2.2-2.2 2.2 0.1 4.3q12.9 12.9 25.8 25.8c1.1 1.4 2.6 1.9 0.5 3.5q-8.6 8.6-17.3 17.3c-0.4 0.4-1.1 1.2-1.7 0.5-10-9.5-19.3-20.1-29.5-29zm176.2-246.4q0 8.8 0 17.5c-0.1 1 0.4 2.5-0.7 3.1-5.8 3.1-12 5.2-18.5 6.4-37.7 8.2-66-19.5-54-57.1 7.4-22.8 34.1-30.4 55.5-24.5 2.4 0.2 16.8 6.3 15.4 8.9-3.4 3-6.3 7.3-10.1 9.7-6-5.2-13.8-7.7-21.7-7.5-23.6 0.2-33.7 27.8-22.3 46.4 5.5 9.2 16 13.5 26.5 12.4 4.5-0.5 12.7-1.2 15.6-4.7q0.2-8.9 0-17.8c-0.1-1.8-13.2-0.4-15.6-0.9-1.2 0-0.9-1.5-0.9-2.3 0.1-3.3-0.2-6.6 0.1-9.9 0-0.1 0.3-0.4 0.5-0.5 9.3-0.3 18.7 0 28-0.1 0.7 0.1 1.9-0.2 2.1 0.8 0.2 6.7 0 13.4 0.1 20.1zm8.9 118.9q0-12.1 0-24.2c0.1-0.9-0.4-2.4 0.6-2.9 15.3 0.3 11.4-2.7 12.4 7.7 0.7 0.1 1-1 1.4-1.5 2.4-3.6 5.7-6 9.9-7 7.9-1.9 17.7-0.1 21.7 7.6 1.3 3 2.2-0.5 3.4-1.6 5.5-6.8 15.4-8.1 23.3-5.5 12.3 4.3 12.3 19.2 12 30q0 10.9 0 21.9c-0.2 0.9 0.4 2.6-0.9 2.8-4.1 0-8.2 0.3-12.2-0.1-0.9-0.7-0.4-2.2-0.5-3.2q0-12.8 0-25.6c0.8-8.7-3.1-16.7-13-14.5-7.2 1.3-9.4 9.3-9.1 15.7 0 9 0.2 18.1-0.1 27.1 0 0.2-0.4 0.6-0.6 0.6-4.1 0.1-8.2 0.2-12.2 0-0.9-0.5-0.4-1.9-0.6-2.7q0-14.9 0-29.7c0.6-8.7-6.1-13.4-14.1-10.6-6.1 1.9-8.2 8.7-8 14.5q0 12.7 0 25.4c0 1.5 0.5 3.5-1.8 3.2-3.7-0.1-7.4 0.1-11-0.1-0.2 0-0.5-0.3-0.5-0.5-0.3-8.9 0-17.9-0.1-26.8zm71.8-119.9q0-12.2 0-24.4c0.1-0.9-0.3-2.2 0.5-2.8 3.8-0.3 7.6-0.1 11.5-0.1 1.6 0.1 0.5 5.9 0.9 7.4 0.5 0.9 1.1-0.6 1.4-0.9 7-11.2 26.8-10.7 32.5 1.5 0.9 0.3 1.6-1.8 2.3-2.4 2.5-3.1 5.6-5.2 9.4-6.2 7.7-2 17.2-0.7 21.9 6.2 3.5 5 4.3 11.2 4.2 17.2q0 14.5 0 29c0 1.2 0.3 2.9-1.5 2.7q-5.2 0-10.3 0c-0.5 0-1.3 0-1.5-0.5-0.4-9.8 0-19.7-0.1-29.5 0.5-8.2-3.7-15.5-12.8-13.6-6.9 1.2-9.6 8.7-9.3 14.9q0 13.7 0 27.3c-0.1 1-0.2 1.4-1.3 1.4q-5.5 0-11 0c-1.7 0.1-1.1-2-1.2-3.1q0-14.4 0-28.8c0.6-8.7-5.5-14.1-14-11.2-6.5 1.9-8.5 9.2-8.1 15.3q0 12.3 0 24.7c-0.1 1.8 0.5 3.4-2.1 3.1-3.6-0.1-7.2 0.1-10.8-0.1-0.1 0-0.4-0.3-0.5-0.5-0.3-8.8 0-17.7-0.1-26.6zm-87.5 147.2c-2.5-0.2-5.8 0.7-8-0.4-2.5-5.4-4.6-11.1-6.9-16.6-0.3-0.5-0.4-1.4-1.1-1.4-11-0.2-21.9-0.1-32.9-0.1-1.7 0-1.7 0-2.3 1.5q-2.8 7.3-5.7 14.5c-0.5 1.1-0.7 2.8-2.3 2.5-4.6 0-9.3 0.2-13.9-0.1-0.8-0.4 0.1-1.4 0.3-2.1 11.3-25.9 22.5-51.8 33.8-77.7 0.3-0.6 1-0.6 1.5-0.6 3.6 0.1 7.2-0.2 10.8 0.1 2.7 4 4.1 9.4 6.3 13.9 9.4 21.9 19.1 43.8 28.3 65.8 0.2 1.5-6.6 0.4-7.9 0.7zm-33.1-30.6q5.4 0 10.8 0c0.8 0 1.9-0.1 1.4-1.2-3.6-9.7-7.3-19.4-11-29.1-0.6-1.9-1.1-3-2-0.4q-5.7 14.8-11.3 29.5c-0.3 0.7 0 1.2 0.6 1.2 3.9 0.1 7.7 0 11.5 0zm407.5-12.4c-0.2 14.2 0.2 28.3-0.2 42.4 0 0.2-0.3 0.5-0.5 0.5-3.8 0.2-7.6 0.2-11.4 0.1-2-0.4 0.8-11-2.3-6.4-5.1 6.7-14.2 8.6-22.1 7.4-15.6-1.7-24.3-17.9-22.1-32.5 1.9-22.4 28.9-32.9 44.6-16.5 1.2-11.4 0.1-24 0.4-35.8 0-2.2 0-2.2 2.2-2.2 3.6 0 7.1-0.1 10.6 0 0.3 0 0.6 0.3 0.7 0.6 0.3 14.1 0 28.3 0.1 42.4zm-13.1 15.8c0.8-16.7-22.6-23.1-30.3-8.3-4.9 8.8-0.6 21.4 9.4 24.1 10.3 3.3 21.3-5 20.9-15.8zm-119.4 4.7q-9.1 0-18.2 0c-0.8 0.1-2.1-0.3-2.3 0.6 0.6 6.2 5.2 10.9 11.2 12.1 6.2 1.3 12.8-1 16.9-5.7 1.2-1.3 1.3-1.3 2.5-0.3q3.7 2.8 7.3 5.5c2 1.2-1 2.9-1.9 4-8.3 8.1-21.4 9.6-32 5.5-23.8-8.8-22.8-43.8-1.4-52.3 23.2-9.6 40.8 5.7 38.8 29.8 0 0.7-0.9 0.8-1.5 0.8q-9.7 0-19.4 0zm-6.6-10.2c4.5-0.1 9 0.1 13.4-0.1 1.2-0.5 0.4-2.2 0.3-3.1-1.9-11.4-19.2-13.3-25.2-4.2q-2 2.9-2.4 6.4c-0.1 0.3 0 0.7 0.3 0.8 4.5 0.4 9.1 0 13.6 0.2zm206.4-109.9c-0.9 0.1-2.4-0.4-2.8 0.7 0.6 6 4.6 10.4 10.5 11.9 3.8 1.1 8.1 0.5 11.7-1.1 2.5-1.1 4.6-2.9 6.4-4.9 0.5-0.6 0.9-0.7 1.4-0.2q4.2 3.1 8.3 6.2c0.5 0.3 0.3 1-0.1 1.4-10.9 13.2-33.4 13.1-44.8 0.5-13.1-13.9-7.5-39.7 11-45.8 22-7.9 38.5 6.8 37 29.4 0.1 1.4-0.2 2-1.7 1.9-6.4 0-12.8 0-19.2 0q-8.8 0-17.7 0zm11-10.1q6.4 0 12.7 0c2.3 0.2 1.2-2.2 1-3.5-2.3-11.7-20.6-13-25.8-2.8-0.6 1.3-2.5 5-1.3 6.2 4.5 0.2 9 0 13.4 0.1zm-233.8 10.1c-6.7 0.1-13.4-0.1-20.1 0.1-0.3 0-0.7 0.4-0.6 0.6 0.8 6 4.8 10.6 10.6 12 6.1 1.4 12.6-0.5 16.9-5 0.8-0.4 1.3-1.8 2.2-1.6 2.8 2 5.5 4.2 8.3 6.2 0.5 0.3 0.9 1 0.4 1.5-6.2 7.6-16 11-25.6 10-29-1.8-36.7-41.8-10.5-54.2 22.9-9.8 40.9 5 39.2 29.2 0.1 1.5-1.6 1.1-2.6 1.2q-9.1 0-18.2 0zm-6.8-10.2c4.4 0 8.8 0.1 13.2 0 1.3 0 0.8-1.6 0.7-2.5-1.4-12.1-19.8-14.2-25.6-4.4-0.7 1.1-3.3 6.1-1.7 6.9 4.5 0.1 8.9 0 13.4 0zm72.1 10.2q-9.2 0-18.3 0c-0.7 0.1-2-0.3-2.3 0.6 0.6 6.3 5.6 11.2 11.7 12.3 2.6 0.4 5.1 0.3 7.6-0.4 3.9-0.8 7-3.2 9.5-6.1 0.4-0.4 0.8-0.4 1.1-0.2q4.3 3.2 8.6 6.5c0.3 0.2 0.3 0.6 0.1 0.8-12.7 16.4-42.4 12.8-50.1-6.8-6.2-14.5 0.8-33 16.1-38.1 22.2-7.8 38.5 7.2 36.9 29.8 0.1 1.6-0.7 1.5-2 1.6-6.3 0-12.6 0-18.9 0zm-6.5-10.2c4.5-0.1 9 0.2 13.4-0.1 1.1-0.7 0.3-2.3 0.1-3.3-1.4-7.8-10.1-11-17.2-9.3-5.7 1.2-9.9 6.3-10.3 12 0 0.3 0.3 0.6 0.6 0.7 4.5 0.1 8.9 0 13.4 0zm-223.5 10.2q-8.8 0-17.5 0c-1 0.1-3.3-0.6-3.1 1.1 0.8 5.2 4.3 9.5 9.4 11.1 6.2 2.2 13.5 0.3 18.1-4.4 0.7-0.6 1.4-2.3 2.5-1.5q4.2 3.1 8.3 6.2c0.2 0.2 0.4 0.5 0.3 0.8-11.6 15.7-39 13.5-48.5-3.4-9.9-16.9 0.2-40.1 20.1-42.8 20.8-3.9 32.8 12.3 31.3 31.8-0.1 1.7-2.3 0.9-3.4 1.1q-8.8 0-17.5 0zm-6.6-10.2q6.3 0 12.6 0c2 0.2 1.3-1.6 1.1-2.8-1.7-12.3-20.8-13.8-26-3.3-0.5 1.1-2.7 5.6-1.1 6.1 4.4 0.1 8.9 0 13.4 0zm388.8 134.6q0 8 0 16.1c0 0.6 0.2 1.5-0.4 2-3.7 0.2-7.6 0.1-11.3 0-0.1 0-0.4-0.4-0.4-0.5-0.1-2.1 0.1-4.2-0.2-6.3-0.5-0.8-1.2 0.8-1.6 1.2-5.9 7.4-17 8.5-25.5 5.3-11.3-3.5-14.3-19.3-5.4-26.9 8.9-7.2 21.2-6.3 32-6.7 0.3-0.1 0.5-0.4 0.6-0.7 0.3-3.4-1-6.9-3.9-8.8-6.5-4.2-15.6-2.5-21.6 1.9-0.6 0.3-1.2 1.4-2 1-2.1-2-4.2-4.2-6.3-6.3-0.2-0.2-0.2-0.6 0.1-0.8 8.5-8.2 21.9-10 33-6.8 15.7 4.6 12.7 23.4 12.9 36.3zm-18.3-6.3q0 0 0 0c-5.3 0.2-11 0.3-15.5 3.4-6.1 4.5-0.8 12.4 5.7 12.2 9.4 1 16.2-4.9 15.1-14.5 0-1.9-4-0.8-5.3-1.1zm-100-123q0-12 0-24c0.1-2.2-0.5-3.3 2.4-3.1 3.3 0.1 6.7-0.2 10 0.2 1 2 0.2 4.9 0.5 7.3 0 0.9 0.5 0.7 0.9 0.1 4.2-8.5 14.9-10.6 23.4-8 6.8 2 11.1 8.2 12.1 15 1.1 13.1 0.3 26.3 0.4 39.3 0 0.2-0.3 0.5-0.4 0.5-3.7 0.4-7.4 0.1-11.1 0.2-2.1 0.1-1.9-0.9-1.9-2.6q0-12.2 0-24.3c0.5-9.9-3-20.1-14.9-16.2-6.2 1.9-8.1 8.9-7.9 14.8q0 12.6 0 25.2c-0.2 0.9 0.4 2.5-0.7 3-3.7 0.2-7.5 0-11.3 0.1-1.9 0.1-1.4-1.4-1.5-2.8q0-12.3 0-24.7zm-186.9 148.8c-7.3 0-15.1-2.2-20.1-7.8-0.3-0.3-0.3-0.7 0.1-1.1 1.5-0.9 7.9-8.6 8.9-7.3 3.7 4.1 9 7 14.7 5.9 4.3-0.3 9.2-4.9 6-9.2-6.4-5.7-16.7-3.6-23.4-9-5-3.6-6.1-10.4-4.5-16 1.8-6.9 8.6-11 15.3-12.2 8.5-1.5 18.4-0.1 24.4 6.5 0.9 0.9 0.8 1.4-0.1 2.1-2.4 2.2-4.9 4.4-7.3 6.6-1.1 0.9-1.6-0.9-2.3-1.4-4.3-5.2-18.5-5.2-16.8 3.8 3.5 6.3 18.6 4.2 24.7 10.6 4.6 4 5.4 10.8 3.7 16.4-3.2 9.5-14.2 12.2-23.3 12.1zm39.7-28.7c-0.1-5.1 0.2-10.1-0.1-15.1-0.1-0.2-0.4-0.5-0.5-0.5-2.9-0.2-5.8-0.1-8.6-0.1-0.7-0.1-1.7 0.2-1.9-0.6-0.2-3.4-0.2-6.9-0.1-10.3 0.1-0.2 0.3-0.5 0.5-0.5 2.6-0.2 5.3 0 7.9-0.1 0.9-0.1 2.5 0.4 2.7-0.8 0.2-4.8-0.1-9.6 0.2-14.4 0-0.2 0.4-0.6 0.7-0.6 3.6-0.1 7.3 0 11 0 0.6 0 1.7-0.1 1.7 0.7 1.2 18.2-4.8 14.9 12.8 15.1 2.3 0 2.3 0 2.3 2.2-0.4 1.7 0.8 8.9-0.8 9.2-4.5 0.2-9.1-0.1-13.6 0.2-0.2 0-0.5 0.3-0.5 0.5-0.2 1.2-0.1 2.5-0.1 3.8q0 9.2 0 18.5c-0.5 4.6 1.3 10.2 6.8 10 11.1 0 7.6-5.3 8.2 8.5 0.1 3.7-12.5 3-15.3 2.8-15.2-1-13.3-17.4-13.3-28.5zm217.6-120.3c-0.9-18.9 4.1-14.8-10.9-15.6-0.3-0.1-0.5-0.5-0.4-0.7 0.3-13.3-2.7-10.1 10.4-10.7 1.7-0.2 0.5-10.3 0.9-12.5 0.1-1.1-0.6-3.2 1-3.2 3.9 0 7.8-0.1 11.7 0 0.3 0.1 0.7 0.4 0.7 0.6 0.7 21.8-3.9 13 14.9 15.7 0.3 3.4 0.1 6.9 0.1 10.3-0.3 1-1.5 0.6-2.3 0.7-4 0-8-0.1-12 0.1-0.9 0.2-0.5 1.6-0.7 2.3q0 10.7 0 21.3c-0.7 9.1 6.6 10.7 13.9 8.2 0.8-0.3 1.1-0.2 1.1 0.8 0 3.2 0.2 6.4 0 9.5-4.1 3.1-14.7 2.5-19.6 1-11.4-4-8.4-18.3-8.8-27.8zm-112.7 120.3q0-12.1 0-24.2c0.2-0.9-0.4-2.4 0.6-2.9 4.1-0.1 8.3-0.2 12.4 0.1 0.6 0.2 0.4 1 0.5 1.5 0 2-0.1 4 0.1 6 0 0.1 0.1 0.2 0.3 0.2 3.9-5.8 10-9.9 17.4-9.2 1.2 0.2 3.5 0 3.5 1.6 0 3.9 0.2 7.7 0 11.5 0 0.2-0.4 0.5-0.5 0.5-6.9-1.9-15.7-0.7-19.1 6.4-1.4 2.7-1.8 5.8-1.7 8.8-0.1 8.8 0.1 17.6-0.1 26.4-0.1 0.7-1 0.7-1.6 0.7-3.7-0.1-7.5 0.1-11.2-0.1-0.2 0-0.5-0.3-0.5-0.5-0.3-8.9 0-17.9-0.1-26.8z"/>
</svg>