<svg version="1.2" xmlns="http://www.w3.org/2000/svg" viewBox="0 0 530 551" width="530" height="551">
	<title>jagermeister-vector-logo</title>
	<style>
		.s0 { fill: #000000 } 
		.s1 { fill: none;stroke: #000000;stroke-miterlimit:3.864;stroke-width: 1.6 } 
		.s2 { fill: none;stroke: #000000;stroke-miterlimit:3.864;stroke-width: .6 } 
		.s3 { fill: none;stroke: #000000;stroke-miterlimit:3.864;stroke-width: 1.5 } 
	</style>
	<g>
		<path class="s0" d="m88.6 193.7c0-96.3 77.9-174.3 173.9-174.3 96.1 0 173.9 78 173.9 174.3 0 96.3-77.9 174.3-173.9 174.3-96 0-173.9-78-173.9-174.3zm11 0c0 90.9 73.3 164.6 163.8 164.6 90.5 0 163.8-73.7 163.8-164.6 0-90.9-73.3-164.6-163.8-164.6-90.5 0.1-163.8 73.8-163.8 164.6z"/>
		<path class="s1" d="m88.6 193.7c0-96.3 77.9-174.3 173.9-174.3 96.1 0 173.9 78 173.9 174.3 0 96.3-77.9 174.3-173.9 174.3-96 0-173.9-78-173.9-174.3zm11 0c0 90.9 73.3 164.6 163.8 164.6 90.5 0 163.8-73.7 163.8-164.6 0-90.9-73.3-164.6-163.8-164.6-90.5 0.1-163.8 73.8-163.8 164.6z"/>
		<path fill-rule="evenodd" class="s0" d="m251.6 40.5l2.1-0.1 5.3 34.1h-1.5z"/>
		<path fill-rule="evenodd" class="s2" d="m251.6 40.5l2.1-0.1 5.3 34.1h-1.5z"/>
		<path fill-rule="evenodd" class="s0" d="m262 39.9h2.2l-0.3 34.6h-1.5z"/>
		<path fill-rule="evenodd" class="s2" d="m262 39.9h2.2l-0.3 34.6h-1.5z"/>
		<path fill-rule="evenodd" class="s0" d="m239.8 41.8l2.2-0.3 13.3 38.6v3.9z"/>
		<path fill-rule="evenodd" class="s2" d="m239.8 41.8l2.2-0.3 13.3 38.6v3.9z"/>
		<path fill-rule="evenodd" class="s0" d="m227.7 44.2l2.1-0.6 25.5 45.6v2.4z"/>
		<path fill-rule="evenodd" class="s2" d="m227.7 44.2l2.1-0.6 25.5 45.6v2.4z"/>
		<path fill-rule="evenodd" class="s0" d="m215.2 47.7l2.1-0.6 38 46.7v1.7z"/>
		<path fill-rule="evenodd" class="s2" d="m215.2 47.7l2.1-0.6 38 46.7v1.7z"/>
		<path fill-rule="evenodd" class="s0" d="m201.7 52.8l2-0.9 51.6 44.8v0.7h-0.9z"/>
		<path fill-rule="evenodd" class="s2" d="m201.7 52.8l2-0.9 51.6 44.8v0.7h-0.9z"/>
		<path fill-rule="evenodd" class="s0" d="m186.9 60.3l1.8-1.1 64.1 38.2h-2.2z"/>
		<path fill-rule="evenodd" class="s2" d="m186.9 60.3l1.8-1.1 64.1 38.2h-2.2z"/>
		<path fill-rule="evenodd" class="s0" d="m171 70.8l1.8-1.5 73.8 28.1h-3.3z"/>
		<path fill-rule="evenodd" class="s2" d="m171 70.8l1.8-1.5 73.8 28.1h-3.3z"/>
		<path fill-rule="evenodd" class="s0" d="m244.4 206.3h-1.7l12.6-64.4v6.5z"/>
		<path fill-rule="evenodd" class="s2" d="m244.4 206.3h-1.7l12.6-64.4v6.5z"/>
		<path fill-rule="evenodd" class="s0" d="m263.9 207.7h-1.6l0.1-47.9h1.3z"/>
		<path fill-rule="evenodd" class="s2" d="m263.9 207.7h-1.6l0.1-47.9h1.3z"/>
		<path fill-rule="evenodd" class="s0" d="m281.1 207.1l-1.7 0.3-8.7-53.3v-7.8z"/>
		<path fill-rule="evenodd" class="s2" d="m281.1 207.1l-1.7 0.3-8.7-53.3v-7.8z"/>
		<path fill-rule="evenodd" class="s0" d="m355.3 70.8l1.8 1.5-72.8 25.1h-3.5z"/>
		<path fill-rule="evenodd" class="s2" d="m355.3 70.8l1.8 1.5-72.8 25.1h-3.5z"/>
		<path fill-rule="evenodd" class="s0" d="m339.5 60.4l1.7 1.3-64.8 35.7h-2.2z"/>
		<path fill-rule="evenodd" class="s2" d="m339.5 60.4l1.7 1.3-64.8 35.7h-2.2z"/>
		<path fill-rule="evenodd" class="s0" d="m324.2 52.8l2.1 0.9-54.1 43.7h-1.5v-0.2z"/>
		<path fill-rule="evenodd" class="s2" d="m324.2 52.8l2.1 0.9-54.1 43.7h-1.5v-0.2z"/>
		<path fill-rule="evenodd" class="s0" d="m310.7 47.5l2 0.7-42 47.9v-1.7z"/>
		<path fill-rule="evenodd" class="s2" d="m310.7 47.5l2 0.7-42 47.9v-1.7z"/>
		<path fill-rule="evenodd" class="s0" d="m297.7 43.8l2.2 0.5-29.2 48v-2.2z"/>
		<path fill-rule="evenodd" class="s2" d="m297.7 43.8l2.2 0.5-29.2 48v-2.2z"/>
		<path fill-rule="evenodd" class="s0" d="m285.4 41.5l2.1 0.3-16.8 43.6v-3.6z"/>
		<path fill-rule="evenodd" class="s2" d="m285.4 41.5l2.1 0.3-16.8 43.6v-3.6z"/>
		<path fill-rule="evenodd" class="s0" d="m273.8 40.3l2.1 0.1-6.6 34.1h-1.5z"/>
		<path fill-rule="evenodd" class="s2" d="m273.8 40.3l2.1 0.1-6.6 34.1h-1.5z"/>
		<path class="s0" d="m156.3 111c0 0 1.3 3.6 4.8 4.9 3.6 1.4 7.8 0.5 7.8 0.5 0 0-2.6 2.4-4.4 5.1-1.8 2.7-4.7 8.5-5.1 10.5-0.5 2-2.8 12.3-4 12.3l-2.3-0.5c-0.6-0.4 0.5-5.7 1.7-9.1 1.2-3.3 1.6-7.6 1.7-9.6 0.1-2-0.9-4.7-1-8.9 0-1.4 0.8-5.2 0.8-5.2z"/>
		<path class="s0" d="m137.7 133.6c0 0 1.5-0.2 1.7 1 0.2 1.2-0.1 2.7 0.8 6.3 0.9 3.7 2.8 6.3 4.5 7.3 1.7 1 5 1.6 6 1.6 0.9 0 0.9 1.1 1.2 5.5 0.4 4.4 1.1 8.5 2 11 0.9 2.5 3.3 8.3 4.4 10.2 1 1.9 3.4 4.2 4.5 5.1 1 0.9 1.4 1.8 1.5 2.7l1.2 5.8-1.2 0.4-4.9-2.9c-0.7-0.9-4.1-6.7-4.6-8.4-0.6-1.7-3.4-7.8-3.7-9.6-0.3-1.8-1.8-7.5-2.3-9.2-0.5-1.7-0.1-1.1-2.9-3.8-2.8-2.7-5.6-4.8-6.3-7-0.8-2.2-1.9-3.7-2-6.4-0.3-2.8 0.1-9.6 0.1-9.6z"/>
		<path class="s0" d="m168.1 164.3c0 0 0.7-0.2 0.9 2.5 0.3 2.7 0.7 6.4 2.2 11.7 1.5 5.3 4.5 12 5.6 13.6 1.1 1.6 2.7 3.4 4.6 4.3 2 0.9 2.4 1 3.8 1.2 1.4 0.2 1.9-0.1 2.7 1.5 0.9 1.6 2 3.8 2 3.8l1 1.5h-4c-1.5 0-4.9-0.7-8.1-2.2-3.1-1.5-7.8-4.6-9.7-11.5-1.9-6.8-2.4-7.6-2.6-11.3-0.2-3.7-0.2-7.2 0-8.8 0.4-1.4 1.6-6.3 1.6-6.3z"/>
		<path class="s0" d="m186.6 171.2c0 0 2.4 0.5 2.7 1.6 0.3 1.1 1.7 6.1 1.8 9.1 0.1 3 1 6 3.3 10.3 2.3 4.4 5.6 9.1 8 10.7 2.4 1.6 6.3 3.4 7.6 3.6 1.3 0.2 2.9 0.4 2.9 0.4l1.9 6.9c0 0-3.9 0.1-7.9-1.3-4-1.4-9.8-5.5-11.5-8.2-1.7-2.7-5.6-8.2-6.2-12-0.6-3.8-1.1-7.9-1.4-11.2-0.2-3.4-1.2-9.9-1.2-9.9z"/>
		<path class="s0" d="m214.4 185.1c0 0 2-0.5 2.4 1.5 0.4 2 1 6.4 1.7 9.6 0.7 3.1 3 9.9 4.5 12.2 1.4 2.3 6.1 6.3 7.4 7.1 1.3 0.8 5.3 2.5 6.7 2.7 1.4 0.2 3.6-0.4 3.6-0.4 0 0 1.2 0 0.7 1.5-0.6 1.5-2.5 4.2-3.2 4.9-0.8 0.8-3.5 3.9-4.8 3.8-1.3-0.1-1.7-0.9-4-2.6-2.3-1.7-7.8-6.8-9.2-9.4-1.4-2.6-3.7-7.8-4.1-11.3-0.4-3.5-0.5-6.9-0.6-9.3-0.2-2.3-1.1-10.3-1.1-10.3z"/>
		<path fill-rule="evenodd" class="s0" d="m287.9 258.5l-1.6 1-5.6 0.3c0 0-2.3 2.8-3.2 4.6-0.9 1.8-1.2 3.6-1.2 3.6l-1.7-0.2c0 0-0.4-4.9-0.1-5.9 0.2-0.4 0.6-1.8 1.2-3.4zm-18.4 0.1h-0.1l0.1-0.1zm-0.6 0.7l-0.9 0.9 1.2 2.8-1.7 0.7-0.2 1.4 1.2 1.9 0.3 1.4c0 0-0.5 0.9-1.6 0.3-1.1-0.7-2.1-0.9-2.3-1.6l-0.4-5c0 0-0.1-2-0.1-3.5h5zm-7-0.1c-0.1 5.4-1.5 8.9-2.2 9.2l-2.6-1.5 1.2-2.2-0.6-1.2-0.2-2.9c0.4-0.9 1.8-1.7 0.6-1.8l-1.1-0.2h4.9z"/>
		<path fill-rule="evenodd" class="s0" d="m257 258.5l-0.8-0.3c0 0-1.3-2.9-1.2-4.6 0.1-1.7-0.8-8.7-0.8-8.7l-1-0.4-0.5 1.2-0.8 1.6c0 0-0.6-1.5-0.9-3.1-0.4-1.6-1.2-4.8-1.4-5.2l-0.8-1.8-1.4 0.5c0 0-0.3-0.3-0.4 1.2-0.1 1.5 0.4 2.7-0.7 1.5-1-1.1-2.7-3.6-2.7-3.6 0 0-0.5-1.9-1.9-1.6-1.4 0.3-1.7 1.8-1.7 1.8l-1.2 0.9c-0.4 0.1-0.2 0.4-1.4-0.1-1.2-0.5-1.7-0.3-1.1-2 0.6-1.7-0.1-2.4 2.1-4.6 2.2-2.3 6.4-5.9 6.9-6.7l2.3-4 2.8-2.2 1.7 0.4c0 0-0.3 1.4-1.3 2.3-1 0.9-1.6 1.9-1.2 2.5l1.2 1c0.7-0.5 2.3-2.2 2.9-3.3 0.6-1 1.8-3.9 2.2-4l1.1-0.1-0.2 2.6-0.5 1.9 2-0.6 1.4-3 0.2-0.9 10.7-0.4 5.9 0.1c0 0 3.4 1.3 4.6 2.2 1.2 0.9 4 4.1 5.1 5.8 1.1 1.7 4.1 6.8 4.5 7.6l0.5 4.1c0.1 0.6 0.1 2.2 0.7 3.6 0.6 1.4 3.2 3.9 3.7 4.6 0.5 0.8 0.6 1.7 0.3 3-0.3 1.3-0.7 3.8-0.7 3.8 0 0-1.3 0.7-2.7 0.9-1.4 0.2-0.6 1.2-0.6 1.2 0 0-1.2 1.4-1.7 2.5l-2.4 2.2h-12c0.7-2.1 1.6-4.5 2.1-5.5 0.8-1.7 3.1-6.4 4.6-7.3 1.6-0.8 3.2-1.7 5.1-0.2 1.9 1.5 2.3 3.3 2.3 3.3l0.7 0.1-0.3-4.1-1.9-3.8-1-2.8-1.3-0.6-1.9 0.1-0.8 0.6 0.6-1.5c0 0 0.1-0.6-0.9-0.6-1 0.1-1.4-0.2-1.8 0.6l-1.5 3.2-1.3 2.1-1.9-0.5-1-0.5-0.8 0.6-0.4 3.2-0.5 1.6c0 0 0 1.5-0.1 2.8-0.1 1.4-0.3 2.7-0.7 3.5-0.4 0.8-1.6 0.9-2.4 2.6-0.5 1.1-0.9 2.3-1.3 3.1h-5.2l-0.1-1.8c0-0.8 0.8-3.7-0.5-3.2-1.2 0.5-1.7 0.3-1.9 5h-4.7zm2.5-14.2l2.3-0.7c0.5-0.7 2-2.5 0.8-2.3-1.2 0.2-1.8-0.4-2.3 0.4zm22.4 7.3c1 0 1.8 0.1 2.4-0.7 0.6-0.8 1.7-2 0.7-1.9-1 0.1-1.8 0.1-2.3 0.8-0.5 0.6-1.8 1.8-0.8 1.8zm-22.2 0.9c0.9-0.3 1.4-0.7 2.1-1.7 0.7-1 1.5-2.5 1.4-3.2-0.1-0.8-0.3-1.4-1.7 0.2-1.4 1.6-2.2 2.5-2.5 3.4l-0.6 1.9z"/>
		<path class="s0" d="m294.9 226.9c0 0 6.2-4.9 8-6.9 1.8-2 6.3-7.4 7-13.4 0.8-6 1.9-16.2 1.7-17.2-0.2-1 0.5-7.1 0.5-7.1l-1.4-0.1-1.1 4c-0.2 0.9-1.8 9.5-2.5 12.3-0.7 2.8-2.2 8.2-3.6 10.1-1.4 1.9-7.7 6.6-8.9 7.2-1.2 0.6-3.5 0.9-4.2 0.9-0.7 0-2.3-0.5-2.3 0.7 0 1.1 2.8 3.9 3.3 4.8z"/>
		<path class="s0" d="m310.5 215.7c0 0 9.3-4.7 12.9-6.5 3.6-1.8 9.8-5.2 11.6-9.1 1.8-3.9 3.2-13.1 3.8-16.7 0.6-3.6 0.9-11.2 0.9-11.2h-0.9c-0.5 0.7-2.7 9.1-3.2 11.4-0.5 2.3-3.3 10.3-4.1 11.6-0.8 1.2-2.4 4.4-5.6 6.3-3.2 1.9-8.8 4.3-8.8 4.3l-2.7 1.2c-0.1 0.6-1.1 3.8-1.8 5-0.7 1.1-2.1 3.7-2.1 3.7z"/>
		<path class="s0" d="m336.3 204.6c0 0 12.9-5.6 15.8-8.2 2.9-2.7 6.7-9.4 7.3-12.1 0.6-2.7 0.5-7.5 0.6-9 0.1-1.5-0.4-6-0.5-6.6l-0.6-1.9c-0.8 0.5-1.4 1-1.5 2.2-0.1 1.1 0 7.5-0.9 10.4-0.9 2.9-1.8 7.8-3.3 9.8-1.5 2-3.8 4.6-5.9 5.9-2.1 1.2-4.9 1.7-5.8 1.9l-1.5 0.8-1.7 3.4z"/>
		<path class="s0" d="m363.5 185.8c0 0 5.6-4.3 6.9-6.9 1.3-2.7 3.8-7.4 4.3-9.5 0.5-2.1 2.4-7.7 2.4-8.4 0-0.8 0.7-3.4 1.6-4.6 0.9-1.2 3.6-5.3 4.8-6.4 1.2-1.1 2.1-2.9 2.3-3.3l0.3-1.7-1.6-0.2c-0.5 0.4-1.9 2.3-2.9 3-1 0.8-2.7 2.3-3.6 2.7l-2.6 0.9-1.8-0.2c-0.8 0.8-0.3 1-0.3 2.4 0 1.3 0.1 8.1-0.2 9.4-0.3 1.3-1.7 6-2.7 8-0.9 2-2.8 4.5-3.5 5.6-0.7 1-2.5 2.2-2.5 2.2z"/>
		<path class="s0" d="m370.3 142.1l2.7-0.6c0.3-0.9-0.6-4.1-0.8-5.4-0.2-1.3-1.5-8.1-1.7-10.2-0.2-2.2-0.4-6-0.2-7.1 0.2-1.1-0.1-5.4 0.1-6.1l-0.3-4.5-1.7-2-0.4 5.8c-0.3 0.7-1.4 2.7-2.2 3.8-0.8 1.1-2.9 2.5-3.7 2.5l-3.3-0.5-0.7 1c0.8 0.8 4.6 4.6 5.5 6.1 0.9 1.4 2.6 5.6 3.1 7.1 0.6 1.5 2.2 6.3 2.2 6.3z"/>
		<path fill-rule="evenodd" class="s0" d="m297.9 255.1l-0.4-0.1c0 0 0-1.7 0.1-2.9 0.1-1.3 0.3-0.7 0.5-0.9l0.2-1.9 0.8-1.4 1.2-0.7c0.6-0.6 2.8-5.1 4.7-7.7 1.8-2.6 5.3-6.3 7.3-8 2-1.6 7.6-5.1 7.6-5.1l6.6-2.7 2.9-0.1 0.5 0.4 0.3 0.7-0.4 0.6-0.2 1.5-3.5 2-1.8 0.8v0.7l2.5 0.1-0.3 1.8c-0.4 0.2-2.6 1.2-4.2 2-1.1 0.5-2.1 0.8-2.8 1.2l-1.4 1.3 0.4 0.6 0.7 0.3 0.6-0.5h1.7l0.4 1.1-2.2 1.5-5.7 2.1v1.2l2.6 0.2 0.7 1.2-0.7 0.6-3.3 1.9-4.4 1.4-0.5 0.8h1.3l0.3 1.1-1.5 2c-0.5 0.4-1.4 0.6-2.7 1.2-1.1 0.9-5.8 1.9-7.9 1.7zm12.5-15.5c1 0 1.5 0.2 2.3-0.5l2.2-2.8 2-2 0.8-1-0.9-0.9-1 0.4-1.3 1.1-1.4 1.5-1.3 1.3-1.3 1.1c-0.4 0.5-1.1 1.8-0.1 1.8z"/>
		<path class="s0" d="m309.2 255.1c1 0.1 3.9-0.7 5.2-1.4 1.3-0.7 7.4-4.7 8.8-6.1 1.3-1.4 3.4-3.7 3.6-4.2 0.4-1.2 0.2-2 0.2-2l-0.6-0.4v-0.8l4-2.2 0.5-2.1-0.6-0.4 0.5-1.3 2.1-0.7 1.7-2.6-0.4-0.5c-1.3 0.3-1.9 0.2-1.9-0.3l0.2-1.1 3.8-2.2c0.7-1.3 0.3-3.8 0-3.8h-0.4l-1.1 0.8-2.8 4.1-2.7 4.9-4 6.5-3.8 5.1-4.6 4.3c-0.2 0.2-2.4 2.6-3.5 3.1-1.1 0.5-3.5 1.4-3.7 1.6l-0.7 1.2z"/>
		<path class="s0" d="m284.5 270.5c0 0 3.7-2.7 4.9-4.2 1.2-1.5 2.4-3.5 2.5-4.3 0.1-0.8 0.3-2.7-1.6-1.3-1.9 1.5-3.6 2.1-4.1 2.5l-1.1 1.9-1.2 4.2z"/>
		<path class="s0" d="m242.3 264c0 0-1 0.9-2.1 0.5-1.1-0.4-4.3-2.7-4.8-3.5l-1.5-2.7c-0.4 0.3-0.9 1.5-0.7 2.7 0.3 1.3 0.7 3.9 2 5 1.3 1 2.1 2.8 3.7 2.6 1.5-0.2 3.1-1.1 3.3-1.5z"/>
		<path fill-rule="evenodd" class="s0" d="m249.1 265.8h-0.2l-0.9-1.4c0 0-0.3-1.3-0.9-2.4-0.6-1-1.5-2.2-1.5-2.2 0 0-3.6 0.1-4.9-0.3-1.3-0.3-2.2-1.5-3.3-2.2-1.1-0.7-1.7-2.1-1.9-2.6l-0.4-2.8-2.6 1.3-0.3 6.4-2.1 4.9-1.9-0.2-7.2-2.7c-1-0.2-0.1-1.7-0.1-1.7l0.9-0.1h1.3v-0.7l-2.5-2.1-1.3-0.7-2.2-1.3-0.6-0.4-2.8-0.3-0.9-1.2-0.9-0.5-1.6-0.3-0.8-0.7v-0.5l0.3-0.4 0.4-0.2 2.7-0.1-0.5-0.8-1.5-1.2h-3.4l-2.2-0.8-1-0.6-1.5-0.7 0.1-1.2 0.4-0.8 1.8 0.2 1.7 0.5v-1.1l-1.4-1-0.8-0.5-2.2-0.2-0.9-0.6-1.8-0.6-0.8-0.7-0.2-1.4h0.9l1.3 0.1h1.3l-0.1-0.7-2.6-1.5-3.9-1.9-0.7-1v-1l0.4-0.2 0.5-0.2 0.8 0.1 1 0.5 1.3-0.1-0.1-0.5-1-1.2c0 0-1.9-1.2-3.2-2.2-1.2-1-1.9-1.1-2.2-1.9l0.3-2.2 3.7 0.1c0.9 0 3 1.1 4.8 2.1 1.8 0.9 5.4 3.8 7.9 5.6 2.5 1.9 5.4 5.4 7.4 6.5 2 1.1 3.1 1.9 3.1 1.9l0.2-2.4-1.5-1.7c-0.5-0.5-2.5-2.9-4.1-4.3-1.6-1.3-3.5-1.7-4.2-2.9-0.6-1.1 0.1-2.1 0.9-2.1 0.8 0 2.9 1.5 7.1 4 4.2 2.5 12.3 10.5 12.8 10.9 0.5 0.4 1.1 0.4 2.5 0.5l0.1 0.6-0.3 3.1 2.4 1.2 1.5-1.3c0.7-0.5 1.2-1 2.8-1.7 1.6-0.7 1.5-0.5 3.5-0.1 2 0.3 3.2 2.8 3.5 3.6l2.8 6.7c0.2 0.9 1.5 6.8 1.6 8-0.1 0.9-1.1 2.3-2.1 2.5zm-35.2-19.1c0 0 1.4 1.5 2.9 1.7 1.5 0.2 2.9-0.4 3.4-0.1l1.4 0.9 1.4-1.2c0 0-0.9-0.7-2-0.8-1-0.1-2.4-0.3-3-0.9l-5-4.4-1.9-2.4-1.6-1.2-1.7 0.9 1.6 2.3 2.4 3.2zm27.5 4.5l0.9 0.6 1.3-1.3-0.1-0.8-0.7-0.6-1.1-0.1-0.5-0.5-0.9 0.1-0.8 0.7 0.1 1.2 0.9 0.6z"/>
		<path class="s3" d="m219 336.6c0 0-3.3-0.9-2.8-3.5 0.5-2.6 2.9-13.2 3.3-14.9 0.5-1.7 4.2-17 5-20.5 0.7-3.5 2.4-11.4 3.3-14.1 0.8-2.7 1.5-8 1.7-11.1 0.2-3.1-0.1-9-0.1-9l-8.5-2.8-3.1-0.3c-0.9-0.2-10-3.8-12.2-5-2.2-1.3-8.6-6.2-10.7-8.6 0 0-6-6.2-7.9-14.5-1.8-8.4-2.8-6.7-3.2-11.2-0.1-1.5 3-2.6 4.8-2.7 1.7-0.1 5.1 0.2 7.9 0.7 2.7 0.4 5.5 0.8 7.2 1.2 1.7 0.4 7.1 2.7 9.2 3.5 2 0.9 6.9 3.8 8.3 4.5 1.5 0.7 5.7 4.6 6.2 5.2l2.8 2.9c0.9-0.2 2.5-1.5 2.2-2.7-0.3-1.2-5-4.2-5.8-4.8-0.8-0.6-7.4-6.7-8.2-7.8-0.8-1-2.4-2.2-3.4-2.3-1-0.1-8.2-1.4-9.5-1.9-1.2-0.5-9.5-5-10.6-5.6-1.1-0.6-10.8-3.4-12.2-3.7-1.5-0.2-6.9-1.1-9.2-3.2-2.3-2.1-5.7-6-6.9-7.2-1.2-1.1-4.4-2.9-6.6-4.8-2.2-1.9-5.9-5.5-7.1-7.7-1.2-2.2-3.5-8.5-4-9.8-0.5-1.4-3.1-6-3.4-7.7-0.3-1.7 0-4.7-1-5.6-1-0.9-7.1-5.8-7.9-7.3-0.8-1.5-2-4.6-2.4-6.7-0.3-2.1-0.9-7.6-0.9-8.6 0-1-0.2-7.6-0.2-9.3 0.1-1.7-0.6-8.9-0.6-10.1 0-1.2 0.1-3.9 0.9-4.5 0.9-0.6 2.5-0.3 3.4 0.7 0.9 1 2.2 4.3 2.6 5.1 0.4 0.8 2.8 7.1 3.4 9.6 0.6 2.5 0.4 8.4 0.7 9.1l2.2 3.5c0.5 0.8 1.2 2.6 2.2 1.5 0.9-1 2.5-6.8 2.5-6.8 0 0 2.3-7.6 2.5-10.1 0.2-2.6-1.5-7.2-1.6-8.1-0.1-0.9 0.4-7.7 1-9.6 0.6-1.8 2.1-7.8 3.4-10.6 1.3-2.7 2.7-6.2 3.3-7.3 0.7-1 3.5-3.9 4.2-1.7 0.7 2.3 0 8.4-0.2 9.8-0.2 1.4-1.6 3.4-1.5 4 0.1 0.6-1.4 4.3-0.9 5.6 0.5 1.3 2.5 3 3.5 2.7 0.9-0.3 2.7 0.4 6.5-6.2 3.8-6.5 7.1-12.1 7.2-12.3 0.2-0.2 4.3-5 6.5-4.8 2.3 0.1 4.3-0.3 2.7 2.1-1.5 2.4-5.6 8.8-6.3 10.8-0.7 2.1-2.7 7.7-3.8 9.5-1.1 1.8-5.8 8.5-6.3 9.1l-4.5 5.2c0 0-4 8.3-4.6 9.7-0.6 1.4-1.7 6.4-2.4 8.5-0.7 2.1-1.7 3.3-1.6 10.6 0 7.3 0.9 10.4 1.2 11.3l1.6 5.5 0.9 2.1c0.3 0.7 0.6 3.1 0.8 1.3 0.2-1.8 0.2-5.1 0.7-6.6 0.5-1.6 1.4-8.4 2-9.9 0.7-1.6 1.8-6 2.2-7.3 0.4-1.4 2.2-8.1 2.2-8.1l1.8-5.3 1.6-5.9c0.2-0.6 1.1-2.7 2.1-1.8 1 0.9 1.3 3.2 1.5 4.2 0.2 1-0.5 7.6-0.4 9.1 0 1.6-0.1 9.2-0.7 10.5-0.5 1.3-1.5 6.1-1.8 7.6-0.3 1.5 0.1 4.5 0.1 5.2l1 8.2c0 0 3.2 10.5 4.3 12.3 1.1 1.8 3.6 5.1 4.5 5.4l1.5 0.4c0 0 0.5 0.1 0.4-1.3 0-1.4-0.5-4.4-0.5-4.4l-0.7-8.1c-0.1-0.9-0.8-10.4-0.8-11.7 0-1.3-0.6-10.4-0.6-10.4l-0.9-4.8c0.4-0.6 2.3-1.3 3.4-0.6 1.1 0.7 3.4 3.9 3.7 4.6l3.8 10.1 1.9 13.4 2.9 9c0.4 0.8 4.1 7.6 5.3 8.8 1.2 1.2 4.6 4 5.3 4.3l2.7 1.3c0.5-0.2 0.5-1.5 0.6-2.7 0.1-1.2-0.8-21-0.8-21l-2-10.4-0.1-2.7c0.3-0.9 1-2.1 2.2-1.5 1.2 0.6 3.2 2.5 3.4 3.1 0.2 0.6 3.1 6.3 3.8 8.2 0.8 1.9 2.4 9.7 2.8 11.7 0.4 2 0.3 5.4 0.8 6.9 0.5 1.6 3.4 7.6 3.8 8.3l5 6.9c0.5 0.5 4.3 2.4 5.3 2.7 1 0.3 2.8 0.7 3.8 0.8 1 0 1.4-0.7 1.8-0.9 0.4-0.2 1.6-1 2.6-0.9 1 0.1 3.2 0 4.2 0.9 1 0.9 2.3 1.2 2.9 1.2l4.7-0.6h10.3l8.5 0.8c0.9-0.1 5.8-1.3 6.9-1.4 1.1-0.1 5.4-0.2 6.1 0.2l3.1 0.8c0.9-0.4 4-2 5.6-3.2 1.6-1.2 4-5.6 4.8-7.3 0.8-1.7 3.4-9.4 4.1-12.3 0.8-2.9 2.9-14.1 3.1-15.1 0.1-1 1.6-5.5 4.3-9 2.7-3.5 5-5.3 5-5.3 0 0 1.1-0.3 0.9 1.5-0.2 1.8-2.2 8.2-2.3 9.4 0 1.2-0.9 9-0.7 9.5 0.2 0.4-0.1 4.8-0.2 6.8-0.1 2-0.5 6.1-0.6 6.8l-0.1 5.1c0.4 0.3 0.9 0 2.5-0.3 1.5-0.3 9.3-4.5 10-5.5 0.8-1 3.7-9 4.5-11.7 0.8-2.7 3.3-15 3.7-16.8 0.4-1.8 1.8-6.7 2.3-7.5l4.4-5.9c0 0 1.4-1.5 1.8-0.3 0.3 1.2 0.5 12 0.5 12 0 0-0.8 4.1-0.9 7.2 0 3-0.8 9.8-0.8 9.8 0 0-1.4 5.8-1.3 7.3 0.1 1.5-0.7 2.4-0.1 2.4l3.2-1.6c0.7-0.5 5.2-5.4 6.2-7.8 1-2.4 2.2-8.5 2.4-9.8 0.2-1.3-1.2-13-1.6-14.8-0.3-1.8-1.9-7.2-1.9-7.4 0-0.2-1.7-9-1.2-10.8 0.4-1.9 0.9-6.7 1.5-7.3 0.6-0.6 2.7-1.9 2.9-0.2 0.2 1.7 3 9.6 3.5 10.5 0.4 0.9 3.6 10.2 4 11.3 0.4 1.1 2.1 6.8 2.1 6.8 0 0 0.4 7.3 0.7 8.6 0.2 1.3 0.9 3.6 0.9 3.6h0.7c0.7-0.7 3.4-8.7 3.8-9.9 0.5-1.2 1.4-9.9 1.3-11 0-1.1-3.3-10.3-4-13.2-0.8-2.8-3.1-9-4.3-10-1.2-0.9-5.8-4.6-7.6-6.1-1.7-1.5-4.7-8-5.1-10.3-0.3-2.4-2.9-8.7-4.7-12.8-1.9-4.1-5.1-7.9-4.7-9.2 0.3-1.3 0.5-2.8 2.2-2.6 1.7 0.2 5.2 1.2 6.6 2.5 1.4 1.3 4.4 7 5.1 8.1 0.7 1.1 3.3 6.2 3.7 7.3 0.4 1.1 1.2 5.3 2.5 6.1 1.3 0.8 2.4 1.9 3.6 1.3 1.1-0.6 1.5-2.5 1.5-4.2-0.1-1.7-2.7-9.2-2.9-10.4-0.2-1.1-1-7.5-1-8.7 0-1.2 0.9-5.1 1.4-5.8l1.9-2 1.3-0.1c0 0 0.2 0.2 0.7 1.9m-0.8-2.4c0 0 3.9 10.3 4.6 13.5 0.8 3.1 2.5 6.1 3.3 7.9 0.9 1.8 1.5 4.5 1.5 5.6 0 1 0.6 6.6 0.6 7.4 0 0.8-0.8 7.9-0.8 9.4 0 1.5-0.4 6.3 0.4 8.1 0.8 1.8 2.4 8.1 2.4 8.1 0 0 3.1 5.4 4.4-1.7 1.4-7.1 1.6-11.6 2.4-15.7 0.8-4.1 1.7-7.2 2.4-8.6 0.8-1.4 1.7-3.5 2.3-3.7 0.6-0.2 3.1-0.5 3.4 1.5 0.2 2-0.1 9.1-0.3 10.3-0.2 1.1-0.5 9.4-0.5 11.9 0 2.5-0.5 6.9-0.6 7.7-0.1 0.8-1.5 5.8-2.9 7.9-1.4 2.1-4.9 6.9-5.5 7.6-0.6 0.8-0.9 1.6-1.6 4.2-0.7 2.6-2.6 7.9-3.1 8.5-0.5 0.7-0.9 3.3-1.8 4.8-0.9 1.5-0.4 2.7-1.1 4.5-0.8 1.7-3.9 5.8-5.7 7.1-1.8 1.3-2.8 1.3-4.1 2.7-1.2 1.4-5.7 6.2-6.3 7.2-0.5 1-3.9 3.2-5.3 4.4-1.4 1.2-5 3.1-7 3.8-2 0.7-8 3.6-9 3.9-1 0.3-4.9 0.7-6.3 2.6-1.4 1.9-3.1 1-4.3 1.3-1.2 0.3-4 0.6-6.3 1.8-2.3 1.3-2.4 1-4.9 2.6-2.5 1.6-9 5.8-11.2 7.4-2.2 1.6-6.5 3.4-7.7 7.1-1.2 3.7-0.9 2.8-0.9 4.2 0.1 1.4 0.2 2.4 0.6 2.8 0 0 0.2 1 1.5-0.2 1.3-1.2 3.5-4.5 3.9-5.3 0.4-0.8 3.5-4.2 5-5.5 1.6-1.3 4.2-5.2 12-7.3 7.8-2.1 7.3-2.1 10.6-2.1 3.3 0 6.5-0.1 8.3 0.3 1.8 0.4 4.1 0.3 4.1 2.1 0 1.8-0.8 4.2-1.2 5.6-0.4 1.4-2.2 7.6-2.9 8.9-0.8 1.3-5.6 8.4-6 9-0.4 0.6-5.6 6.2-6.9 7.3-1.3 1-5.3 4.6-7 5.6-1.7 1-8.1 3.5-9.9 3.9-1.9 0.4-4.3 0.9-5.9 0.9-1.6 0-5.4-0.8-5.8-2-0.4-1.2-0.3-1.8-0.3-1.8l-0.4 8.9 0.2-2.1c0 0 2.3 1.3 2.4 2.3 0.1 1 0.1 4.1-0.1 5.5-0.3 1.5-0.9 3.8-0.4 5.4 0.4 1.6 2 5.1 2.4 6 0.4 0.9 1.3 3.3 1.6 6.2 0.3 2.9 0.9 5.5 0.7 7-0.2 1.5-1.5 3-0.7 4.9 0.8 1.9 1.8 2.6 2.3 3.4 0.6 0.8 2.5 5.7 2.8 7.1 0.3 1.4 2.2 8.5 2.7 10.8 0.5 2.4 1.1 6.2 1.1 7.5 0 1.3-0.1 3.7-0.7 4l-2.5 1.4"/>
		<path fill-rule="evenodd" class="s0" d="m184.4 104.1l0.3-1.5 48.1 0.7v1.2z"/>
		<path fill-rule="evenodd" class="s2" d="m184.4 104.1l0.3-1.5 48.1 0.7v1.2z"/>
		<path fill-rule="evenodd" class="s0" d="m149.5 101.8h-9.7l-1.3 2h10.7z"/>
		<path fill-rule="evenodd" class="s2" d="m149.5 101.8h-9.7l-1.3 2h10.7z"/>
		<path fill-rule="evenodd" class="s0" d="m191.3 91.7l0.2-1.5 41.4 7.8v1.2z"/>
		<path fill-rule="evenodd" class="s2" d="m191.3 91.7l0.2-1.5 41.4 7.8v1.2z"/>
		<path fill-rule="evenodd" class="s0" d="m179.4 87.7l-23.3-4.3-1.6 1.6 23.6 4.1z"/>
		<path fill-rule="evenodd" class="s2" d="m179.4 87.7l-23.3-4.3-1.6 1.6 23.6 4.1z"/>
		<path fill-rule="evenodd" class="s0" d="m176 119.8l0.9-1.9 56-9.2v1.2z"/>
		<path fill-rule="evenodd" class="s2" d="m176 119.8l0.9-1.9 56-9.2v1.2z"/>
		<path fill-rule="evenodd" class="s0" d="m129.2 125.8l-4.5 0.9-1 2.2 5.9-1.1z"/>
		<path fill-rule="evenodd" class="s2" d="m129.2 125.8l-4.5 0.9-1 2.2 5.9-1.1z"/>
		<path fill-rule="evenodd" class="s0" d="m180.3 135.1v-1.7l61.9-22.2h3.3z"/>
		<path fill-rule="evenodd" class="s2" d="m180.3 135.1v-1.7l61.9-22.2h3.3z"/>
		<path fill-rule="evenodd" class="s0" d="m131.4 151.2l-17.8 6.5-0.5 2.3 18.6-7.2z"/>
		<path fill-rule="evenodd" class="s2" d="m131.4 151.2l-17.8 6.5-0.5 2.3 18.6-7.2z"/>
		<path fill-rule="evenodd" class="s0" d="m186.7 148.3l-1.5-0.7 64.4-36.3h2.1z"/>
		<path fill-rule="evenodd" class="s2" d="m186.7 148.3l-1.5-0.7 64.4-36.3h2.1z"/>
		<path fill-rule="evenodd" class="s0" d="m109.3 190.2l-0.1 2.4 34.2-20-0.5-1.4z"/>
		<path fill-rule="evenodd" class="s2" d="m109.3 190.2l-0.1 2.4 34.2-20-0.5-1.4z"/>
		<path fill-rule="evenodd" class="s0" d="m253.6 111.2h1.6l-60.2 49.2-0.6-1.5z"/>
		<path fill-rule="evenodd" class="s2" d="m253.6 111.2h1.6l-60.2 49.2-0.6-1.5z"/>
		<path fill-rule="evenodd" class="s0" d="m153.9 192.1l-41.4 33.2 0.4 2.3 41.8-34.5z"/>
		<path fill-rule="evenodd" class="s2" d="m153.9 192.1l-41.4 33.2 0.4 2.3 41.8-34.5z"/>
		<path fill-rule="evenodd" class="s0" d="m214 161.8l-1.2-0.6 42.5-48.7v1.5z"/>
		<path fill-rule="evenodd" class="s2" d="m214 161.8l-1.2-0.6 42.5-48.7v1.5z"/>
		<path fill-rule="evenodd" class="s0" d="m172.2 208.4l-46.9 54.2 1 1.9 47-55.4z"/>
		<path fill-rule="evenodd" class="s2" d="m172.2 208.4l-46.9 54.2 1 1.9 47-55.4z"/>
		<path fill-rule="evenodd" class="s0" d="m198.7 179.4l7-8.1-0.6-1.4-7.3 8.5z"/>
		<path fill-rule="evenodd" class="s2" d="m198.7 179.4l7-8.1-0.6-1.4-7.3 8.5z"/>
		<path fill-rule="evenodd" class="s0" d="m184.4 237.6l-35.3 59.6 1.4 1.6 34.7-60.2z"/>
		<path fill-rule="evenodd" class="s2" d="m184.4 237.6l-35.3 59.6 1.4 1.6 34.7-60.2z"/>
		<path fill-rule="evenodd" class="s0" d="m222.3 175.5l-1.1-1.3 34.1-57.7v2.1z"/>
		<path fill-rule="evenodd" class="s2" d="m222.3 175.5l-1.1-1.3 34.1-57.7v2.1z"/>
		<path fill-rule="evenodd" class="s0" d="m228.3 199.4l-1-1.6 28-74.2v3z"/>
		<path fill-rule="evenodd" class="s2" d="m228.3 199.4l-1-1.6 28-74.2v3z"/>
		<path fill-rule="evenodd" class="s0" d="m204.1 259l-24.3 64 1.9 1.2 23.5-64.4z"/>
		<path fill-rule="evenodd" class="s2" d="m204.1 259l-24.3 64 1.9 1.2 23.5-64.4z"/>
		<path fill-rule="evenodd" class="s0" d="m297.5 198.8l-1.1 1.8-25.6-73.1v-3.3z"/>
		<path fill-rule="evenodd" class="s2" d="m297.5 198.8l-1.1 1.8-25.6-73.1v-3.3z"/>
		<path fill-rule="evenodd" class="s0" d="m317.8 261.5l23.1 65 1.8-1.1-23.2-65z"/>
		<path fill-rule="evenodd" class="s2" d="m317.8 261.5l23.1 65 1.8-1.1-23.2-65z"/>
		<path fill-rule="evenodd" class="s0" d="m304.4 176l-0.9 1.3-32.8-58.4v-2.1z"/>
		<path fill-rule="evenodd" class="s2" d="m304.4 176l-0.9 1.3-32.8-58.4v-2.1z"/>
		<path fill-rule="evenodd" class="s0" d="m338.9 240l34.3 61.2 1.3-1.5-35-61.7z"/>
		<path fill-rule="evenodd" class="s2" d="m338.9 240l34.3 61.2 1.3-1.5-35-61.7z"/>
		<path fill-rule="evenodd" class="s0" d="m311.2 161.9l-1.4 0.7-39-48.2v-1.6z"/>
		<path fill-rule="evenodd" class="s2" d="m311.2 161.9l-1.4 0.7-39-48.2v-1.6z"/>
		<path fill-rule="evenodd" class="s0" d="m347.5 209l49.6 60.6 1.1-1.9-49.1-59.6z"/>
		<path fill-rule="evenodd" class="s2" d="m347.5 209l49.6 60.6 1.1-1.9-49.1-59.6z"/>
		<path fill-rule="evenodd" class="s0" d="m327.7 181.9l-7.9-9.7-0.6 1.9 7.3 9z"/>
		<path fill-rule="evenodd" class="s2" d="m327.7 181.9l-7.9-9.7-0.6 1.9 7.3 9z"/>
		<path fill-rule="evenodd" class="s0" d="m366.5 194.3l45.4 39.3 0.6-2-44.7-38.3z"/>
		<path fill-rule="evenodd" class="s2" d="m366.5 194.3l45.4 39.3 0.6-2-44.7-38.3z"/>
		<path fill-rule="evenodd" class="s0" d="m331.8 162l-0.7 1.7-60.4-52.2v-0.3h1.4z"/>
		<path fill-rule="evenodd" class="s2" d="m331.8 162l-0.7 1.7-60.4-52.2v-0.3h1.4z"/>
		<path fill-rule="evenodd" class="s0" d="m340.2 149.2l-1.6 0.7-64.7-38.7h2.1z"/>
		<path fill-rule="evenodd" class="s2" d="m340.2 149.2l-1.6 0.7-64.7-38.7h2.1z"/>
		<path fill-rule="evenodd" class="s0" d="m380 174.7l37.1 22.2-0.2-2.3-36.6-21.7z"/>
		<path fill-rule="evenodd" class="s2" d="m380 174.7l37.1 22.2-0.2-2.3-36.6-21.7z"/>
		<path fill-rule="evenodd" class="s0" d="m344.5 134.2l-0.4 1.5-63.9-24.5h3z"/>
		<path fill-rule="evenodd" class="s2" d="m344.5 134.2l-0.4 1.5-63.9-24.5h3z"/>
		<path fill-rule="evenodd" class="s0" d="m389.9 153.1l23.9 9.3-0.6-2.4-22.7-8.5z"/>
		<path fill-rule="evenodd" class="s2" d="m389.9 153.1l23.9 9.3-0.6-2.4-22.7-8.5z"/>
		<path fill-rule="evenodd" class="s0" d="m348.3 119.5l0.3 1.8-55.7-10.8v-1.3z"/>
		<path fill-rule="evenodd" class="s2" d="m348.3 119.5l0.3 1.8-55.7-10.8v-1.3z"/>
		<path fill-rule="evenodd" class="s0" d="m395.1 130.1l8.9 1.8-1-2.1-7.9-1.5z"/>
		<path fill-rule="evenodd" class="s2" d="m395.1 130.1l8.9 1.8-1-2.1-7.9-1.5z"/>
		<path fill-rule="evenodd" class="s0" d="m341.5 104.1l0.6 1.7-49.2-0.7v-1.2z"/>
		<path fill-rule="evenodd" class="s2" d="m341.5 104.1l0.6 1.7-49.2-0.7v-1.2z"/>
		<path fill-rule="evenodd" class="s0" d="m377.8 106.2l12 0.2-1.5-1.9h-10.3z"/>
		<path fill-rule="evenodd" class="s2" d="m377.8 106.2l12 0.2-1.5-1.9h-10.3z"/>
		<path fill-rule="evenodd" class="s0" d="m335.5 91.4l0.5 1.9-43.1 6.7v-1.3z"/>
		<path fill-rule="evenodd" class="s2" d="m335.5 91.4l0.5 1.9-43.1 6.7v-1.3z"/>
		<path fill-rule="evenodd" class="s0" d="m236.3 343.7c-0.1 1.3-0.2 2.5-0.2 3.3 0 1.8 1.7 1.6 2.7 1.4 0.6-0.1 0.9-2.7 1-4.7h2.7l0.1 6.7 2.8-0.1c0 0 0.8-5.5 0.9-6.5h2.7c-0.1 1-0.1 2.1-0.1 2.3l-0.1 2.1 0.9 3.7 2.1 0.9 0.7-7.9 0.1-1.2h1.9c-0.1 2.2-0.2 4.2-0.2 4.2l0.9 3.2 2-0.9c0.4-0.7-0.1-2.9-0.2-4.1l0.2-2.4h2.5c0 1.1 0 2.4 0.1 3.2 0.1 1.1 1.2 1.7 2.4 2.2 1.1 0.5 1.5-0.7 1.6-1.2l-0.8-3.5v-0.6h3.1c-0.1 1.3-0.2 2.4-0.2 2.8-0.3 1.4 0.1 2.3 0.7 2.9l1.7-0.3 1-2.4v-3.1h3.1c0 1.5 0.4 4 1 4.4l1.3-0.2c0.3-0.3 0.3-2.7 0.4-4.2h6.7l0.1 0.7 2.1 0.1 0.6-0.8h4.1c-1.4 0.6-2.7 1.1-3.1 1.5l-2.3 1.2c-0.8 0-1.8-0.6-3.7 0.6-1.9 1.1-3.9 2.4-4.8 2.7l-5.2 0.7c-0.7 0.2-5.8 0.8-7.5 0.9-1.7 0.1-4.2 0-4.2 0 0 0 0.1 1.2-0.9 1.2-1 0-2.9 0.2-2.9 0.2l-1.5 0.9c0 0 0.9 1.1-1.3 0.7-2.3-0.5-3.1-0.9-5.7-1.4-2.6-0.6-4.5-1-6.8-1.9-2.3-0.9-8-5.1-11-6.9l-0.2-0.1h8.7z"/>
		<path fill-rule="evenodd" class="s0" d="m239.9 343.7c0.1-1.2 0.1-2.2 0.1-2.2 0 0 0.5-4.3 0.8-5.6 0.3-1.3 1.7 0.6 1.7 0.6l0.1 7.3h-2.7zm46.8-21.6c0.4 1.7 0.8 3.3 0.8 3.3 0 0 0.9 4.7 1.2 7 0.3 2.3 1.1 2 1.1 2 0 0 0.1-2 0.3-3.9 0.2-1.9-1.2-7.7-1.2-7.7v-0.7h8l0.3 1.8 0.9 1.9c0.3-0.3 0.6-2.3 0.7-3.7h4.1l0.1 0.6 0.5 1.9 0.9-0.7 0.3 2.3v7.5l1.6 2.2 1 1c0 0-4.4 1.6-5.6 2.1-1.2 0.5-8.1 3.1-9.7 3.6-0.8 0.2-2.1 0.7-3.3 1.2h-4.1l0.5-1.8-0.5-7.7-1.1-2.3-0.9-6.8c0.1-0.4-0.2-1.7-0.4-3.1zm-7.4 0c0.3 1 0.5 1.7 0.5 1.8l0.5 6.3 1 5 0.5 3.2c-0.1 0.5 0 3.9 0.2 5.4h-6.7v-1.2l-0.5-4.9-0.7-8.7c0 0-0.5-3.7-0.8-5.5l-0.2-1.3h6.2zm-9.4 0l0.5 0.4 0.2 2.5 0.4 0.9 0.4 3.7 0.5 0.9c0 0 0.3 1.6 0.2 4.5-0.1 2.9 0.7 3.4 0.7 3.4 0 0-0.1 3.7-0.1 5.1v0.3h-3.1v-0.5l0.3-3.1c0 0-0.5-4.5-0.3-5.6 0.2-1 0.5-2.1 0.5-3.4 0-1.3-0.5-2.3-0.5-2.3 0 0 0.3-5.3 0.1-6.3v-0.4h0.2zm-3.1 0l0.1 1.1-0.2 11.1c0 0-0.2 5.8-0.4 9.4h-3.1c0-1.4 0.3-4.4 0.4-5l0.7-3.5-0.1-5.9c0.1-0.4 0.1-4.4 0-7.3h2.6zm-5.7 0c0.2 2 0.3 5.4 0.2 7.1-0.1 2.2-0.4 4.5-0.5 5l-0.8 8.1-0.2 1.4h-2.5l0.4-2.4c0.2-1.3 0.7-8.4 0.7-8.4 0 0 0.1-7.3 0.1-8.5l-0.4-2.3zm-6.4 0c0.2 1.5 0.4 3.5 0.4 3.9 0 0.7 0 9.6-0.2 11.7-0.1 1.1-0.2 3.7-0.4 6h-1.9c0.2-2 0.5-5.9 0.5-6.3l-0.9-1.5c-0.7 0.5-1.7 1.6-2.2 2.8-0.5 1.2-0.4 2-0.7 3.1l-0.3 1.9h-2.7c0.2-1.1 0.7-7.7 0.7-7.7 0 0 1.3-5.6 1.3-7.2 0-1.6 1.3-0.9 1.9-0.8l0.8 0.4c0 0 0.3-2.5 0.7-3.8 0.1-0.4 0.2-1.4 0.2-2.5zm-7.9 0c-0.3 2.5-0.5 6.6-1.1 9.1-0.7 3-1.4 1.6-2.1 1.3l-0.6-5.3c0-0.7 0.1-3.5 0.1-5.1zm-17.3 0c0.1 2.2 0.3 5.5 0 6.1l-0.7 4.4c0 0.6-0.5 2.6-0.4 4 0.1 1.4-0.2 1.6 0.4 2.6l1.1 1.5c0.5 0.3 1.2 0.2 1.6-1.2 0.3-1.4 0.6-3.5 0.8-5.7 0.1-1.5 0.1-7.8 0-11.6h3.5l0.1 0.2 0.6-0.2h2.7l-0.2 2.2c-0.3 2.7-2.3 12.7-2.4 14.7-0.1 1.1-0.2 3-0.3 4.8h-8.6c-3.1-1.9-8-5.7-8.4-6l-0.1-1.6c0.8-0.5 2.4-2.2 2.9-4 0.5-1.7 1-7.1 1.6-10h5.8z"/>
		<path fill-rule="evenodd" class="s0" d="m232.3 319.2c0 0-1.2-11.1-1.2-12.9 0-1.8-2-8.3-2.5-9.7-0.5-1.3-0.1-3.7 0.1-4.4 0.2-0.7 1.3-2.9 1.4-0.3 0.1 2.7-0.2 4.2 0.3 4.5l2.3 0.3c0.5-0.6 1.1-5.1 0.9-7.2-0.2-3.1-0.6-3.6-0.6-6.1 0-2.5 0.1-7.2 0.5-8.8 0.4-1.6 0.2-3.2 1.5-2.7 1.3 0.5 1.3 1.3 1.6 3.2 0.3 1.9 1.3 3.4 1.9 4.7 0.6 1.3 1.9 3.9 2.8 4.2l1.8 0.8 1.4-2.2c0.2-0.4 0.8-2 1-0.7 0.3 1.3 0.6 3 0.4 3.5-0.2 0.5-1.2 2.7-1.1 3.9 0.1 1.2 0.7 4.2 1.5 5 0.9 0.9 2.7 1.9 4.3 1.9 1.6 0 5.3-1 5.3-1l0.2-2-2.8-1.6c-0.4-0.5-2-3-1.5-4.1 0.5-1 0.7-3.4 1-4.1l1.7-0.9c0.7 0.5 2.9 1.3 4 1.3 1 0 9.6 0.2 9.9 0.1l3.6-1.4 1.4 0.1 1.2 4.3-0.2 3.5-3.2 2.3-1.2 1.4c0.9 0.6 2 1.4 3.3 1.7 1.3 0.3 3.6 0.7 4.5 0.5 0.9-0.2 2.7-1.6 3.3-3 0.7-1.4 0.7-4.2 0.6-5.4-0.1-1.2-1-4-1.2-4.5l-1-2.1 1.1-0.1 2.3 2.6c0.9 0.2 4.9-4.1 6.2-6.2 1.2-2.1 2.7-5.5 3.3-6.3l1.7-4.9 1.2 0.3-0.4 3.9-0.7 7.3-0.1 6 1.9 5.2c0.3 0.9 1.1 5 1.2 6.1 0.1 1 0.1 4.5-0.5 6-0.6 1.4-0.9 1.8-1.1 2.8-0.3 1-0.8 6.4-0.6 7.7 0.2 1.2 0.7 4.9 0.9 5.6 0.1 0.5 0.6 3.1 0.9 4.9h-8c0-1.5-0.1-4.9-0.4-6.3-0.2-1.3-1.4-2.4-2.2-2.8l-0.7-0.1-0.9 0.1-0.3 2.8c-0.2 1.5 0.5 1.5 1.2 3 0.3 0.7 0.7 2 1.1 3.3h-4.3c-0.2-1.2-0.5-2.5-0.6-3-0.2-1.2-1.9-6.1-1.7-7.7 0.2-1.6-1-4.5-1.9-5.6-0.9-1.1-0.2-0.4-0.9 0.2l-0.6 6c0 0 1.7 6.8 2.6 10.1h-6.1c-0.2-1.4-0.3-2.8-0.3-2.8l-0.5-7.3-0.6-2.6-0.6 1.9-0.9 2-1-0.3-0.7-2.3-0.9-1.3-2.2 1 0.7 4.1c0 0 0.2 5.1 0.4 7.5h-2.7l-0.1-1.3c-0.2-2.8-1.1-7.1-1.1-7.1 0 0-0.7-2.2-1.1-3.2-0.5-1-1.7 0.6-1.9 1.3l0.3 4.4c-0.1 0.8 0.5 3.5 0.8 4.6l0.2 1.3h-2.9c-0.3-1.3-0.7-2.6-0.7-2.6 0 0-0.9-2.2-1.2-3.6-0.4-1.4-1.2 1.1-1.2 1.1l-0.6 3c0 0.2 0.1 1 0.2 2h-2.8c0.1-2.9-0.1-7.2 0-7.7l-0.7-6.8c-0.6-0.7-1.7 1.1-2.5 2.9-0.8 1.8-1.5 8.1-1.8 10.2l-0.1 1.3h-3.7v-0.7c0-1.3 0.8-6.2 0.8-7.7 0-1.5 0.7-4.7 0.3-6.9-0.4-2.2-0.8-3.2-1.9-3.8-1.1-0.6-0.6 1.3-0.7 1.7-0.1 0.4-1.3 7-1.6 8.1-0.2 0.8-0.6 5.9-0.9 9.3h-2.7l0.3-2.3c0 0 0.3-4.5 0.3-6 0-1.4 0.7-2.8 0.9-6.5 0.2-3.7-1-4.7-1-4.7l-0.9 0.1c0 0-0.9 2-1.2 3.2-0.3 1.2 0.1 9.2 0.3 11.4 0.2 2.1 0.1 3.3 0.7 4.8h-3.3c0-1.7 0-2.7 0-2.7zm58.1-30.2l0.3 6c0 0.9 0.5 3.7 0.7 4.9 0.2 1.2 1.3 3.1 1.3 3.1l1.3-3.3c0 0-0.5-2.2-0.5-6.3 0-4.2-3.1-4.4-3.1-4.4zm-3.9 16.4c0 0-0.5 1.9 1 1.3 1.5-0.6 1.5-1.6 1.9-3.5 0.4-1.9 0.4-3.8-0.6-3.9l-1.4 0.8-0.3 2.7zm12.4 15.5c-0.1-0.8-0.6-4.3-0.4-5.3 0.2-1 0.7-4.9 0.7-4.9l0.8 0.6 1.8 5.7 1.3 5.2h-4.2zm-38.5-18.1c0.9 0.1 7 0.3 9.1-0.2 2.1-0.5 3.2-0.9 4-1.1 0.8-0.3 1.3 0.1 1.1-1.2-0.2-1.3-1.6-1.9-2.7-2.3-1-0.4-3.3-0.8-4.2-0.9l-9.7 0.2-3.2 1.3-2.1 1.2 1 2.5 4.1 0.5zm-36.6 19.3l0.2-0.7c0.8-2.7 0.9-8.7 1.1-9.9 0.3-1.2 0.9-5.6 1.6-4.3 0.7 1.3 1.2 4.7 1.2 5.4l1.4 7.6 0.1 1.9zm45.7 0h0.4z"/>
		<path class="s0" d="m252.9 72h20.4v22.8h21.7v18.7h-21.7v49.1h-20.4v-49.1h-22.2v-18.7h22.2zm4.2 4.2v22.8h-22.2v10.3h22.2v49.1h12v-49.1h21.7v-10.3h-21.7v-22.8z"/>
		<path class="s0" d="m26.2 418.3h4.5v2.4h39.2l0.7-0.2v3.8c0 0-3 1-4 3-1 2-1.3 1.8-1.4 8.5-0.1 6.7 0 15.8 0 16.5v44.5c0 0-0.3 7.1 0.5 9.6l-10.6 3.8-12.3 9.2-17.3-22c0 0-4-3.8-2.7-11.6 1.1-6.5 3.1-8.7 4.1-10.1 1-1.5 0.7-0.8 0.7-0.8l2.2 0.1-0.6 2.5c0 0-0.3 0.6 0.8 2.5 1.1 1.8 19.4 23.8 19.4 23.8 0 0 0.6 1.1 0.7-0.1 0-1.2-0.2-22.2-0.2-22.2v-23.5h-11l-1 1.4-3.3 11.1-0.1-23.3h5v2.2h10v-11l-0.6-3.1c0 0 0.8-0.1 3.9-2.4 3.1-2.3 3.4-2.5 3.4-2.5l-0.3-0.2c0 0-7.7 1.7-8.9 1.9-1.2 0.2-3 0.3-3.7 0.3h-11.7l-0.9 0.3-4.6 12.9z"/>
		<path fill-rule="evenodd" class="s0" d="m95.1 418.2l6.8 2.6-8 9.3-2-0.6z"/>
		<path fill-rule="evenodd" class="s0" d="m107.4 418.2l6.8 2.5-7.9 9.4-2-0.7z"/>
		<path class="s0" d="m201.1 442.6c0 0 2.2-2.6 3.7-5 1.6-2.4 3.7-5.6 3.7-5.6l11.6 4.1-1.3 3.8 0.1 9.2 9.6-17.1h3.2l5 18.4c0 0 0.9 6-0.3 9.1-1.2 3.2-2.8 6.2-4.8 8.1-2 1.9-3.1 3-3.1 3l-2.8-2.8c0 0 2.8-3 2.9-4.8 0.1-1.8-0.8-4.2-1.8-7.7-1-3.5-2.7-8.4-2.7-8.4l-1.2 1.8-4 6.9v34.9l8.4 2.3 1.1-4.4 4.7 1.5-9 14.5-19-5.1c0 0 1.7-1.2 1.6-11.2-0.1-10-0.1-43.5-0.1-43.5z"/>
		<path class="s0" d="m239.6 442.2l7.1-10.2 12.9 4.9c0 0-1.4 3.7-1.4 6.5 0 2.8 0.1 7.9 0.1 7.9l11.3-19.3 16.9 6c0 0-1.5 3.8-1.5 7.7 0 3.9 0.2 7.1 0.2 7.1l11.1-20.9 16.7 6c0 0-2.4 4.8-2.4 8-0.1 6.3 0.2 46 0.2 46l5.4 1.6-5.6 10.7-14.6-4c0 0 1.7-2.9 1.7-10.3 0.1-7.4 0-43.9 0-43.9l-4.3-1.7-8.5 14.3 0.2 33.5 4.6 1.4-5.9 10.6-13.2-3.5c0 0 1.6-2.2 1.6-10.2 0-8.1-0.1-38.7-0.1-38.7v-5.2l-5.8-2.3-7.9 13.2 0.3 34.9 3.9 1.3-5.6 10.5-13.3-3.5c0 0 1.7-3.2 1.8-8.8 0.1-5.6-0.1-46.8-0.1-46.8z"/>
		<path class="s0" d="m373.2 491.4l6.3 1.9-6.5 10.7-14.6-3.7c0 0 2.1-2.3 2-14.7-0.1-12.4-0.1-40.2-0.1-40.2l-5.8-2.2 7-11.3 13.8 5.4-2.2 5z"/>
		<path fill-rule="evenodd" class="s0" d="m369.6 417.6l6.9 2.7-8.3 9.4-1.8-0.5z"/>
		<path class="s0" d="m399.5 417.5l7.4 4.7c0 0 3 2.1 5.1 0.1 2.2-2 2.2-2.2 2.2-2.2l2.5 1.6-7 9.3c0 0-4.8 2.5-7.4 1.7-2.6-0.8-5.3-2-5.3-2l-0.2 26.9 0.1 54c0 0-2.1-0.1-3.7 0.8-1.7 0.8-3.1 1.7-3.7 3.2-0.6 1.5-0.7 3.5-0.7 3.5l-5-0.1-0.2-85.2-1.5-5.5 9.8-2.9z"/>
		<path class="s0" d="m422.5 420.1l-0.1 11.6 12.7-0.1-5.2 10.1-7.3 0.1-0.2 49.6 6.2 1.7-6.4 10.9-14.6-4c0 0 2.1-3.7 2.1-11.1 0-7.4-0.1-47-0.1-47h-4.7l8.7-9.1z"/>
		<path class="s0" d="m467.6 442c0 0 2.2-2.6 3.7-5 1.6-2.4 3.7-5.6 3.7-5.6l11.6 4.1-1.3 3.8 0.1 9.2 9.6-17.1h3.2l5 18.4c0 0 0.9 6-0.3 9.1-1.2 3.2-2.8 6.2-4.8 8.1-2 1.9-3.1 3-3.1 3l-2.8-2.8c0 0 2.8-3 2.9-4.8 0.1-1.8-0.8-4.2-1.7-7.7-1-3.5-2.7-8.4-2.7-8.4l-1.2 1.8-4 6.9v34.9l8.4 2.3 1.1-4.4 4.7 1.5-9 14.5-19-5.1c0 0 1.7-1.2 1.6-11.2-0.1-10-0.1-43.5-0.1-43.5z"/>
		<path fill-rule="evenodd" class="s0" d="m74.1 501.1l0.8-4.1c0 0 0-32.1-0.1-34.1-0.1-1.9-1.2-5-1.2-5l9.6-3.6c0 0 0.1 0-1.2-0.8-3.2-1.9-5.4-4.1-6.1-4.9l-2-3.2 11.1-5.6 6.4-7.5 22.6 8.3-1.2 2-1.1 2.8 0.1 46.2 0.9 0.5 4.5 1.2-6.8 10.9-12.4-3.3 0.8-8.6-0.3-2.7-2.8 4.4-5.8 10.3zm13.8-57.1l0.7 1.8c1 1.8 2.2 2.6 4.1 3.4 1.7 0.8 2.9 0.8 4.7 0.7 2.3-0.1 5.7-1.4 5.7-1.4zm0 46.5l5.5 1.8 5.4-9.3-0.1-30.2-10.8 5.2z"/>
		<path fill-rule="evenodd" class="s0" d="m120.8 444l10.2-4.5 6.2-7.4 24.3 8.2c0 0-1.6 1.8-1.8 4.1-0.2 2.3-0.2 25.4-0.2 25.4l0.1 38.4-8.3 2.4-7.5 7.7c0 0-8.2-4-12.8-4.1-4.6-0.1-5.3 0.1-6.6 1.1-1.3 1-2.9 3.9-2.9 3.9l-3.1-1.1c0 0 2.7-5.3 5.6-8.2 2.9-2.9 5.3-4.8 7.5-5.6 2.2-0.7 3.3-0.8 3.3-0.8l-0.2-0.6-14-3.7c0 0 1.2-3.6 1.4-6.8 0.2-3.2 0-23.8 0-23.8l0.1-19.7zm15.9 59.2l10.3 2.5v-20.2zm-1.7-58.9l0.1 46.3 4.6 1.3 7.3-13.1v-21.7c0-2-1.2-4.8-1.2-4.8l3.1-3.3z"/>
		<path fill-rule="evenodd" class="s0" d="m168.4 498.4l1.2-6.5c0 0 0.1-32.4 0-38.5-0.1-6.1-1.3-9.7-1.3-9.7l8.8-2.3 8-9.1 16.3 16.9-2 2.4-16.7 29.9 0.2 8.1 13.1 3.3 1.5-4.1 4.1 1.3-8.3 14.6zm14.1-51l0.1 28.2 9.4-17.4z"/>
		<path fill-rule="evenodd" class="s0" d="m320.1 498l1.2-6.5c0 0 0.1-32.4 0-38.5-0.1-6.1-1.3-9.7-1.3-9.7l8.8-2.3 8-9.1 16.3 16.9-2 2.4-16.7 29.8 0.2 8.1 13.1 3.3 1.5-4.1 4.1 1.2-8.3 14.6zm14.1-51l0.1 28.2 9.4-17.4z"/>
		<path fill-rule="evenodd" class="s0" d="m435.4 497.7l1.2-6.5c0 0 0.1-32.4 0-38.5-0.1-6.1-1.3-9.7-1.3-9.7l8.8-2.3 8-9.1 16.3 16.9-2 2.4-16.7 29.9 0.2 8.1 13.1 3.1 1.5-4.1 4.1 1.2-8.3 14.6zm14.1-51l0.1 28.2 9.4-17.4z"/>
	</g>
</svg>