<svg version="1.2" xmlns="http://www.w3.org/2000/svg" viewBox="0 0 350 204" width="350" height="204">
	<title>KLM_logo</title>
	<style>
		.s0 { fill: #000000 } 
	</style>
	<path fill-rule="evenodd" class="s0" d="m241 96.3q0-11.4 0-22.8c-44 0-87.9 0.1-131.9-0.1-0.1 7.7-0.2 15.3 0.1 23 43.9-0.2 87.9-0.1 131.8-0.1zm-72.1-85.1q-5.5 0-11 0c0 3.6 0 7.3 0 10.9 3.7 0 7.4 0.1 11 0q0.1 5.5 0.1 11c3.6 0 7.2 0.1 10.8-0.1q0-5.5 0-10.9c3.7 0.1 7.3 0 10.9 0 0.2-3.6 0.2-7.3 0.1-10.9-3.6 0-7.3 0-11 0 0-3.8 0-7.5-0.1-11.2h-10.9c0.4 3.7 0.1 7.5 0.1 11.2zm89.7 31.1c-1-2.3-2.4-4.5-4.2-6.2-1.7-1.8-3.8-3.2-6.2-4.2-2.3-0.9-4.8-1.4-7.3-1.4-2.5 0-5 0.5-7.3 1.4-2.3 1-4.4 2.4-6.2 4.2-1.8 1.7-3.2 3.9-4.1 6.2-1 2.3-1.5 4.8-1.5 7.3 0 2.5 0.5 5 1.5 7.3 0.9 2.3 2.3 4.4 4.1 6.2 1.8 1.8 3.9 3.2 6.2 4.2 2.3 0.9 4.8 1.4 7.3 1.4 2.5 0 5-0.5 7.3-1.4 2.4-1 4.5-2.4 6.2-4.2 1.8-1.8 3.2-3.9 4.2-6.2 1-2.3 1.4-4.8 1.4-7.3 0-2.5-0.4-5-1.4-7.3zm-44 0c-0.9-2.3-2.3-4.5-4.1-6.2-1.8-1.8-3.9-3.2-6.2-4.2-2.3-0.9-4.8-1.4-7.3-1.4-2.5 0-5 0.5-7.3 1.4-2.4 1-4.5 2.4-6.3 4.2-1.7 1.7-3.1 3.9-4.1 6.2-1 2.3-1.5 4.8-1.5 7.3 0 2.5 0.5 5 1.5 7.3 1 2.3 2.4 4.4 4.1 6.2 1.8 1.8 3.9 3.2 6.3 4.2 2.3 0.9 4.8 1.4 7.3 1.4 2.5 0 5-0.5 7.3-1.4 2.3-1 4.4-2.4 6.2-4.2 1.8-1.8 3.2-3.9 4.1-6.2 1-2.3 1.5-4.8 1.5-7.3 0-2.5-0.5-5-1.5-7.3zm-43.9 0c-1-2.3-2.4-4.5-4.2-6.2-1.7-1.8-3.8-3.2-6.2-4.2-2.3-0.9-4.8-1.4-7.3-1.4-2.5 0-5 0.5-7.3 1.4-2.3 1-4.4 2.4-6.2 4.2-1.8 1.7-3.2 3.9-4.1 6.2-1 2.3-1.5 4.8-1.5 7.3 0 2.5 0.5 5 1.5 7.3 0.9 2.3 2.3 4.4 4.1 6.2 1.8 1.8 3.9 3.2 6.2 4.2 2.3 0.9 4.8 1.4 7.3 1.4 2.5 0 5-0.5 7.3-1.4 2.4-1 4.5-2.4 6.2-4.2 1.8-1.8 3.2-3.9 4.2-6.2 1-2.3 1.4-4.8 1.4-7.3 0-2.5-0.4-5-1.4-7.3zm-44 0c-0.9-2.3-2.3-4.5-4.1-6.2-1.8-1.8-3.9-3.2-6.2-4.2-2.3-0.9-4.8-1.4-7.3-1.4-2.5 0-5 0.5-7.3 1.4-2.4 1-4.5 2.4-6.3 4.2-1.7 1.7-3.1 3.9-4.1 6.2-1 2.3-1.5 4.8-1.5 7.3 0 2.5 0.5 5 1.5 7.3 1 2.3 2.4 4.4 4.1 6.2 1.8 1.8 3.9 3.2 6.3 4.2 2.3 0.9 4.8 1.4 7.3 1.4 2.5 0 5-0.5 7.3-1.4 2.3-1 4.4-2.4 6.2-4.2 1.8-1.8 3.2-3.9 4.1-6.2 1-2.3 1.5-4.8 1.5-7.3 0-2.5-0.5-5-1.5-7.3zm79.9 161.2q16.9 0 33.7 0c0-19.9 0-39.9 0-59.8q1.4 0.7 1.8 2.3c6.7 19.2 13.6 38.2 20.2 57.4 10.5 0.2 21.1 0.1 31.7 0.1 6.5-18.8 13.3-37.5 19.8-56.2 0.6-1.5 0.8-3.5 2.4-4.4 0.1 20.2 0 40.4 0 60.6 11.3 0 22.5 0.1 33.8-0.1v-87.6q-27.6-0.1-55.1 0c-5.3 15-10.6 30.1-15.8 45.2-0.3 0.8-0.9 1.4-1.4 2.1-5.4-15.8-10.5-31.8-16.2-47.4-18.3 0.2-36.6 0-54.9 0 0 29.3 0 58.6 0 87.8zm-206.6 0c11.2 0 22.4-0.1 33.6 0 0.1-10.5-0.1-21 0.1-31.5 10.4 10.5 21 20.9 31.4 31.5 44.1 0 88.1 0 132.2 0-0.1-7.4 0.1-14.8-0.1-22.3-18.1 0.2-36.3 0.1-54.4 0.1q0-32.8 0-65.5-17-0.1-34 0c-0.1 28.8 0 57.6-0.1 86.4-16.3-15.5-31.9-31.7-48-47.3 12.8-13.3 26.1-26 39-39.1q-16.8-0.1-33.6 0c-11 10.5-21.8 21.3-32.8 31.8 0-10.6 0-21.2 0-31.8q-16.7-0.1-33.3-0.1z"/>
</svg>