<svg version="1.2" xmlns="http://www.w3.org/2000/svg" viewBox="0 0 175 175" width="175" height="175"><style></style><path  d="m25 0h50.1c-0.1 8.3 0.4 16.7 0 25 8.3-0.1 16.6-0.2 24.9 0-0.2-8.3-0.1-16.7 0-25h50.1c-0.1 8.3 0.4 16.7 0 25 8.3-0.1 16.6 0.2 24.9-0.1v75.2c-8.2 0-16.7 0.5-25-0.1q0.1 8.1 0.1 16.2c0 2.9-0.3 6.1 0.2 9-8.4-0.6-16.9 0.4-25.3-0.2q0.1 8.1 0.1 16.2c0 2.9-0.3 6.1 0.2 9-8.4-0.6-16.9 0.4-25.3-0.2 0.1 8.3 0.2 16.7 0.1 25h-25.2c0.2-8.3-0.1-16.7 0.1-25-8.4 0.3-16.8-0.2-25.1 0.3 0.4-8.4-0.1-16.9 0.1-25.3-8.4 0.3-16.8-0.2-25.1 0.3 0.4-8.4-0.1-16.9 0.1-25.3-8.3 0.3-16.7 0.1-25 0.1v-75.4c2.1 0.5 4.4 0.3 6.5 0.3 5.3 0 13.6-0.5 18.6 0 0.3 2.9 0 6.3 0 9.2 0 5.3 0.2 10.6 0 15.8 8.2-0.3 16.5-0.1 24.7 0 0.5-1 0.1-21.8 0.2-25-8.2 0.2-16.7 0.3-24.9 0-0.3-2.7-0.2-5.7-0.2-8.4z"/></svg>