<svg version="1.2" xmlns="http://www.w3.org/2000/svg" viewBox="0 0 512 132" width="512" height="132">
	<title>museumvereniging_logo</title>
	<style>
		.s0 { fill: #000000 } 
	</style>
	<path fill-rule="evenodd" class="s0" d="m131.4 97.7l-1 1.1h-5.4l-1.1-1.1v-7.5l38.9-65.5 1-1h5.5l1 1v7.5l-38.8 65.5zm41.8-65.5v-7.5l1.1-1h5.4l1.1 1 38.8 65.5v7.5l-1 1.1h-5.4l-1.1-1.1-38.9-65.5zm-140.7 65.5l-1 1.1h-5.4l-1.1-1.1v-7.5l38.9-65.5 1-1.1h5.4l1.1 1.1v7.5zm41.9-65.5v-7.5l1.1-1.1h5.3l1.1 1.1 38.9 65.5v7.5l-1.1 1.1h-5.4l-1.1-1.1zm192.2 20.5h-4.7l-0.6-0.6v-17.5c0-3.5-0.6-6.4-5.3-6.4-4.1 0-6.4 3-6.4 7.6v16.3l-0.6 0.6h-4.7l-0.5-0.6v-17.5c0-3.5-0.6-6.4-5.3-6.4-2.9 0-6.4 1.8-6.4 7.6v16.3l-0.6 0.6h-4.7l-0.6-0.6v-27.9l0.6-0.6h4.1l0.6 0.6 0.6 2.3h0.5c1.2-1.8 3.5-3.5 7.6-3.5 4.7 0 6.5 2.3 7.6 4.1h0.6c1.8-2.4 4.7-4.1 8.8-4.1 8.2 0 9.9 5.2 9.9 11.6v17.5l-0.5 0.6zm30.4 0h-4.1l-0.6-0.6-0.6-2.3h-0.6c0 0-2.3 3.4-7 3.4-8.2 0-11.1-5.8-11.1-12.2v-16.9l0.6-0.5h4.7l0.5 0.5v16.9c0 3.5 1.2 7 5.9 7 4.1 0 7-2.9 7-9.9v-14l0.6-0.5h4.7l0.6 0.5v28c0 0-0.6 0.6-0.6 0.6zm17.5 0.5c-7.6 0-11.7-3.4-11.7-9.8l0.6-0.6h4.7l0.6 0.6c0 2.9 1.7 4.6 5.8 4.6 4.1 0 5.9-1.2 5.9-3.5 0-2.9-1.7-3.5-7.6-4.6-5.8-1.2-9.4-3.5-9.4-8.8 0-4.1 3-8.1 11.2-8.1 6.4 0 11.1 2.9 11.1 8.7l-0.6 0.6h-4.7l-0.6-0.6c0-1.7-1.1-3.5-5.2-3.5-2.9 0-5.3 0.6-5.3 2.9 0 2.9 2.4 3.5 8.2 4.7 5.9 1.1 8.8 3.5 8.8 8.7 0 4.7-3.5 8.7-11.7 8.7zm15.2-15.1c0-8.2 4.1-15.1 13.5-15.1 9.3 0 13.4 6.9 13.4 15.1v1.7l-0.6 0.6h-19.3l-0.5 0.6c0 1.2 0.5 7 7.6 7 2.3 0 4.6-0.6 5.8-3.5l0.6-0.6h4.7l0.6 0.6c-0.6 4.6-4.7 8.7-11.7 8.7-9.4 0-14.1-6.4-14.1-15.1zm20.5-2.9c0-1.8-0.6-7-7-7-6.5 0-7 5.2-7 7l0.5 0.5h12.9zm35.1 17.5h-4.1l-0.6-0.6-0.5-2.3h-0.6c0 0-2.4 3.5-7.1 3.5-8.1 0-11.1-5.9-11.1-12.3v-16.8l0.6-0.6h4.7l0.6 0.6v16.8c0 3.5 1.1 7 5.8 7 4.1 0 7.1-2.9 7.1-9.9v-13.9l0.5-0.6h4.7l0.6 0.6v27.9c0 0-0.6 0.6-0.6 0.6zm48 0h-4.7l-0.5-0.6v-17.5c0-3.5-0.6-6.4-5.3-6.4-4.1 0-6.5 3-6.5 7.6v16.3l-0.6 0.6h-4.6l-0.6-0.6v-17.5c0-3.5-0.6-6.4-5.3-6.4-2.9 0-6.4 1.8-6.4 7.6v16.3l-0.6 0.6h-4.7l-0.6-0.6v-27.9l0.6-0.6h4.1l0.6 0.6 0.6 2.3h0.6c1.1-1.8 3.5-3.5 7.6-3.5 4.6 0 6.4 2.3 7.6 4.1h0.6c1.7-2.4 4.6-4.1 8.8-4.1 8.2 0 9.9 5.2 9.9 11.6v17.5l-0.6 0.6zm-190.3 45.5l-0.6 0.6h-5.3l-0.6-0.6-9.9-23.9v-4l0.6-0.6h3.5l0.6 0.6 8.2 20.3h0.6l8.1-20.3 0.6-0.6h3.5l0.6 0.6v4zm12.9-13.9c0-8.2 4.1-15.2 13.5-15.2 9.3 0 13.4 7 13.4 15.2v1.7l-0.6 0.6h-19.3l-0.6 0.6c0 1.2 0.6 7 7.6 7 2.4 0 4.7-0.6 5.9-3.5l0.6-0.6h4.7l0.5 0.6c-0.5 4.6-4.6 8.7-11.7 8.7-9.3 0-14-6.4-14-15.1zm20.5-2.9c0-1.8-0.6-7-7-7-6.5 0-7.1 5.2-7.1 7l0.6 0.6h12.9zm28.1-6.4h-2.9c-4.7 0-7.6 1.7-7.6 8.7v14.5l-0.6 0.6h-4.7l-0.6-0.6v-27.9l0.6-0.6h4.1l0.6 0.6 0.6 2.3h0.6c1.7-1.7 3.5-2.9 7.6-2.9h2.3l0.6 0.6v4.1l-0.6 0.6zm1.7 9.3c0-8.2 4.1-15.1 13.5-15.1 9.4 0 13.5 6.9 13.5 15.1v1.7l-0.6 0.6h-19.3l-0.6 0.6c0 1.2 0.6 7 7.6 7 2.3 0 4.7-0.6 5.9-3.5l0.5-0.6h4.7l0.6 0.6c-0.6 4.7-4.7 8.7-11.7 8.7-9.4 0-14.1-6.3-14.1-15.1zm20.5-2.9c0-1.7-0.6-7-7-7-6.4 0-7 5.3-7 7l0.6 0.6h12.8zm36.4 17.5h-4.7l-0.6-0.6v-16.9c0-2.9-0.6-7-5.9-7-5.2 0-7.6 2.9-7.6 9.9v14l-0.6 0.6h-4.7l-0.5-0.6v-27.9l0.5-0.6h4.1l0.6 0.6 0.6 2.3h0.6c0 0 2.3-3.5 7.6-3.5 8.2 0 11.1 5.3 11.1 12.2v16.9zm12.3-33.8h-4.7l-0.6-0.5v-4.7l0.6-0.6h4.7l0.6 0.6v4.7zm0 33.7h-4.7l-0.6-0.6v-27.9l0.6-0.6h4.7l0.6 0.6v27.9zm26.9-2.9h-0.6c0 0-2.3 3.5-7.6 3.5-8.2 0-12.9-6.4-12.9-15.1 0-8.8 4.7-15.1 12.9-15.1 5.2 0 7.6 3.4 7.6 3.4h0.6l0.6-2.3 0.6-0.6h4.1l0.5 0.6v25c0 11.7-6.4 15.7-13.4 15.7-7.1 0-11.2-3.5-11.7-8.1l0.5-0.6h4.7l0.6 0.6c1.2 2.3 2.9 2.9 5.9 2.9 5.2 0 7.6-3.5 7.6-9.9zm-7.6-21.5c-4.7 0-7.6 3.5-7.6 9.9 0 6.4 2.9 9.9 7.6 9.9 4.7 0 7.6-3 7.6-9.9 0-7-2.9-9.9-7.6-9.9zm25.8-9.3h-4.7l-0.6-0.6v-4.7l0.6-0.6h4.7l0.5 0.6v4.7zm0 33.7h-4.6l-0.6-0.5v-28l0.6-0.6h4.6l0.6 0.6v28zm32.2 0h-4.7l-0.6-0.6v-16.9c0-2.9-0.5-7-5.8-7-5.3 0-7.6 2.9-7.6 9.9v14l-0.6 0.6h-4.7l-0.6-0.6v-27.9l0.6-0.6h4.1l0.6 0.6 0.6 2.3h0.6c0 0 2.3-3.5 7.6-3.5 8.2 0 11.1 5.2 11.1 12.2v16.9l-0.6 0.6zm26.3-2.9h-0.6c0 0-2.3 3.5-7.6 3.5-8.2 0-12.8-6.4-12.8-15.2 0-8.7 4.6-15.1 12.8-15.1 5.3 0 7.6 3.5 7.6 3.5h0.6l0.6-2.3 0.6-0.6h4.1l0.6 0.6v25c0 11.6-6.5 15.7-13.5 15.7-7 0-11.1-3.5-11.7-8.2l0.6-0.5h4.7l0.6 0.5c1.1 2.4 2.9 3 5.8 3 5.3 0 7.6-3.5 7.6-9.9zm-7.6-21.6c-4.7 0-7.6 3.5-7.6 9.9 0 6.4 2.9 9.9 7.6 9.9 4.7 0 7.6-2.9 7.6-9.9 0-7-2.9-9.9-7.6-9.9z"/>
</svg>