<svg version="1.2" xmlns="http://www.w3.org/2000/svg" viewBox="0 0 251 178" width="251" height="178">
	<title>Novartis-Logo</title>
	<defs>
		<linearGradient id="g1" x2="1" gradientUnits="userSpaceOnUse" gradientTransform="matrix(251,0,0,164.614,-0.059,88.98)">
			<stop offset="0" stop-color="#050405"/>
			<stop offset="1" stop-color="#000000"/>
		</linearGradient>
	</defs>
	<style>
		.s0 { fill: url(#g1) } 
	</style>
	<path id="Layer copy" fill-rule="evenodd" class="s0" d="m166.9 80.9c0 14.4-14.6 27.9-42.2 27.9-31 0-41.7-15.6-41.7-30.9 0-16.6 12.2-26.9 12.2-41.4q0-1.8-0.3-3.5-0.4-1.7-1-3.3-0.7-1.6-1.7-3.1-1-1.4-2.3-2.7l0.4-0.6c2.3 0.5 4.5 1.4 6.5 2.6 2 1.3 3.8 2.8 5.3 4.7 1.5 1.8 2.6 3.8 3.4 6.1 0.8 2.2 1.3 4.5 1.3 6.9 0 13.4-10.3 23.2-10.3 37.9 0 11.5 7.4 24 28.8 24 17.2 0 28.1-13.1 28.1-26.1 0-13.7-8.8-20.6-12.7-22.3l0.2-0.6c17.1 1.6 26 12.1 26 24.4zm-42.4 7.2l-7.9-74.1h16.3l-7.8 74.1zm-88.1 75l-18.7-24.1v21.6c0.5-0.2 3.7 1 3.8 1v1h-8.7v-1l3.1-0.9v-23.7q-0.3-0.3-0.6-0.5-0.3-0.2-0.6-0.4-0.4-0.2-0.7-0.3-0.4-0.2-0.7-0.3c-0.4-0.1-0.9-0.2-0.9-0.2v-1h7.4l16 20.8v-18.9l-3.9-0.9v-1h8.7v1l-3.1 0.9v21.6c0 2 0.2 4.9 0.2 5.3zm39.2-15.4c0 10-7 15.8-14.7 15.8-7.6 0-14.7-5.8-14.7-15 0-9.1 7-15.1 14.6-15.1 2 0 3.9 0.3 5.6 1 1.8 0.7 3.5 1.7 4.8 3.1 1.4 1.3 2.5 2.9 3.2 4.7 0.8 1.7 1.2 3.6 1.2 5.5zm-4.9 1.5c0-7.3-4.4-14.4-10.4-14.4-6.4 0-9.2 6.1-9.2 12.7 0 6.6 3.6 14.7 10.4 14.7 6.5 0 9.2-6.5 9.2-13zm10.9-13l-3-0.9v-1h11.5v1l-3.6 0.9 7.9 21.7 8-21.7-3.6-0.9v-1h8.5v1l-3 0.9-10 27h-2.5zm81.5 24.4l3.7 1v1h-7.4l-8.4-13h-3.3v11.1l3.8 0.9v1h-11.6v-1l3.2-0.9v-24.5l-3.2-0.9v-1c0.6 0 5.6-0.1 10.6-0.1 8 0 11.3 3.3 11.3 7.6 0 5.3-5.6 6.7-6.6 7zm37.8 0.9l4-0.9v-24.5l-4-0.9v-1h12.5v1l-4 0.9v24.5l4 0.9v1h-12.5zm20.2-6.7h0.7l2.7 6.1q0.6 0.3 1.2 0.5 0.6 0.2 1.3 0.4 0.6 0.1 1.3 0.2 0.6 0.1 1.3 0.1c3.4 0 6.5-2 6.5-5.6 0-2.7-1.7-4.3-4.6-5.8l-2.8-1.4c-3.4-1.8-6.7-4.3-6.7-8.3 0-4.3 3-7.7 9.4-7.7q0.8 0 1.7 0.1 0.8 0.1 1.7 0.2 0.8 0.2 1.6 0.4 0.8 0.2 1.6 0.4l0.7 6.6h-0.8l-2.5-5.3q-0.5-0.2-1-0.4-0.5-0.2-1-0.4-0.5-0.1-1.1-0.2-0.5-0.1-1 0c-3.3 0-5.5 2-5.5 4.7 0 2.5 1.7 4.1 4.5 5.6l3.4 1.7c4.5 2.4 6.7 4.6 6.7 8.6 0 5-4.7 8.1-10.5 8.1q-1.1 0.1-2.1 0-1-0.1-2-0.2-1-0.2-2-0.4-1-0.3-2-0.6zm-115.6 6.8l3.2-0.9 9.9-26.4 3.3-0.9 10.2 27.3 3.2 0.9v1h-12.1v-1l4.1-0.9-2.9-7.8h-10.9l-2.9 7.8 4.1 0.9v1h-9.2zm8.8-10.8h9.4l-4.7-12.7zm43.1-8.7c0-4.9-3.6-6.3-9.6-6.3v12.4h1.8c4.6 0 7.7-2.5 7.8-6.1zm15.8-6.2l-2.2 4.7h-0.9l0.6-6.2h22.8l0.7 6.2h-0.9l-2.2-4.8h-6.7v24.9l4 1v1h-12.5v-1l4-0.9v-25z"/>
</svg>