<svg version="1.2" xmlns="http://www.w3.org/2000/svg" viewBox="0 0 210 25" width="210" height="25">
	<title>Porsche_Wortmarke</title>
	<style>
		.s0 { fill: #000000 } 
	</style>
	<g id="layer1">
		<path id="O" fill-rule="evenodd" class="s0" d="m34.2 17.4v-9.8c0-1 0.8-1.8 1.8-1.8h22.1c1 0 1.8 0.8 1.8 1.8v9.8c0 1-0.8 1.8-1.8 1.8h-22.1c-1 0-1.8-0.8-1.8-1.8zm2.6-8.4v7c0 0.3 0.3 0.6 0.6 0.6h19.4c0.3 0 0.6-0.3 0.6-0.6v-7c0-0.3-0.3-0.6-0.6-0.6h-19.4c-0.3 0-0.6 0.3-0.6 0.6z"/>
		<path id="P" fill-rule="evenodd" class="s0" d="m5 5.8h23.8c1 0 1.9 0.9 1.9 1.9v6.4c0 1-0.9 1.9-1.9 1.9h-21.2v3.2h-2.6zm2.6 7.6h19.7c0.4 0 0.8-0.4 0.8-0.8v-3.4c0-0.5-0.4-0.8-0.8-0.8h-19.7z"/>
		<path id="R" fill-rule="evenodd" class="s0" d="m63.3 5.8h23.8c1.1 0 1.9 0.9 1.9 1.9v6.4c0 0.9-0.6 1.7-1.4 1.8l1.6 3.3h-2.8l-1.6-3.2h-18.9v3.2h-2.6zm2.6 7.6h19.7c0.5 0 0.8-0.4 0.8-0.8v-3.4c0-0.5-0.3-0.8-0.8-0.8h-19.7z"/>
		<path id="H" fill-rule="evenodd" class="s0" d="m150.7 19.2h2.6v-5.4h19.2v5.4h2.6v-13.4h-2.6v5.4h-19.2v-5.4h-2.6v13.4z"/>
		<path id="C" fill-rule="evenodd" class="s0" d="m124.4 19.2h22.4v-2.6q-0.1 0-0.2 0h-20.8c-0.3 0-0.6-0.3-0.6-0.6v-7c0-0.3 0.3-0.6 0.6-0.6h20.8q0.1 0 0.2 0v-2.6h-22.4c-1 0-1.8 0.8-1.8 1.8v9.8c0 1 0.8 1.8 1.8 1.8z"/>
		<path id="E" fill-rule="evenodd" class="s0" d="m179.1 19.2h1.5 1.1 23.3v-2.6h-23.3v-2.8h23.3v-2.6h-23.3v-2.8h23.3v-2.6h-23.3-1.1-1.5v13.4z"/>
		<path id="S" fill-rule="evenodd" class="s0" d="m96.3 9.6v-0.6c0-0.3 0.2-0.6 0.6-0.6h20.8q0.1 0 0.2 0v-2.6h-22.4c-1 0-1.8 0.8-1.8 1.8v0.8 1.2 2.4c0 1 0.8 1.8 1.8 1.8h1.9q0.1 0 0.2 0h17c0.4 0 0.6 0.3 0.6 0.6v1 0.6c0 0.3-0.2 0.6-0.6 0.6h-20.7q-0.2 0-0.2 0v2.6h22.3c1 0 1.9-0.8 1.9-1.8v-0.8-1.2-2.4c0-1-0.9-1.8-1.9-1.8h-1.9q-0.1 0-0.2 0h-17c-0.4 0-0.6-0.3-0.6-0.6v-1z"/>
	</g>
</svg>