<svg version="1.2" xmlns="http://www.w3.org/2000/svg" viewBox="0 0 258 147" width="258" height="147"><style></style><path fill-rule="evenodd" d="m36.6 94.4v9.2c0 7.4 2.4 14 12.1 14 7.1 0 10.2-6.4 10.2-13 0-10.9-9-15-17-19.9-9.3-5.3-17.3-10.3-23-16.9-5.5-6.6-8.8-14.5-8.8-25.9 0-24.4 14.7-36.9 38.2-36.9 26.5 0 40 17.7 38.6 42h-28c-0.4-7.6 0-18-10.1-18.6-6.2-0.6-9.8 2.9-10.5 8.6-0.9 7.8 3.1 11.8 9.2 15.9 11.4 7.3 21.2 11.8 28.3 18.4 7.1 6.5 11.3 15.2 11.3 30.9 0 24.9-13.9 38.8-39.1 38.8-27.9 0-39.6-15.6-39.6-32.7v-13.9zm64.7 43.5v-129.8h36.1c11.8 0 28.7 1.1 37.2 10.7 7.1 8 8.5 17.7 8.5 28.2 0 14-3.3 29.8-17.1 36.2-10.6 5.2-22.9 3.6-34.3 4.1v50.6zm30.4-73.9c5.7-0.2 12.3 0.5 17.1-3.3 3.1-3.5 3.8-8.6 3.8-13.1 0-5.1-0.5-12.7-5.7-15.1-2.9-1-7.1-1-11.9-1h-3.3zm118.7 43.8c0 16.7-15.1 30.3-33.7 30.3-18.5 0-33.6-13.6-33.6-30.3 0-8.1 3-16 8.1-21.1 3.8-3.8 8.6-5.8 13.8-5.8 4.4 0 7.4 1.5 9.4 2.5h0.1l0.1 0.1c0.3 0.1 0.4 0.5 0.3 0.8l-1.2 3.6c0 0.3-0.3 0.4-0.6 0.4l-7.6 0.1c-0.3 0-0.5 0.1-0.6 0.4-0.1 0.3 0 0.6 0.2 0.8l6.2 4.4c0.2 0.2 0.3 0.5 0.2 0.8l-2.3 7.2c-0.1 0.3 0 0.6 0.2 0.7 0.3 0.2 0.6 0.2 0.8 0l6.1-4.4c0.3-0.2 0.6-0.2 0.8 0l6.2 4.4c0.2 0.2 0.5 0.2 0.8 0 0.2-0.1 0.3-0.4 0.2-0.7l-2.3-7.2c-0.1-0.3 0-0.6 0.2-0.8l6.1-4.4c0.3-0.2 0.4-0.5 0.3-0.8-0.1-0.3-0.4-0.4-0.7-0.4l-7.5-0.1c-0.3 0-0.6-0.1-0.7-0.4l-1.2-3.6c-0.1-0.3 0.1-0.7 0.4-0.8l0.1-0.1c2-1 5-2.5 9.5-2.5 5.2 0 9.9 2 13.8 5.8 5 5.1 8.1 13 8.1 21.1z"/></svg>