<svg version="1.2" xmlns="http://www.w3.org/2000/svg" viewBox="0 0 567 32" width="567" height="32">
	<title>Tommy_hilfig_vectorlogo</title>
	<style>
		.s0 { fill: #828282 } 
		.s1 { fill: #ffffff } 
		.s2 { fill: #000000 } 
	</style>
	<path class="s0" d="m268.8 23.4v-15.4h23.6v15.4z"/>
	<path class="s1" d="m245.2 23.4v-15.3h23.6v15.4h-23.6z"/>
	<path class="s2" d="m58.3 0c-10 0-16.5 7.2-16.5 15.7 0 8.3 6.3 15.8 16.4 15.8 10.4 0 16.6-7.5 16.6-15.8 0-8.5-6.4-15.7-16.5-15.7zm423.6 0c-9.4 0-16.5 6.9-16.5 15.9 0 9 6.9 15.6 16.4 15.6 4.3 0 7.6-0.7 11.7-2.5v-13h-10.3v4h5.9v6.3c-2.1 0.7-4.3 1.2-6.7 1.2-7.3 0-12.4-4.8-12.4-11.7 0-6.7 5.2-11.8 11.8-11.8 3.7 0 7.4 1.1 11 3v-4.4c-4.8-2-7.3-2.6-10.9-2.6zm-481.9 0.4v4h10.6v26.8h4.4v-26.8h10.6v-4zm95.5 0v30.7h4.4v-23.9h0.1l9.5 11.9h0.7l9.4-11.9h0.1v23.9h4.4v-30.7h-4.1l-10.1 12.6-10.2-12.6zm53.6 0v30.7h4.4v-23.9h0.1l9.5 11.9h0.7l9.5-11.9h0.1v23.9h4.4v-30.7h-4.1l-10.2 12.6-10.2-12.6zm47.8 0l11.4 14.5v16.2h4.4v-16.2l11.4-14.5h-5.3l-8.3 10.6-8.2-10.6zm48.3 0v7.6h47.2v-7.6zm72.3 0v30.7h4.4v-13.4h17.2v13.4h4.4v-30.7h-4.4v13.4h-17.2v-13.4zm44.3 0v30.7h4.4v-30.7zm22.5 0v30.7h18.3v-4h-13.9v-26.7zm30.9 0v30.7h4.4v-14.3h12v-4h-12v-8.4h12v-4zm31.9 0v30.7h4.4v-30.7zm63.2 0v30.7h17.8v-4h-13.4v-9.5h12.6v-4h-12.6v-9.2h13v-4zm32.9 0v30.7h4.4v-13.3h1.8c2.3 0 4.1 0.7 8.1 7l4 6.3h5.3c-2.1-2.9-2.9-4-4.2-6.1-2.3-3.8-4-6.7-6.8-8.5 3.3-1.3 5.1-4 5.1-7.5 0-5.3-3.9-8.6-10.1-8.6zm-484.9 3.6c6.9 0 12 5 12 11.7 0 6.7-5.1 11.7-12 11.7-6.8 0-11.9-5-11.9-11.7 0-6.7 5.1-11.7 11.9-11.7zm489.3 0.2h2.8c4.3 0 6 1.8 6 4.6 0 2.6-1.3 5-6 5h-2.8zm-302.4 19.2v7.7h47.2v-7.7z"/>
</svg>