<svg version="1.2" xmlns="http://www.w3.org/2000/svg" viewBox="0 0 629 158" width="200" height="50"><style></style><path fill-rule="evenodd" d="m601 25.3c4.7-0.6 9.9-0.1 14.7-0.1q0 0 0 0 0 0.1 0 0.1 0.2 0.3 0.3 0.5c0.4 1.3 0.2 87.8 0.1 95.6 0 0.7 0 1.3-0.4 2-4.5-0.3-9.1-0.2-13.6-0.2q0.1-0.2 0.1-0.4c0.3-1.3-0.5-5.2-1.2-6.2-1.5 2.4-5.2 4.6-7.9 5.8-8.9 3.9-18.7 2.3-27.5-1.1-0.7-1-2.9-2-4-2.8-5.6-4.3-9.1-9.4-11.4-16.2-3.2-9.1-2.3-20.4 2-29.1 3.6-7.4 9.8-13.1 17.6-15.8 8.4-2.7 17.6-2.1 25.5 1.9 1.5 0.7 4.3 2.2 4.9 3.8 0.8-1.9 0.2-5.7 0.2-7.9 0-4.2-0.6-27.3 0.2-29.3 0-0.2 0.3-0.5 0.4-0.6zm-17.4 85.1c5.1-0.3 9.5-2.9 12.8-6.7 3.8-4.2 5.2-9.5 4.8-15-0.3-5.6-2.9-10.9-7.1-14.6-3.7-3.2-8.1-4.5-12.9-4.2q-0.2 0-0.4 0c-5.3 1-9.7 3.3-12.8 7.9-3.2 4.5-4.7 10.6-3.6 16.1 1 5.3 3.7 10.5 8.2 13.6 3.2 2.2 7.1 3.2 11 2.9zm-324.5-85.1c5.4-0.5 11.1-0.1 16.6-0.1q0.2 0.2 0.2 0.5c0.5 1.9 0.4 12.6-0.5 13.9q0.3 0.5 0.5 1c0.6 2.9 0.1 10.1 0.1 13.4l-0.1 19.2c0 7 0.2 14.1-1 21-0.8 4.2-2.5 8.4-4.8 12.1-5.2 8.6-13.7 14.7-23.4 17.1-11.4 2.7-24.6 1.4-34.6-4.8-8.2-5.1-14.3-14.3-16.5-23.7-0.6-2.4-0.7-5-0.8-7.4-0.3-6.5-0.8-59.9-0.2-61.6 0.1-0.2 0.3-0.4 0.4-0.6 5.2-0.3 10.5-0.1 15.7-0.1 1 1.2-0.1 53.4 0.5 60.9 0.3 3.2 0.8 6.6 2 9.6 2.7 6.2 7.3 10.4 13.6 12.9 5.5 2.2 12.3 1.9 17.7-0.5 5.9-2.6 10.6-7.4 13-13.4 1-2.3 1.4-4.7 1.6-7.2 0.5-6.4 0.9-60.1 0-62.2zm214.6 30.9c4.9-0.3 10.1-0.5 14.9 0.7 6.1 1.5 12.1 5 15.4 10.5 2.9 4.9 3.7 11.2 2.3 16.7-1.2 4.7-4.6 8.3-8.7 10.8-10.8 6.4-25.8 4.6-37.4 1.6 2.3 2 2.7 6.8 6.4 9.9 2.6 2.2 5.8 3.4 9.1 4.1 7.8 1.5 12.3-1.1 18.8-5.1 1-0.7 2.2-1.5 3.5-1.7l0.5 0.6c2.1 0.8 6.3 5.3 7.6 7.3-0.1 0.7-0.6 1.3-1 1.8-5.9 6.7-15.8 10.5-24.6 11-8.8 0.6-18.1-2-24.8-8-6.7-5.9-9.9-14.4-10.4-23.3-0.6-9.4 2.3-19.8 8.6-27 4.6-5.1 12.8-9.5 19.8-9.9zm-13 28.1c5.4 1 10.8 2.2 16.3 1.9 4.4 0 9.1-0.4 12.4-3.6 1.2-1.2 2-2.7 2-4.4 0-1.9-1-3.7-2.3-5-2.5-2.5-6.5-3.5-9.9-3.4q-1.9 0-3.8 0.1c-4.8 1.1-8.4 3.1-11 7.3-1.5 2.2-2.2 5-3.7 7.1zm-60.3-64.3c5.5-0.5 11.2 0.1 16.3 2.3 5.7 2.6 10.8 7.8 13.1 13.7 0.9 2.5 3 7.2 1.9 9.8q-7.8-0.2-15.6-0.1c0.3-0.8 0-1.8-0.2-2.6-0.7-3.2-2.5-5.7-5.4-7.4-2.9-1.8-6.7-2.3-10-1.4-13.1 3.3-7.2 18.4-9.9 22.8q0 0.1 0 0.1c4.7-0.2 9.4 0.1 14.1-0.2q0.1 0.1 0.1 0.2 0 0 0.1 0.1 0.1 0.3 0.2 0.7c0.4 1.5 0.3 11.8-0.4 13.1-4.7-0.3-9.4-0.1-14.1-0.2q0.3 0.5 0.4 1c0.5 2.3 0.4 21.1-0.4 22.4q0.2 0.4 0.4 0.8c0.5 1.9 0.4 23.8 0.1 26.7q0 0.8-0.4 1.5c-5.3-0.1-10.6-0.2-15.9 0.1q0.1-0.3 0.2-0.6c0.8-2.7 0.2-13.4 0.2-16.9 0-11.1 0.5-22.4 0-33.4 0-0.6-0.1-1-0.4-1.5-4.3-0.2-8.6-0.1-12.9 0.1 0.2-0.3 0.3-0.6 0.4-1 0.3-2.3 0.6-11.2-0.6-12.8 4.4-0.2 8.8-0.1 13.2-0.1 0.7-1.7 0.4-4.4 0.5-6.2 0.3-7.9 1.7-16 6.9-22.2 4.5-5.5 11.2-8.2 18.1-8.8zm120 5.3c4.8-0.6 9.8 0 14.6-0.3 0.3 0.4 0.4 0.8 0.5 1.3 0.5 3.9 0.1 8.1 0.1 12v24.5 42c-0.1 5.3 0.3 10.7 0.1 16-0.1 1-0.1 1.7-0.8 2.5h-1.1c-4.8-0.1-9.6-0.1-14.5-0.1 1.4-2.2 0.7-21.4 0.7-25.5v-50.4-14.3c0-2.2-0.2-4.7 0-6.9 0.1-0.3 0.3-0.6 0.4-0.8zm-394.4 46.1q0.1 0 0.2 0c3.9-0.6 8.1-0.1 11.3 2.4 2.6 1.9 4.3 4.7 4.7 7.9 0.4 3.5-0.6 7-2.8 9.9-6.5 8.6-21.4 13.8-31.9 15.3-3.7 0.4-9 1.6-12.4-0.3-1.1-0.6-1.9-1.5-2.2-2.7-0.8-2.7 0.7-5.8 2-8.2 4.4-7.8 13.4-16.2 21.3-20.5 3.1-1.7 6.4-2.8 9.8-3.8zm304.2-14.3c0.7 0 1.8-0.3 2.3 0.2 0.5 3.1 0.2 6.4 0.2 9.6v15.7l0.1 25.6c0 4.4 0.2 8.9-0.1 13.3 0 0.7-0.2 1.3-0.5 1.8q-7-0.2-13.9-0.1c-0.7 0.1-1 0.1-1.6-0.2-0.4-1.3-0.4-63.5 0-64.2 0.1-0.4 0.1-0.7 0-1.1 2.3-1.2 10.4-0.5 13.5-0.6zm-125.5 7v-0.1c2.2-1.2 4-3.2 6.2-4.6 6.5-4 16.6-4.5 23.8-2.5 8 2.2 14.7 7.4 18.8 14.6 4.6 8 6.1 19.5 3.7 28.5-2.3 8.6-7.7 16.3-15.5 20.7-7 4-16.6 5.1-24.4 2.9-5.4-1.5-7.2-3.9-11.4-6q0.4 0.8 0.5 1.8c0.3 3.5 0.4 27.8-0.3 30.5 0 0.3-0.2 0.5-0.3 0.8q0 0-0.1 0.1 0 0.1-0.1 0.2h-15.9c0.4-0.6 0.5-1.2 0.5-2 0.5-21.8 0-43.8 0-65.7v-17.2c0-2.4 0.4-5.5-0.1-7.7q-0.2-0.7-0.5-1.3 7 0.2 14.1 0c1 1.3 1.3 4.6 1.1 6.1q0 0.5-0.1 0.9zm20.5 46.1c4.4 0.1 8.2-2.4 11.2-5.4 4-4 6-9 6-14.7 0.1-5.7-2.2-11.2-6.2-15.2-3.3-3.3-7.7-5.1-12.4-5.1q-1 0.1-2 0.1c-5.3 1-9.6 3.2-12.7 7.7-3.3 4.9-4.4 11.6-3.3 17.4 0.9 4.9 3.8 9.6 8.1 12.5 3.5 2.4 7.1 3.1 11.3 2.7zm-262 40.8c-4-1.3-8.2-1.7-12.2-2.9-14.5-4.6-27.3-14.2-34.1-27.9-2.7-5.5-5-12.5-2.9-18.5 0.5-1.5 1.4-2.8 2.9-3.5 2.5-1.2 5.5-0.5 8 0.4 6.7 2.4 13.5 8 20.4 11.1 24.7 11.2 55.3 13.2 80.3 1.7 4.7-2.2 9.5-4.8 13.7-7.7 3-2.1 5.8-4.4 8.8-6.4-6.3 19.6-21.5 36.4-39.7 45.7-5.1 2.7-10.6 4.7-16.3 6-2.6 0.6-6.2 0.9-8.6 2zm-54.1-119.5c2-5.6 3.8-10.2 9.5-12.9 5.7-2.5 12.3-2 18 0.1 15.6 5.8 27.3 21.6 33.9 36.2 5.7 12.5 9.5 31.8 9.3 45.7l-0.4 0.3c-3.4-0.1-19.7-18-22.9-21.5-4.1-4.5-7.9-9.4-11.6-14.3-2-2.7-3.9-5.6-6.2-8 1.2 3.7 2.9 7.3 4.6 10.8 7.2 14.7 15.7 25.5 27 37.1-22.8-6.8-43-21.6-54.5-42.9-2.1-3.8-3.7-7.8-4.9-12.1-0.6-2.2-0.9-4.8-1.8-6.8zm111.3-24.5h11.4c3.8 1.7 7.6 2.4 11.2 4.8 4.4 3 7.9 7.5 8.9 12.9 4.8 25.5-24.6 29.6-40.1 41-9.7 7.1-16.3 16.2-23 26-4.6-18.1-6.5-43.5 1.5-60.7 4.2-9 11.2-17.1 20.5-20.9 3.1-1.3 6.4-1.9 9.6-3.1z"/></svg>