<svg version="1.2" xmlns="http://www.w3.org/2000/svg" viewBox="0 0 490 105" width="490" height="105"><style>.a{fill:#010101}</style><path fill-rule="evenodd" class="a" d="m246.7 5.5c25.1-1.9 46.9 16.9 48.8 42 1.9 25.1-17 46.9-42.1 48.7-25.1 1.8-46.8-17-48.7-42-1.8-25 16.9-46.8 42-48.7zm-36.4 49.7c2.3 21.9 22.1 37.9 44.1 35.6 22-2.4 38-22.2 35.6-44.2-2.3-22-22.1-38-44.2-35.6-22 2.4-37.9 22.2-35.5 44.2zm-111.7-31.3c7.7-0.5 18.2-0.9 25.5 1.2 6.1 1.9 10.6 6.2 13.6 11.8 3.7 6.8 4 16.3 1.8 23.7-1.3 4.4-4.6 10.3-8.8 12.5q-0.1 0.2-0.2 0.3c-7.7 6.5-26.2 5.8-36 5.2-0.6-18.1-0.6-36.3-0.3-54.3 1.5-0.3 3-0.3 4.4-0.4zm0.9 4.6c-0.3 9.7-0.1 19.5-0.1 29.2 0 4.4-0.5 11.8 0.6 15.9 2 1.3 15.8 0.2 18.5-0.4 2-0.4 7-1.6 8.2-3.5q0.1-0.1 0.1-0.2c3.3-1.7 5.9-6.5 7.1-9.9 2-6.2 1.8-14.6-1.2-20.4-2.2-4.3-5.7-7.9-10.3-9.3-6-2-12.9-1.7-19.2-1.5zm267.6-4.7c6.3-0.3 19.8-0.8 25.5 0.6 3.4 0.8 6.3 2.8 8.1 5.8 1.6 2.7 2.7 6.6 1.9 9.7-1.1 4.4-5.2 8-8.9 10.2 3.5 1 7.4 3.1 9.6 6.1 2.1 3 2.3 6.7 1.7 10.3-0.3 1.6-0.8 3.8-2.2 4.8-0.1 0.8-1.5 2.1-2.1 2.6-6 5.7-16.7 4.8-24.4 4.8q-6.2-0.1-12.5-0.3 0-0.1 0.1-0.1 0.2-0.5 0.2-1.1c0.1-6.2-0.1-12.3-0.1-18.5 0-4.3 0.5-32.5-0.1-34.6zm1.8 29.6c0.2 0.3 0.4 0.6 0.4 0.9 0.1 4-0.2 8.1-0.2 12 0 1.8 0.5 5.6 0.1 7.1q0 0.2-0.1 0.4c4.7 0.5 15.7 1 20.1-0.2 3.7-0.6 6.8-2 9-5.2 1.5-2 2.1-4.6 1.6-7.1-0.5-2.4-2-4.3-4-5.7-4.7-3.2-11.5-2.7-16.9-2.6-3.3 0.1-6.7 0.1-10 0.4zm0.6-24.8c-1.6 3.1 0.7 17.8-0.6 19.8 4.9 0 20.3 0.8 23.6-2.4q0.2-0.2 0.4-0.5c1.7-0.8 3.3-2.6 3.9-4.4 0.8-2.4 0.6-5.3-0.5-7.6-0.9-2-2.6-3.5-4.8-4.3-4.6-1.6-15.9-1.4-21.1-0.9-0.3 0-0.8 0.1-0.9 0.3zm-52.3-5.1c6.5-0.4 14.4-0.8 20.8 0.9 4.2 1.1 7.5 3.5 9.7 7.3 2.3 3.9 3.1 8.8 2 13.2-1.7 6.3-6.8 9.6-12.1 12.6q0.3 0.2 0.5 0.5c2.3 3.1 14.2 18.1 13.8 20.9-1.2-0.3-2.4-0.2-3.6-0.5-3-0.8-3.8-3.6-6-5.4q0-0.1 0-0.2c-0.2-0.7-8.3-12.3-9.2-13.4-0.3-0.3-0.6-0.6-0.9-0.7-2.2-0.3-4.6-0.1-6.8-0.1q-4.7-0.1-9.3-0.4 0.2 0.3 0.2 0.6c0.4 1.8 0.2 18.6-0.4 19.5-1.7 0.3-3.3 0.2-4.9 0.2q0.1-0.2 0.2-0.5c0.4-1.4-0.1-7-0.1-8.8l-0.2-33.2c0-3.1 0.2-6.3 0.1-9.4 0-0.9-0.2-1.6-0.6-2.4 2.3-0.1 4.5-0.5 6.8-0.7zm-0.7 5.2c-1.3 2.4 0.7 23.2-0.5 25.2 5.2 0.1 19.5 0.8 23.2-3q0.1-0.1 0.3-0.4c2.1-1 3.9-3.6 4.7-5.8 1-2.9 0.7-7.3-0.6-10-1.4-2.7-3.7-4.4-6.5-5.3-5.4-1.8-14.1-1.6-19.7-1.1-0.3 0.1-0.7 0.1-0.9 0.4zm-146.2-4.7q10.6-0.2 21.1-0.1 0.3 0.3 0.3 0.7c0.3 1.3-0.1 3-0.8 4-10.7 0.2-21.3-0.2-32 0.3q0.1 0.2 0.2 0.5c0.3 0.8 0.3 16.2 0.2 18q-0.1 0.6-0.3 1.1c9.6 0.2 19.9-0.7 29.4 0.2q0.2 0.2 0.3 0.5c0.3 1.2-0.2 3-0.8 4.1-3.3 0.7-7.2 0.4-10.6 0.4-6.1 0-12.2-0.2-18.3 0.1q0.2 0.3 0.3 0.7c0.3 1.5 0.3 9.8-0.5 11q0.2 0.3 0.3 0.7c0.4 1.5 0.6 5.7-0.1 6.9 10.4 1 21.6-0.2 32.2 0.2q0.1 0.2 0.2 0.4c0.6 1.2 0.5 2.9 0.1 4.2-3.2 0.7-11.6 0.2-15.4 0.3-7.3 0-14.9 0.8-22.2 0 0-0.1 0.1-0.1 0.1-0.1 0.2-0.5 0.1-47.5-0.2-52.3 0-0.6-0.1-1.1-0.4-1.6zm-161.5-1.5c1.5 0.4 3.3 1.5 4.3 2.7 1.8 2.4 3 6.2 4.2 9l9.7 21.3c2 4.5 4.3 11.7 7.2 15.3 2-3.1 3-7 4.5-10.4 2.6-6.1 5.5-12.1 8.1-18.2 2.3-5.1 4.4-10.4 6.9-15.4 0.5-1 1.1-2.2 1.9-3 1-0.9 3.3-0.6 4.6-0.6-0.5 2.5-1.3 4.8-2.2 7.2-4.5 10.5-9.4 20.9-14.2 31.3-2.2 4.8-4 10.4-7 14.9-0.9 1.4-2.4 2.3-3.7 3.2-1.5-1.7-2.6-3.6-3.6-5.6-3.2-6.5-5.9-13.3-8.8-19.8l-7.3-16.4c-1.5-3.3-3.1-6.6-4.5-9.9-0.4-1.1-1-2.3-1.1-3.5-0.1-0.9 0.4-1.4 1-2.1zm422.1 1.7c9.2-0.4 18.5-0.1 27.8-0.1 7.3 0 15-0.4 22.3 0.3q0 0.2 0 0.3c0.1 1.4-0.6 2.6-1.5 3.6-2 1.1-18.1 0.5-21.6 0.6q0.2 0.3 0.2 0.6c0.4 1.9 0 7.4 0 9.6 0 5 0.3 10.2 0 15.2-0.1 0.4-0.2 0.8-0.4 1.2q0.1 0.3 0.3 0.6c0.3 1 0.4 21.3 0 22.2-1.9 0.1-3.7-0.1-5.5-0.2 0.1-0.3 0.3-0.6 0.3-0.9 0.3-1.5 0.1-3.3 0.1-4.8v-10.3-20.4c0-3.6 0.1-7.4-0.1-11.1 0-0.6-0.1-1.2-0.5-1.8-2.3-0.5-5.1-0.2-7.5-0.2q-7 0-14.1-0.2c0.7-1.1 0.4-3 0.2-4.2zm-356.4-0.3c1-0.1 2.1 0.1 3.1 0.2l-0.2 30.5c0.1 7.6 0.5 15.4 0.1 23.1-0.6 0.5-1.3 0.5-2.1 0.6q-1.5 0.1-3.1 0.3c0.1-14.2-0.4-28.5-0.1-42.8 0.1-3.7 0-7.6 0.3-11.4 0.6-0.4 1.3-0.4 2-0.5zm343.6 0.1c1.6-0.3 3.3-0.2 4.9 0q0.1 0.1 0.1 0.2v0.1q0.2 0.4 0.3 0.7c0.2 1.5 0 3.3 0 4.8l0.1 9.6q0.1 12.1 0.1 24.2c0 4.3 0.1 8.7 0 13.1 0 0.5-0.1 0.9-0.4 1.4-0.8 0.6-4.1 0.2-5.1 0.1 0 0 0-0.1 0.1-0.1 0.1-0.3 0.3-0.7 0.3-1.1 0.2-4.2 0.1-51.4-0.4-53z"/></svg>