<svg version="1.2" xmlns="http://www.w3.org/2000/svg" viewBox="0 0 512 139" width="512" height="139">
	<title>Walmart_logo</title>
	<style>
		.s0 { fill: #000000 } 
	</style>
	<g>
		<path fill-rule="evenodd" class="s0" d="m294.7 90.9c0 4.6 0.2 8.4 0.8 12.1-11.4 3.2-13.4-5.4-13.4-5.4h-0.3c-3.1 4-8.4 6.5-14.5 6.5-10.2 0-16-7.3-16-15.1 0-12.7 11.4-19 29.5-18.9v-0.8c0-3-1.4-7.7-9.6-7.7-5 0-10.3 1.8-13.7 3.9l-2.6-9.1c3.6-2.1 10.3-4.5 18.6-4.5 16.4 0 21.2 10 21.2 21.3zm-13.5-12c-8.6-0.1-16.1 1.8-16.1 8.7 0 4.4 2.9 6.6 6.7 6.6 4.5 0 8.1-3 9.1-6.4 0.3-0.8 0.3-1.8 0.3-2.7m-247.9-48.6c1.4 7 5.3 27.4 5.3 27.4 1.7 8.4 3.2 17.2 4.4 24.2h0.2c1.1-7.4 2.9-14.4 4.8-23.1l6.6-28.5h14.8l6.2 29.2c1.7 8.2 3 14.5 4 22h0.2c1.1-7.6 2.6-14.2 4.2-22.5l6-28.7h14.2l-17.6 66.4c-11.2 2.5-15.5-2-17-9.2-1.5-7.1-4.5-20.7-4.5-20.7-1.6-7.5-2.8-12.7-3.6-20.4h-0.2c-1.2 7.6-2.5 12.9-4.3 20.4l-7.4 29.9c-11.4 2.3-15.4-1.1-17.6-10.3-1.9-7.8-13.6-56.1-13.6-56.1zm110.3 54.4c0 4.6 0.2 8.4 0.8 12-11.4 3.3-13.4-5.3-13.4-5.3h-0.4c-3.1 3.9-8.2 6.4-14.5 6.4-10.1 0-15.9-7.2-15.9-15 0-12.8 11.4-19 29.5-19v-0.7c0-3-1.4-7.7-9.6-7.7-5.1 0-10.3 1.7-13.7 3.8l-2.6-9.1c3.6-2 10.3-4.4 18.6-4.4 16.4 0 21.2 10 21.2 21.3zm-13.5-12.1c-8.6 0-16.1 1.9-16.1 8.7 0 4.5 2.9 6.6 6.7 6.6 4.5 0 8-2.9 9.1-6.4 0.3-0.8 0.3-1.7 0.3-2.6zm34.3-42.4v66.4h-13.4v-66.4zm184.9 0v15.7h11.7v12.7h-11.7v18.7c0 6.1 1.5 9 6.1 9 2.2 0 3.8-0.2 5.2-0.6l0.1 10.6c-1.8 0.7-5.7 1.4-9.8 1.4-4.6 0-8.5-1.6-10.9-4.1-2.8-2.9-4-7.7-4-14.4v-49zm-35.9 16.5v9.4h0.3c2.5-7.2 8.4-10.5 13.6-10.5 1.3 0 2 0.1 3 0.3v13.1c-1.2-0.2-2.3-0.4-4-0.4-5.8 0-9.9 3.4-11 8.8-0.2 1.1-0.3 2.3-0.3 3.7v25.5h-13.9v-49.9zm-128.3 0v6.8h0.2c2.3-3.6 6.1-7.9 14.5-7.9 6.6 0 11.6 3.5 13.8 8.9h0.2c1.8-2.7 3.9-4.7 6.3-6.2 2.8-1.7 5.9-2.7 9.8-2.7 8.9 0 16.8 6.1 16.8 21.6v29.4h-13.5v-27.3c0-7.9-2.7-12.4-8.2-12.4-4.1 0-7.1 2.7-8.2 6-0.4 1.2-0.6 2.8-0.6 4.1v29.6h-13.5v-28.4c0-6.7-2.6-11.3-8-11.3-4.4 0-7.2 3.4-8.3 6.4-0.5 1.2-0.6 2.6-0.6 4v29.3h-13.6v-49.9zm243.7-5.4l-2.6-30c0-2.9 3.4-5.4 7.8-5.4 4.3 0 7.8 2.5 7.8 5.4l-2.6 30c-0.3 1.8-2.5 3.2-5.2 3.2-2.7 0-4.9-1.4-5.2-3.2zm-11 12.5c-1.3 2.3-3.6 3.6-5.4 2.9l-27.3-12.7c-2.5-1.4-2.9-5.7-0.7-9.5 2.2-3.7 6-5.5 8.6-4l24.6 17.2c1.4 1.2 1.5 3.8 0.2 6.1zm32.4 0.1c-1.3-2.4-1.2-5 0.2-6.2l24.6-17.2c2.6-1.5 6.4 0.3 8.6 4.1 2.2 3.8 1.8 7.9-0.8 9.4l-27.2 12.8c-1.7 0.6-4-0.6-5.4-3zm-16.2 28.1c2.6 0 4.9 1.4 5.2 3.2l2.6 29.9c0 3-3.5 5.4-7.8 5.4-4.4 0-7.9-2.4-7.9-5.4l2.7-29.9c0.3-1.8 2.5-3.2 5.2-3.2zm16.2-9.4c1.3-2.3 3.6-3.5 5.3-2.8l27.3 12.6c2.5 1.5 2.9 5.7 0.8 9.5-2.2 3.8-6.1 5.6-8.6 4.1l-24.7-17.3c-1.3-1.2-1.4-3.7-0.1-6.1zm-32.4 0c1.3 2.4 1.2 4.9-0.2 6.1l-24.6 17.3c-2.6 1.5-6.4-0.3-8.6-4.1-2.2-3.8-1.8-8 0.7-9.5l27.3-12.6c1.8-0.7 4.1 0.5 5.4 2.8z"/>
	</g>
</svg>