<svg version="1.2" xmlns="http://www.w3.org/2000/svg" viewBox="0 0 32 24" width="32" height="24"><style>.a{fill:#012169}.b{fill:#fff}.c{fill:#c8102e}</style><path fill-rule="evenodd" class="a" d="m32 0v24h-32v-24z"/><path class="b" d="m3.8 0l12.1 9.1 12.2-9.1h3.9v3.1l-12 9 12 8.9v3h-4l-12-8.9-11.9 8.9h-4.1v-3l12-8.9-12-8.9v-3.2z"/><path class="c" d="m21.2 14.1l10.8 7.9v2l-13.6-9.9zm-9.2 1l0.3 1.7-9.6 7.2h-2.7zm20-15.1v0.2l-12.4 9.4 0.1-2.2 9.8-7.4zm-32 0l12 8.8h-3l-9-6.7z"/><path class="b" d="m12.1 0v24h8v-24zm-12.1 8v8h32v-8z"/><path class="c" d="m0 9.7v4.8h32v-4.8zm13.7-9.7v24h4.7v-24z"/></svg>