<svg version="1.2" xmlns="http://www.w3.org/2000/svg" viewBox="0 0 128 128" width="128" height="128"><defs><clipPath clipPathUnits="userSpaceOnUse" id="cp1"><path d="m64.04 128.08c-35.41 0-64.04-28.63-64.04-64.04 0-35.41 28.63-64.04 64.04-64.04 35.41 0 64.04 28.63 64.04 64.04 0 35.41-28.63 64.04-64.04 64.04z"/></clipPath></defs><style>.a{fill:#4b0091}.b{fill:#ff5a00}.c{opacity:.2;fill:#ff5a00}.d{fill:#fff}</style><g clip-path="url(#cp1)"><path fill-rule="evenodd" class="a" d="m64 128.1c-35.4 0-64-28.6-64-64.1 0-35.4 28.6-64 64-64 35.5 0 64.1 28.6 64.1 64 0 35.5-28.6 64.1-64.1 64.1z"/><path fill-rule="evenodd" class="b" d="m64.1 159.8c-17.7 0-32-14.3-32-32 0-17.7 14.3-32 32-32 17.7 0 32 14.3 32 32 0 17.7-14.3 32-32 32z"/><path class="c" d="m0.2 64c0 0 256.4-0.4 256.4 128 0 0-256.4 0.4-256.4-128z"/><path class="c" d="m-63.9 30.7c0 0 256.4-0.4 256.4 128 0 0-256.4 0.5-256.4-128z"/><path class="c" d="m256.4 0.3c0 0-256-0.4-256 127.8 0 0 256 0.4 256-127.8z"/><path class="c" d="m191.7 0.4c0 0-256-0.5-256 127.8 0 0 256 0.4 256-127.8z"/></g><path class="d" d="m41 44.3c0 0-0.8-4.3-5.7-5.6-4.9-1.4-7.7 2.1-7.7 2.1 0 0 6-9.5 11.1-5.1 0 0 2.1-6.4 12.1-1.2 0 0-4.4-1.3-7.8 2.1-3.4 3.3-2 7.7-2 7.7z"/><path class="d" d="m75.3 30.9c-6.8-6.7-15.5-4-15.5-4 19.9-10.6 24.2 2.2 24.2 2.2 10.1-8.6 22.1 10.2 22.1 10.2 0 0-5.6-6.9-15.4-4.2-9.7 2.7-11.3 11.2-11.3 11.2 0 0 2.6-8.6-4.1-15.4z"/><path class="d" d="m48.5 70.2c-16.6-9.6-32.1 0.2-32.1 0.2 33-30.7 48-8.2 48-8.2 15-21.9 48 8.3 48 8.3 0-0.1-14.5-10.4-31.9-0.2-17.5 10.2-16.1 27.6-16.1 27.6 0 0 0.6-18.2-15.9-27.7z"/></svg>