<svg version="1.2" xmlns="http://www.w3.org/2000/svg" viewBox="0 0 1024 1024" width="1024" height="1024"><defs><clipPath clipPathUnits="userSpaceOnUse" id="cp1"><path d="m512.32 1024.63c-283.31 0-512.32-229-512.32-512.31 0-283.31 229.01-512.32 512.32-512.32 283.31 0 512.31 229.01 512.31 512.32 0 283.31-229 512.31-512.31 512.31z"/></clipPath></defs><style>.a{fill:#4b0091}.b{fill:#ff5a00}.c{opacity:.2;fill:#ff5a00}.d{fill:#fff}</style><g clip-path="url(#cp1)"><path class="a" d="m512.3 1024.6c-283.3 0-512.3-229-512.3-512.3 0-283.3 229-512.3 512.3-512.3 283.3 0 512.3 229 512.3 512.3 0 283.3-229 512.3-512.3 512.3z"/><path class="b" d="m512.6 1278.6c-141.6 0-256.1-114.5-256.1-256.1 0-141.7 114.5-256.2 256.1-256.2 141.7 0 256.2 114.5 256.2 256.2 0 141.6-114.5 256.1-256.2 256.1z"/><path class="c" d="m1.6 512c0 0 2051.2-3.5 2051.2 1024 0 0-2051.2 3.6-2051.2-1024z"/><path class="c" d="m-511.2 245.9c0 0 2051.2-3.4 2051.2 1024 0 0-2051.2 3.7-2051.2-1024z"/><path class="c" d="m2051.2 2.2c0 0-2048-3.4-2048 1022.4 0 0 2048 3.7 2048-1022.4z"/><path class="c" d="m1533.6 3c0 0-2048-3.4-2048 1022.4 0 0 2048 3.7 2048-1022.4z"/></g><path class="d" d="m327.7 354.2c0 0-6.4-34.3-45.3-45-39-10.6-61.6 16.9-61.6 16.9 0 0 48.2-75.3 88.5-40.7 0 0 17.3-51.3 96.9-9.2 0 0-35-10.7-62 16.3-27 27-16.5 61.7-16.5 61.7z"/><path class="d" d="m602.2 247.3c-54-54-124-32.5-124-32.5 159.2-84.2 193.9 18.3 193.9 18.3 80.6-69.2 177 81.4 177 81.4 0 0-45.2-55-123.2-33.7-77.9 21.3-90.7 89.9-90.7 89.9 0 0 21.1-69.4-33-123.4z"/><path class="d" d="m387.7 561.5c-132.4-76.4-256.5 1.4-256.5 1.4 264-245 384.1-64.9 384.1-64.9 119.9-175.5 384.1 65.6 384.1 65.6 0 0-115.9-82.9-255.4-1.4-139.6 81.5-128.7 220.8-128.7 220.8 0 0 4.8-145.1-127.6-221.5z"/></svg>