<svg version="1.2" xmlns="http://www.w3.org/2000/svg" viewBox="0 0 128 128" width="128" height="128">
	<title>New Project</title>
	<style>
		.s0 { fill: #ffffff } 
	</style>
	<path id="Shape 1" class="s0" d="m64.9 70q-0.6 0.8-1.4 0.8-0.8 0-1.4-0.8l-27.5-34.2q-0.6-0.7-0.6-1.7 0-1 0.6-1.7l2.9-3.7q0.6-0.7 1.4-0.7 0.8 0 1.4 0.7l23.2 28.9 23.2-28.9q0.6-0.7 1.4-0.7 0.8 0 1.4 0.7l2.9 3.7q0.6 0.7 0.6 1.7 0 1-0.6 1.7l-27.5 34.2zm0 28.3l27.5-34.3q0.6-0.7 0.6-1.7 0-0.9-0.6-1.7l-2.9-3.6q-0.6-0.8-1.4-0.8-0.8 0-1.4 0.8l-23.2 28.8-23.2-28.8q-0.6-0.8-1.4-0.8-0.8 0-1.4 0.8l-2.9 3.6q-0.6 0.8-0.6 1.7 0 1 0.6 1.7l27.5 34.3q0.6 0.7 1.4 0.7 0.8 0 1.4-0.7z"/>
</svg>