<svg version="1.2" preserveAspectRatio="xMinYMin meet" xmlns="http://www.w3.org/2000/svg" viewBox="0 0 828 267" width="828" height="267">
  <title>amazon-deforestation_mobile</title>
  <style>
		.s0 { fill: #444444 } 
		.s1 { fill: #222222 } 
	</style>
  <use id="Layer 2" href="#img1" x="0" y="0" />
  <g id="amazon-deforestation_mobile">
    <path id="Shape 1" fill-rule="evenodd" class="s0" d="m54 35c0-9.9 8.1-18 18-18h681c9.9 0 18 8.1 18 18v51c0 9.9-8.1 18-18 18h-681c-9.9 0-18-8.1-18-18zm178.4 104c0.8-0.8 2.1-0.8 2.8 0 0.8 0.8 0.8 2 0 2.8l-13.8 13.8 13.9 13.8c0.7 0.8 0.7 2.1 0 2.9-0.8 0.7-2.1 0.7-2.9 0l-14.8-14.9c-0.5-0.5-0.7-1.1-0.6-1.7-0.1-0.7 0.1-1.4 0.6-1.9zm169 32.9c-0.8 0.8-2.1 0.8-2.8 0-0.8-0.8-0.8-2 0-2.8l13.8-13.8-13.9-13.8c-0.7-0.8-0.7-2.1 0-2.9 0.8-0.7 2.1-0.7 2.9 0l14.8 14.9c0.5 0.5 0.7 1.1 0.6 1.7 0.1 0.7-0.1 1.4-0.6 1.9zm187.5-33.7c0.5 0.4 0.5 1.1 0 1.5-0.4 0.4-1 0.4-1.5 0l-5.4-5.5v25.8c0 1.1-0.9 2-2 2-1.1 0-2-0.9-2-2v-25.5l-5.2 5.2c-0.4 0.4-1.1 0.4-1.5 0-0.4-0.4-0.4-1.1 0-1.5l6.8-6.8c0.2-0.8 1-1.4 1.9-1.4q0.1 0 0.2 0c0.3 0 0.6 0.1 0.9 0.3q0.3 0.3 0.6 0.6zm-28 11.8c0-3.8 3.2-7 7-7h6v3h-5c-2.7 0-5 2.3-5 5v19c0 2.8 2.3 5 5 5h22c2.8 0 5-2.2 5-5v-19c0-2.7-2.2-5-5-5h-5v-3h6c3.9 0 7 3.2 7 7v21c0 3.9-3.1 7-7 7h-24c-3.8 0-7-3.1-7-7z" />
    <path id="zuncreative.com" fill-rule="evenodd" class="s1" d="m309.8 70v2h-12.6v-1.7l9.4-13.5h-8.8v-2.1h11.8v1.9l-9.4 13.4zm15.7-15.3h2.6v17.3h-2.1l-0.4-2.4h-0.1q-0.6 0.9-1.4 1.5-0.9 0.6-2 0.9-1 0.3-2.2 0.3-2.1 0-3.5-0.6-1.3-0.7-2.1-2.1-0.6-1.4-0.6-3.6v-11.3h2.6v11.1q0 2.2 1 3.3 1 1 3 1 1.9 0 3-0.7 1.2-0.7 1.7-2.1 0.5-1.4 0.5-3.5zm16.4-0.3q3 0 4.6 1.5 1.6 1.5 1.6 4.8v11.3h-2.6v-11.1q0-2.2-1-3.2-1-1.1-3-1.1-2.9 0-4 1.6-1.2 1.7-1.2 4.7v9.1h-2.6v-17.3h2.1l0.4 2.5h0.1q0.6-0.9 1.4-1.5 0.9-0.7 1.9-1 1.1-0.3 2.3-0.3zm18.5 17.9q-2.3 0-4.1-0.9-1.8-1-2.8-3-1-1.9-1-4.9 0-3.2 1.1-5.2 1-2 2.9-2.9 1.8-1 4.2-1 1.3 0 2.5 0.3 1.2 0.2 1.9 0.6l-0.7 2.2q-0.8-0.3-1.9-0.6-1-0.2-1.9-0.2-1.8 0-3 0.8-1.2 0.7-1.8 2.2-0.6 1.5-0.6 3.7 0 2.1 0.6 3.6 0.6 1.5 1.7 2.3 1.2 0.7 2.9 0.7 1.4 0 2.5-0.2 1.1-0.3 2-0.7v2.3q-0.9 0.4-2 0.7-1 0.2-2.5 0.2zm16.4-17.9q0.5 0 1.1 0.1 0.6 0 1 0.1l-0.3 2.4q-0.4-0.1-1-0.1-0.5-0.1-0.9-0.1-1.1 0-2 0.4-0.9 0.4-1.6 1.2-0.7 0.8-1.1 1.9-0.4 1.1-0.4 2.4v9.3h-2.6v-17.3h2.1l0.3 3.2h0.1q0.6-1 1.3-1.8 0.8-0.8 1.8-1.2 1-0.5 2.2-0.5zm12 0q2.2 0 3.8 1 1.6 1 2.4 2.7 0.9 1.8 0.9 4.1v1.6h-12q0.1 3.1 1.5 4.7 1.5 1.6 4.2 1.6 1.6 0 2.9-0.3 1.2-0.3 2.6-0.9v2.3q-1.3 0.6-2.6 0.9-1.3 0.2-3 0.2-2.5 0-4.4-1-1.8-1-2.9-3-1-2-1-4.8 0-2.8 0.9-4.8 1-2.1 2.7-3.2 1.7-1.1 4-1.1zm0 2.1q-2.1 0-3.3 1.4-1.3 1.4-1.5 3.8h9.1q0-1.5-0.5-2.7-0.4-1.1-1.4-1.8-0.9-0.7-2.4-0.7zm18-2.1q3.1 0 4.6 1.4 1.5 1.4 1.5 4.4v11.8h-1.9l-0.5-2.6h-0.2q-0.7 1-1.5 1.6-0.8 0.7-1.8 1-1 0.3-2.5 0.3-1.6 0-2.8-0.5-1.3-0.6-2-1.7-0.7-1.1-0.7-2.8 0-2.6 2.1-4 2-1.4 6.2-1.5l3-0.2v-1q0-2.3-0.9-3.2-1-0.9-2.8-0.9-1.3 0-2.5 0.4-1.3 0.4-2.4 1l-0.8-2q1.2-0.6 2.7-1 1.5-0.5 3.2-0.5zm3.5 10.7v-1.6l-2.6 0.1q-3.3 0.1-4.6 1.1-1.3 0.9-1.3 2.6 0 1.5 0.9 2.2 0.9 0.7 2.4 0.7 2.3 0 3.7-1.3 1.5-1.3 1.5-3.8zm13.6 5.1q0.6 0 1.3-0.1 0.7-0.1 1.1-0.3v2q-0.5 0.2-1.3 0.4-0.8 0.1-1.6 0.1-1.3 0-2.5-0.5-1.1-0.4-1.8-1.6-0.6-1.1-0.6-3.2v-10.2h-2.5v-1.3l2.5-1 1-3.8h1.6v4h5.1v2.1h-5.1v10.1q0 1.7 0.8 2.5 0.7 0.8 2 0.8zm5.9-15.5h2.6v17.3h-2.6zm1.3-6.5q0.7 0 1.1 0.5 0.5 0.4 0.5 1.3 0 0.8-0.5 1.2-0.4 0.5-1.1 0.5-0.6 0-1.1-0.5-0.4-0.4-0.4-1.2 0-0.9 0.4-1.3 0.5-0.5 1.1-0.5zm13.7 23.8h-3l-6.6-17.3h2.8l3.8 10.5q0.4 1 0.8 2.3 0.4 1.3 0.6 2.1h0.1q0.2-0.8 0.6-2.1 0.5-1.3 0.8-2.3l3.8-10.5h2.8zm16-17.6q2.2 0 3.8 1 1.6 1 2.4 2.7 0.9 1.8 0.9 4.1v1.6h-12q0.1 3.1 1.5 4.7 1.5 1.6 4.2 1.6 1.6 0 2.9-0.3 1.2-0.3 2.6-0.9v2.3q-1.3 0.6-2.6 0.9-1.3 0.2-3 0.2-2.5 0-4.4-1-1.8-1-2.9-3-1-2-1-4.8 0-2.8 0.9-4.8 1-2.1 2.7-3.2 1.7-1.1 4-1.1zm0 2.1q-2.1 0-3.3 1.4-1.3 1.4-1.5 3.8h9.1q0-1.5-0.5-2.7-0.4-1.1-1.4-1.8-0.9-0.7-2.4-0.7zm11.1 13.9q0-1.1 0.6-1.6 0.5-0.5 1.3-0.5 0.8 0 1.3 0.5 0.6 0.5 0.6 1.6 0 1.1-0.6 1.6-0.5 0.4-1.3 0.4-0.8 0-1.3-0.4-0.6-0.5-0.6-1.6zm15.8 1.9q-2.3 0-4.1-0.9-1.8-1-2.8-3-0.9-1.9-0.9-4.9 0-3.2 1-5.2 1.1-2 2.9-2.9 1.8-1 4.2-1 1.3 0 2.5 0.3 1.2 0.2 2 0.6l-0.8 2.2q-0.8-0.3-1.8-0.6-1.1-0.2-2-0.2-1.8 0-3 0.8-1.1 0.7-1.7 2.2-0.6 1.5-0.6 3.7 0 2.1 0.5 3.6 0.6 1.5 1.8 2.3 1.1 0.7 2.8 0.7 1.4 0 2.5-0.2 1.1-0.3 2-0.7v2.3q-0.9 0.4-1.9 0.7-1.1 0.2-2.6 0.2zm23.5-9q0 2.2-0.5 3.8-0.6 1.7-1.6 2.9-1.1 1.1-2.6 1.7-1.4 0.6-3.3 0.6-1.7 0-3.2-0.6-1.4-0.6-2.5-1.7-1-1.2-1.6-2.9-0.6-1.6-0.6-3.8 0-2.8 1-4.8 1-2 2.7-3 1.8-1.1 4.3-1.1 2.4 0 4.2 1.1 1.7 1 2.7 3 1 2 1 4.8zm-13.1 0q0 2.1 0.5 3.6 0.6 1.6 1.7 2.4 1.2 0.8 3 0.8 1.8 0 2.9-0.8 1.2-0.8 1.7-2.4 0.6-1.5 0.6-3.6 0-2-0.6-3.5-0.5-1.6-1.7-2.4-1.1-0.8-2.9-0.8-2.7 0-4 1.8-1.2 1.8-1.2 4.9zm36.4-8.9q2.9 0 4.3 1.5 1.5 1.5 1.5 4.8v11.3h-2.6v-11.2q0-2.1-0.9-3.1-0.9-1.1-2.7-1.1-2.5 0-3.7 1.5-1.1 1.4-1.1 4.2v9.7h-2.6v-11.2q0-1.4-0.4-2.3-0.4-1-1.2-1.4-0.8-0.5-2-0.5-1.7 0-2.8 0.7-1 0.7-1.5 2.1-0.4 1.4-0.4 3.5v9.1h-2.7v-17.3h2.2l0.3 2.5h0.2q0.5-0.9 1.3-1.6 0.8-0.6 1.8-0.9 0.9-0.3 2.1-0.3 1.9 0 3.2 0.7 1.4 0.8 2 2.3h0.1q0.9-1.5 2.4-2.3 1.5-0.7 3.2-0.7z" />
  </g>
</svg>
