<svg version="1.2" preserveAspectRatio="xMinYMin meet" xmlns="http://www.w3.org/2000/svg" viewBox="0 0 828 95" width="828" height="95">
  <title>header-svg</title>
  <style>
		.s1 { fill: #444444 } 
	</style>
  <path id="Layer" fill-rule="evenodd" class="s1" d="m678.4 53.6l-6.2 7-6.1-7c1.7-1.4 3.8-2.4 6.1-2.4 2.4 0 4.5 1 6.2 2.4zm-21.1-10.5l-2.9-3.2c4.9-4.3 11.2-7.3 18.1-7.3 6.9 0 13.2 3 18.1 7.3l-2.9 3.2c-4-3.6-9.4-5.8-15.2-5.8-5.8 0-11.2 2.2-15.2 5.8zm6 7l-3-3.5c3.2-2.8 7.5-4.7 12.1-4.7 4.7 0 8.9 1.9 12.2 4.8l-3 3.4c-2.5-2.2-5.7-3.5-9.2-3.5-3.5 0-6.7 1.3-9.1 3.5zm57.4-16.1h26.6c8.1 0 14.7 6.6 14.7 14.7 0 8-6.6 14.6-14.7 14.6h-26.6c-8.1 0-14.7-6.6-14.7-14.6 0-8.1 6.6-14.7 14.7-14.7zm-11 14.7c0 6 4.9 10.9 11 10.9h26.6c6.1 0 11-4.9 11-10.9 0-6.1-4.9-11-11-11h-26.6c-6.1 0-11 4.9-11 11zm11-8.4h26.6c4.7 0 8.4 3.7 8.4 8.4 0 4.6-3.7 8.3-8.4 8.3h-26.6c-4.7 0-8.4-3.7-8.4-8.3 0-4.7 3.7-8.4 8.4-8.4zm17.7 7.2h-3.5l1.1-5.6-5.9 7.9h3.5l-1.1 5.7zm-137.4 2.5h7v11h-7zm10-3h7v14h-7zm10 6h7v8h-7zm10 1h7v7h-7zm-560.5-16.4v25.4h-2.8c0-0.7 0-19.3 0-19.8q0-0.7 0.1-1.3 0-0.6 0-1.3-0.5 0.6-1 1-0.4 0.4-1.1 0.9l-2.9 2.4-1.5-2 6.8-5.3zm25.3 5.9q0 1.7-0.6 3-0.7 1.2-1.9 2-1.1 0.8-2.7 1.1v0.2q3 0.3 4.5 1.9 1.5 1.6 1.5 4.1 0 2.2-1 3.9-1 1.7-3.2 2.7-2.1 0.9-5.4 0.9-2 0-3.7-0.3-1.7-0.3-3.3-1.1v-2.7q1.6 0.8 3.4 1.3 1.9 0.4 3.6 0.4 3.5 0 5-1.4 1.6-1.4 1.6-3.8 0-1.6-0.9-2.6-0.8-1-2.5-1.5-1.5-0.5-3.8-0.5h-2.5v-2.5h2.5q2.1 0 3.5-0.6 1.5-0.6 2.2-1.7 0.8-1.1 0.8-2.6 0-1.9-1.3-3-1.3-1-3.5-1-1.4 0-2.5 0.3-1.1 0.2-2.1 0.7-0.9 0.5-1.9 1.1l-1.5-1.9q1.4-1.1 3.4-1.9 2-0.8 4.6-0.8 3.9 0 5.8 1.8 1.9 1.8 1.9 4.5zm5.5 17.7q0-1.2 0.6-1.7 0.6-0.6 1.5-0.6 0.8 0 1.5 0.6 0.6 0.5 0.6 1.7 0 1.2-0.6 1.7-0.7 0.6-1.5 0.6-0.9 0-1.5-0.6-0.6-0.5-0.6-1.7zm0-15.4q0-1.3 0.6-1.8 0.6-0.5 1.5-0.5 0.8 0 1.5 0.5 0.6 0.5 0.6 1.8 0 1.2-0.6 1.7-0.7 0.5-1.5 0.5-0.9 0-1.5-0.5-0.6-0.5-0.6-1.7zm24.2-2.3q0 1.7-0.6 3-0.7 1.2-1.9 2-1.2 0.8-2.8 1.1v0.2q3.1 0.3 4.6 1.9 1.5 1.6 1.5 4.1 0 2.2-1 3.9-1.1 1.7-3.2 2.7-2.1 0.9-5.4 0.9-2.1 0-3.8-0.3-1.7-0.3-3.2-1.1v-2.7q1.5 0.8 3.4 1.3 1.9 0.4 3.6 0.4 3.5 0 5-1.4 1.6-1.4 1.6-3.8 0-1.6-0.9-2.6-0.9-1-2.5-1.5-1.6-0.5-3.8-0.5h-2.6v-2.5h2.6q2.1 0 3.5-0.6 1.4-0.6 2.2-1.7 0.7-1.1 0.7-2.6 0-1.9-1.2-3-1.3-1-3.5-1-1.4 0-2.5 0.3-1.1 0.2-2.1 0.7-1 0.5-1.9 1.1l-1.5-1.9q1.4-1.1 3.4-1.9 2-0.8 4.5-0.8 3.9 0 5.9 1.8 1.9 1.8 1.9 4.5zm11.1 19.5h-3.2l10.5-22.8h-13.9v-2.6h16.9v2.2z" />
</svg>
