<svg version="1.2" xmlns="http://www.w3.org/2000/svg" viewBox="0 0 128 128" width="128" height="128">
	<title>icons</title>
	<style>
		.s0 { fill: #ffffff } 
	</style>
	<path id="Shape 1" class="s0" d="m86.5 96.7v8.1q0 1.7-1.4 2.9-1.3 1.2-3.1 1.2h-36q-1.8 0-3.1-1.2-1.4-1.2-1.4-2.9v-8.1q0-1.7 1.4-2.9 1.3-1.2 3.1-1.2h4.5v-24.5h-4.5q-1.8 0-3.1-1.2-1.4-1.2-1.4-2.9v-8.2q0-1.6 1.4-2.8 1.3-1.2 3.1-1.2h27q1.8 0 3.1 1.2 1.4 1.2 1.4 2.8v36.8h4.5q1.8 0 3.1 1.2 1.4 1.2 1.4 2.9zm-10.4-76.4q-1.3-1.2-3.1-1.2h-18q-1.8 0-3.1 1.2-1.4 1.2-1.4 2.9v12.2q0 1.7 1.4 2.9 1.3 1.2 3.1 1.2h18q1.8 0 3.1-1.2 1.4-1.2 1.4-2.9v-12.2q0-1.7-1.4-2.9z"/>
</svg>