<svg version="1.2" xmlns="http://www.w3.org/2000/svg" viewBox="0 0 160 181" width="160" height="181">
	<title>logo_white</title>
	<defs>
		<clipPath clipPathUnits="userSpaceOnUse" id="cp1">
			<path d="m131.85 25.15l19.94 16.84-17.42 17.37m-109.76-15.17c0 0 5.84-1.76 14.84-4.33 9.25-2.47 21.88-5.55 34.75-8.3 12.96-2.34 25.92-4.21 35.56-5.26 9.54-0.73 15.81-1.02 15.81-1.02 0 0 0.63 6.86 1.37 17.51 0.29 5.46 0.55 11.92 0.75 18.94 0.11 7.1 0.15 14.75 0.1 22.43-0.12 7.71-0.33 15.42-0.58 22.62-0.32 7.15-0.66 13.77-1 19.39-0.76 11.04-1.33 18.21-1.33 18.21 0 0-6.18 0.98-15.52 2.21-9.38 0.95-21.89 1.79-34.35 2.15-12.32-0.1-24.44-0.66-33.34-1.36-8.72-0.93-14.41-1.68-14.41-1.68 0 0-0.94-6.26-2.17-15.75-1.01-9.59-2-22.47-2.58-35.38-0.15-12.86 0.14-25.6 0.65-35.03 0.78-9.27 1.45-15.35 1.45-15.35zm109.15 64.01l17.05 14.28-19.76 21.23zm0.77-42.71l19.06 16.26-19.53 20.22zm-10.19 85.07l-17.22 17.92-15.08-14.46zm-71.31 3.2l-10.59 13.48-14.58-16.13zm33.74 0.5l-13.91 14.94-15.19-15.17zm-64.07-9.23l-13.6-16.8 9.82-13.36zm-4.94-70.63l-10.58-12.06 12.83-17.07zm0.75 35.29l-12.27-15.08 11.4-15.12zm6.48-70.64l14.77-18.7 11.4 10.87zm66.91-16.46l15.3-17.33 17.73 14.19zm-35.89 7.37l15.93-18.79 14.49 12.3zm-8.58 88.28c0 0 10.4-6.56 16.96 0 0 0-0.11-11.52 7.99-8 0 0-6.29-3.84-10.55 2.56 0 0-7.79-0.53-14.4 5.44zm47.34-23.99c-0.85-4.91-8-2.88-8-2.88 5.87-1.07 7.04 6.72 7.04 6.72 1.81-5.76 13.43-3.84 13.43-3.84-7.35-2.67-12.47 0-12.47 0zm-34.86-7.68c0 0 9.7-3.94 12.47 4.48 0 0 3.52-9.49 14.39-5.44 0 0-11.4-6.29-14.07-0.32 0 0-1.81-4.79-12.79 1.28z"/>
		</clipPath>
	</defs>
	<style>
		tspan { white-space:pre } 
		.s0 { fill: #d8d8d8 } 
		.s1 { fill: #ffffff } 
	</style>
	<g id="Group 3">
		<g id="Group 2">
			<g clip-path="url(#cp1)">
				<path id="Rectangle 2 copy 3" fill-rule="evenodd" class="s0" d="m131.8 25.1l20 16.9-17.4 17.4m-109.8-15.2c0 0 5.8-1.8 14.8-4.3 9.3-2.5 21.9-5.6 34.8-8.3 13-2.4 25.9-4.3 35.6-5.3 9.5-0.7 15.8-1 15.8-1 0 0 0.6 6.8 1.3 17.5 0.3 5.4 0.6 11.9 0.8 18.9 0.1 7.1 0.1 14.8 0.1 22.5-0.1 7.7-0.3 15.4-0.6 22.6-0.3 7.1-0.7 13.8-1 19.4-0.7 11-1.3 18.2-1.3 18.2 0 0-6.2 1-15.5 2.2-9.4 0.9-21.9 1.8-34.4 2.1-12.3-0.1-24.4-0.6-33.3-1.3-8.7-1-14.4-1.7-14.4-1.7 0 0-1-6.3-2.2-15.7-1-9.6-2-22.5-2.6-35.4-0.1-12.9 0.1-25.6 0.7-35.1 0.7-9.2 1.4-15.3 1.4-15.3zm109.2 64l17 14.3-19.7 21.2zm0.7-42.7l19.1 16.3-19.6 20.2zm-10.1 85l-17.3 18-15-14.5zm-71.4 3.2l-10.5 13.5-14.6-16.1zm33.7 0.5l-13.9 14.9-15.2-15.2zm-64-9.2l-13.7-16.8 9.9-13.4zm-5-70.6l-10.5-12 12.8-17.1zm0.7 35.3l-12.2-15.1 11.4-15.1zm6.4-70.7l14.8-18.7 11.4 10.9zm66.9-16.5l15.3-17.3 17.7 14.2zm-35.8 7.4l15.9-18.8 14.5 12.3zm-8.6 88.3c0 0 10.4-6.6 17 0 0 0-0.2-11.6 8-8 0 0-6.3-3.9-10.6 2.5 0 0-7.8-0.5-14.4 5.5zm47.3-24c-0.8-4.9-8-2.9-8-2.9 5.9-1.1 7.1 6.7 7.1 6.7 1.8-5.8 13.4-3.8 13.4-3.8-7.3-2.7-12.5 0-12.5 0zm-34.8-7.7c0 0 9.7-4 12.5 4.5 0 0 3.5-9.5 14.3-5.5 0 0-11.4-6.3-14-0.3 0 0-1.8-4.8-12.8 1.3z"/>
				<circle id="Ellipse 1" class="s1" cx="81.3" cy="125.2" r="70.2"/>
			</g>
		</g>
		<g id="Group 7">
		</g>
	</g>
</svg>